SplineFontDB: 3.0
FontName: Vazir
FullName: Vazir
FamilyName: Vazir
Weight: Regular
Copyright: Copyright (c) 2003 by Bitstream, Inc. All Rights Reserved.\nCopyright (c) 2006 by Tavmjong Bah. All Rights Reserved.\nDejaVu changes are in public domain\nCopyright (c) 2015 by Saber Rastikerdar. All Rights Reserved.
Version: 1.8.5
ItalicAngle: 0
UnderlinePosition: -100
UnderlineWidth: 100
Ascent: 1536
Descent: 512
LayerCount: 2
Layer: 0 1 "Back"  1
Layer: 1 1 "Fore"  0
XUID: [1021 502 1027637223 11580405]
UniqueID: 4026928
UseUniqueID: 1
FSType: 0
OS2Version: 1
OS2_WeightWidthSlopeOnly: 0
OS2_UseTypoMetrics: 1
CreationTime: 1431850356
ModificationTime: 1445951748
PfmFamily: 33
TTFWeight: 400
TTFWidth: 5
LineGap: 0
VLineGap: 0
Panose: 2 11 6 3 3 8 4 2 2 4
OS2TypoAscent: 1556
OS2TypoAOffset: 0
OS2TypoDescent: -492
OS2TypoDOffset: 0
OS2TypoLinegap: 410
OS2WinAscent: 1901
OS2WinAOffset: 0
OS2WinDescent: 483
OS2WinDOffset: 0
HheadAscent: 1901
HheadAOffset: 0
HheadDescent: -483
HheadDOffset: 0
OS2SubXSize: 1331
OS2SubYSize: 1433
OS2SubXOff: 0
OS2SubYOff: 286
OS2SupXSize: 1331
OS2SupYSize: 1433
OS2SupXOff: 0
OS2SupYOff: 983
OS2StrikeYSize: 102
OS2StrikeYPos: 530
OS2Vendor: 'PfEd'
OS2CodePages: 600001ff.dfff0000
Lookup: 1 0 0 "'case' Case-Sensitive Forms in Latin lookup 0"  {"'case' Case-Sensitive Forms in Latin lookup 0 subtable"  } ['case' ('DFLT' <'dflt' > 'latn' <'CAT ' 'ESP ' 'GAL ' 'dflt' > ) ]
Lookup: 6 1 0 "'ccmp' Glyph Composition/Decomposition lookup 2"  {"'ccmp' Glyph Composition/Decomposition lookup 2 subtable"  } ['ccmp' ('arab' <'KUR ' 'SND ' 'URD ' 'dflt' > 'hebr' <'dflt' > 'nko ' <'dflt' > ) ]
Lookup: 6 0 0 "'ccmp' Glyph Composition/Decomposition lookup 3"  {"'ccmp' Glyph Composition/Decomposition lookup 3 subtable"  } ['ccmp' ('cyrl' <'MKD ' 'SRB ' 'dflt' > 'grek' <'dflt' > 'latn' <'ISM ' 'KSM ' 'LSM ' 'MOL ' 'NSM ' 'ROM ' 'SKS ' 'SSM ' 'dflt' > ) ]

StartChar: exclam
Encoding: 33 33 1
Width: 771
VWidth: 1925
GlyphClass: 2
Flags: W
LayerCount: 2
Fore
SplineSet
290.46 238.76 m 1,0,-1
 481.28 238.76 l 1,1,-1
 481.28 0 l 1,2,-1
 290.46 0 l 1,3,-1
 290.46 238.76 l 1,0,-1
290.46 1403.42 m 1,4,-1
 481.28 1403.42 l 1,5,-1
 481.28 787.72 l 1,6,-1
 462.48 452.14 l 1,7,-1
 310.2 452.14 l 1,8,-1
 290.46 787.72 l 1,9,-1
 290.46 1403.42 l 1,4,-1
EndSplineSet
EndChar

StartChar: quotedbl
Encoding: 34 34 2
Width: 885
VWidth: 1925
GlyphClass: 2
Flags: W
LayerCount: 2
Fore
SplineSet
344.98 1403.42 m 1,0,-1
 344.98 881.72 l 1,1,-1
 185.18 881.72 l 1,2,-1
 185.18 1403.42 l 1,3,-1
 344.98 1403.42 l 1,0,-1
700.3 1403.42 m 1,4,-1
 700.3 881.72 l 1,5,-1
 540.5 881.72 l 1,6,-1
 540.5 1403.42 l 1,7,-1
 700.3 1403.42 l 1,4,-1
EndSplineSet
EndChar

StartChar: numbersign
Encoding: 35 35 3
Width: 1613
VWidth: 1925
GlyphClass: 2
Flags: W
LayerCount: 2
Fore
SplineSet
984.18 846.94 m 1,0,-1
 710.64 846.94 l 1,1,-1
 631.68 532.98 l 1,2,-1
 907.1 532.98 l 1,3,-1
 984.18 846.94 l 1,0,-1
843.18 1381.8 m 1,4,-1
 745.42 991.7 l 1,5,-1
 1019.9 991.7 l 1,6,-1
 1118.6 1381.8 l 1,7,-1
 1269 1381.8 l 1,8,-1
 1172.18 991.7 l 1,9,-1
 1465.46 991.7 l 1,10,-1
 1465.46 846.94 l 1,11,-1
 1135.52 846.94 l 1,12,-1
 1058.44 532.98 l 1,13,-1
 1357.36 532.98 l 1,14,-1
 1357.36 389.16 l 1,15,-1
 1021.78 389.16 l 1,16,-1
 924.02 0 l 1,17,-1
 773.62 0 l 1,18,-1
 870.44 389.16 l 1,19,-1
 595.02 389.16 l 1,20,-1
 498.2 0 l 1,21,-1
 346.86 0 l 1,22,-1
 444.62 389.16 l 1,23,-1
 148.52 389.16 l 1,24,-1
 148.52 532.98 l 1,25,-1
 479.4 532.98 l 1,26,-1
 558.36 846.94 l 1,27,-1
 255.68 846.94 l 1,28,-1
 255.68 991.7 l 1,29,-1
 595.02 991.7 l 1,30,-1
 690.9 1381.8 l 1,31,-1
 843.18 1381.8 l 1,4,-1
EndSplineSet
EndChar

StartChar: dollar
Encoding: 36 36 4
Width: 1224
VWidth: 1925
GlyphClass: 2
Flags: W
LayerCount: 2
Fore
SplineSet
650.48 -282.94 m 1,0,-1
 556.48 -282.94 l 1,1,-1
 555.54 0 l 1,2,3
 456.84 1.87988 456.84 1.87988 358.14 23.0303 c 128,-1,4
 259.44 44.1797 259.44 44.1797 159.8 86.4805 c 1,5,-1
 159.8 255.68 l 1,6,7
 255.68 195.52 255.68 195.52 353.91 164.97 c 128,-1,8
 452.14 134.42 452.14 134.42 556.48 133.48 c 1,9,-1
 556.48 562.12 l 1,10,11
 348.74 595.96 348.74 595.96 254.27 676.8 c 128,-1,12
 159.8 757.64 159.8 757.64 159.8 898.64 c 0,13,14
 159.8 1051.86 159.8 1051.86 262.26 1140.22 c 128,-1,15
 364.72 1228.58 364.72 1228.58 556.48 1241.74 c 1,16,-1
 556.48 1462.64 l 1,17,-1
 650.48 1462.64 l 1,18,-1
 650.48 1244.56 l 1,19,20
 737.9 1240.8 737.9 1240.8 819.68 1226.23 c 128,-1,21
 901.46 1211.66 901.46 1211.66 979.48 1186.28 c 1,22,-1
 979.48 1021.78 l 1,23,24
 901.46 1061.26 901.46 1061.26 819.21 1082.88 c 128,-1,25
 736.96 1104.5 736.96 1104.5 650.48 1108.26 c 1,26,-1
 650.48 706.88 l 1,27,28
 863.86 673.98 863.86 673.98 964.44 589.38 c 128,-1,29
 1065.02 504.78 1065.02 504.78 1065.02 358.14 c 0,30,31
 1065.02 199.28 1065.02 199.28 958.33 107.63 c 128,-1,32
 851.64 15.9805 851.64 15.9805 650.48 1.87988 c 1,33,-1
 650.48 -282.94 l 1,0,-1
556.48 723.8 m 1,34,-1
 556.48 1109.2 l 1,35,36
 447.44 1096.98 447.44 1096.98 390.1 1047.16 c 128,-1,37
 332.76 997.34 332.76 997.34 332.76 914.62 c 0,38,39
 332.76 833.78 332.76 833.78 385.87 788.66 c 128,-1,40
 438.98 743.54 438.98 743.54 556.48 723.8 c 1,34,-1
650.48 543.32 m 1,41,-1
 650.48 136.3 l 1,42,43
 769.86 152.28 769.86 152.28 830.49 203.98 c 128,-1,44
 891.12 255.68 891.12 255.68 891.12 340.28 c 0,45,46
 891.12 423 891.12 423 833.31 471.88 c 128,-1,47
 775.5 520.76 775.5 520.76 650.48 543.32 c 1,41,-1
EndSplineSet
EndChar

StartChar: percent
Encoding: 37 37 5
Width: 1829
VWidth: 1925
GlyphClass: 2
Flags: W
LayerCount: 2
Fore
SplineSet
1399.66 617.58 m 0,0,1
 1317.88 617.58 1317.88 617.58 1271.35 548.02 c 128,-1,2
 1224.82 478.46 1224.82 478.46 1224.82 354.38 c 0,3,4
 1224.82 232.18 1224.82 232.18 1271.35 162.15 c 128,-1,5
 1317.88 92.1201 1317.88 92.1201 1399.66 92.1201 c 0,6,7
 1479.56 92.1201 1479.56 92.1201 1526.09 162.15 c 128,-1,8
 1572.62 232.18 1572.62 232.18 1572.62 354.38 c 0,9,10
 1572.62 477.52 1572.62 477.52 1526.09 547.55 c 128,-1,11
 1479.56 617.58 1479.56 617.58 1399.66 617.58 c 0,0,1
1399.66 736.96 m 0,12,13
 1548.18 736.96 1548.18 736.96 1635.6 633.56 c 128,-1,14
 1723.02 530.16 1723.02 530.16 1723.02 354.38 c 256,15,16
 1723.02 178.6 1723.02 178.6 1635.13 75.6699 c 128,-1,17
 1547.24 -27.2598 1547.24 -27.2598 1399.66 -27.2598 c 0,18,19
 1249.26 -27.2598 1249.26 -27.2598 1161.84 75.6699 c 128,-1,20
 1074.42 178.6 1074.42 178.6 1074.42 354.38 c 0,21,22
 1074.42 531.1 1074.42 531.1 1162.31 634.03 c 128,-1,23
 1250.2 736.96 1250.2 736.96 1399.66 736.96 c 0,12,13
429.58 1309.42 m 256,24,25
 348.74 1309.42 348.74 1309.42 302.21 1239.39 c 128,-1,26
 255.68 1169.36 255.68 1169.36 255.68 1047.16 c 0,27,28
 255.68 923.08 255.68 923.08 301.74 853.52 c 128,-1,29
 347.8 783.96 347.8 783.96 429.58 783.96 c 256,30,31
 511.36 783.96 511.36 783.96 557.89 853.52 c 128,-1,32
 604.42 923.08 604.42 923.08 604.42 1047.16 c 0,33,34
 604.42 1168.42 604.42 1168.42 557.42 1238.92 c 128,-1,35
 510.42 1309.42 510.42 1309.42 429.58 1309.42 c 256,24,25
1278.4 1428.8 m 1,36,-1
 1428.8 1428.8 l 1,37,-1
 550.84 -27.2598 l 1,38,-1
 400.44 -27.2598 l 1,39,-1
 1278.4 1428.8 l 1,36,-1
429.58 1428.8 m 256,40,41
 578.1 1428.8 578.1 1428.8 666.46 1325.87 c 128,-1,42
 754.82 1222.94 754.82 1222.94 754.82 1047.16 c 0,43,44
 754.82 869.5 754.82 869.5 666.93 767.04 c 128,-1,45
 579.04 664.58 579.04 664.58 429.58 664.58 c 256,46,47
 280.12 664.58 280.12 664.58 193.17 767.51 c 128,-1,48
 106.22 870.44 106.22 870.44 106.22 1047.16 c 0,49,50
 106.22 1222 106.22 1222 193.64 1325.4 c 128,-1,51
 281.06 1428.8 281.06 1428.8 429.58 1428.8 c 256,40,41
EndSplineSet
EndChar

StartChar: ampersand
Encoding: 38 38 6
Width: 1501
VWidth: 1925
GlyphClass: 2
Flags: W
LayerCount: 2
Fore
SplineSet
468.12 754.82 m 1,0,1
 382.58 678.68 382.58 678.68 342.63 603.01 c 128,-1,2
 302.68 527.34 302.68 527.34 302.68 444.62 c 0,3,4
 302.68 307.38 302.68 307.38 402.32 216.2 c 128,-1,5
 501.96 125.02 501.96 125.02 652.36 125.02 c 0,6,7
 741.66 125.02 741.66 125.02 819.68 154.63 c 128,-1,8
 897.7 184.24 897.7 184.24 966.32 244.4 c 1,9,-1
 468.12 754.82 l 1,0,1
600.66 860.1 m 2,10,-1
 1078.18 371.3 l 1,11,12
 1133.64 454.96 1133.64 454.96 1164.66 550.37 c 128,-1,13
 1195.68 645.78 1195.68 645.78 1201.32 752.94 c 1,14,-1
 1376.16 752.94 l 1,15,16
 1364.88 628.86 1364.88 628.86 1316 507.6 c 128,-1,17
 1267.12 386.34 1267.12 386.34 1179.7 267.9 c 1,18,-1
 1441.96 0 l 1,19,-1
 1205.08 0 l 1,20,-1
 1070.66 138.18 l 1,21,22
 972.9 54.5195 972.9 54.5195 865.74 13.6299 c 128,-1,23
 758.58 -27.2598 758.58 -27.2598 635.44 -27.2598 c 0,24,25
 408.9 -27.2598 408.9 -27.2598 265.08 101.99 c 128,-1,26
 121.26 231.24 121.26 231.24 121.26 433.34 c 0,27,28
 121.26 553.66 121.26 553.66 184.24 659.41 c 128,-1,29
 247.22 765.16 247.22 765.16 373.18 858.22 c 1,30,31
 328.06 917.44 328.06 917.44 304.56 976.19 c 128,-1,32
 281.06 1034.94 281.06 1034.94 281.06 1091.34 c 0,33,34
 281.06 1243.62 281.06 1243.62 385.4 1336.21 c 128,-1,35
 489.74 1428.8 489.74 1428.8 662.7 1428.8 c 0,36,37
 740.72 1428.8 740.72 1428.8 818.27 1411.88 c 128,-1,38
 895.82 1394.96 895.82 1394.96 975.72 1361.12 c 1,39,-1
 975.72 1190.04 l 1,40,41
 893.94 1234.22 893.94 1234.22 819.68 1257.25 c 128,-1,42
 745.42 1280.28 745.42 1280.28 681.5 1280.28 c 0,43,44
 582.8 1280.28 582.8 1280.28 521.23 1228.11 c 128,-1,45
 459.66 1175.94 459.66 1175.94 459.66 1093.22 c 0,46,47
 459.66 1045.28 459.66 1045.28 487.39 996.87 c 128,-1,48
 515.12 948.46 515.12 948.46 600.66 860.1 c 2,10,-1
EndSplineSet
EndChar

StartChar: quotesingle
Encoding: 39 39 7
Width: 529
VWidth: 1925
GlyphClass: 2
Flags: W
LayerCount: 2
Fore
SplineSet
344.98 1403.42 m 1,0,-1
 344.98 881.72 l 1,1,-1
 185.18 881.72 l 1,2,-1
 185.18 1403.42 l 1,3,-1
 344.98 1403.42 l 1,0,-1
EndSplineSet
EndChar

StartChar: parenleft
Encoding: 40 40 8
Width: 751
VWidth: 1925
GlyphClass: 2
Flags: W
GlyphCompositionVertical: 3  uni239D%0,0,44,2703 uni239C%1,44,44,2731 uni239B%0,44,0,2740
LayerCount: 2
Fore
SplineSet
596.9 1460.76 m 1,0,1
 470.94 1244.56 470.94 1244.56 409.84 1033.06 c 128,-1,2
 348.74 821.56 348.74 821.56 348.74 604.42 c 256,3,4
 348.74 387.28 348.74 387.28 410.31 174.37 c 128,-1,5
 471.88 -38.54 471.88 -38.54 596.9 -253.8 c 1,6,-1
 446.5 -253.8 l 1,7,8
 305.5 -32.9004 305.5 -32.9004 235.47 180.48 c 128,-1,9
 165.44 393.86 165.44 393.86 165.44 604.42 c 0,10,11
 165.44 814.04 165.44 814.04 235 1026.48 c 128,-1,12
 304.56 1238.92 304.56 1238.92 446.5 1460.76 c 1,13,-1
 596.9 1460.76 l 1,0,1
EndSplineSet
EndChar

StartChar: parenright
Encoding: 41 41 9
Width: 751
VWidth: 1925
GlyphClass: 2
Flags: W
GlyphCompositionVertical: 3  uni23A0%0,0,44,2703 uni239F%1,44,44,2731 uni239E%0,44,0,2740
LayerCount: 2
Fore
SplineSet
154.16 1460.76 m 1,0,-1
 304.56 1460.76 l 1,1,2
 445.56 1238.92 445.56 1238.92 515.59 1026.48 c 128,-1,3
 585.62 814.04 585.62 814.04 585.62 604.42 c 0,4,5
 585.62 393.86 585.62 393.86 515.59 180.48 c 128,-1,6
 445.56 -32.9004 445.56 -32.9004 304.56 -253.8 c 1,7,-1
 154.16 -253.8 l 1,8,9
 279.18 -38.54 279.18 -38.54 340.75 174.37 c 128,-1,10
 402.32 387.28 402.32 387.28 402.32 604.42 c 256,11,12
 402.32 821.56 402.32 821.56 340.75 1033.06 c 128,-1,13
 279.18 1244.56 279.18 1244.56 154.16 1460.76 c 1,0,-1
EndSplineSet
EndChar

StartChar: asterisk
Encoding: 42 42 10
Width: 962
VWidth: 1925
GlyphClass: 2
Flags: W
LayerCount: 2
Fore
SplineSet
905.22 1172.18 m 1,0,-1
 567.76 989.82 l 1,1,-1
 905.22 806.52 l 1,2,-1
 850.7 714.4 l 1,3,-1
 534.86 905.22 l 1,4,-1
 534.86 550.84 l 1,5,-1
 427.7 550.84 l 1,6,-1
 427.7 905.22 l 1,7,-1
 111.86 714.4 l 1,8,-1
 57.3398 806.52 l 1,9,-1
 394.8 989.82 l 1,10,-1
 57.3398 1172.18 l 1,11,-1
 111.86 1265.24 l 1,12,-1
 427.7 1074.42 l 1,13,-1
 427.7 1428.8 l 1,14,-1
 534.86 1428.8 l 1,15,-1
 534.86 1074.42 l 1,16,-1
 850.7 1265.24 l 1,17,-1
 905.22 1172.18 l 1,0,-1
EndSplineSet
EndChar

StartChar: plus
Encoding: 43 43 11
Width: 1613
VWidth: 1925
GlyphClass: 2
Flags: W
LayerCount: 2
Fore
SplineSet
885.48 1206.96 m 1,0,-1
 885.48 683.38 l 1,1,-1
 1409.06 683.38 l 1,2,-1
 1409.06 523.58 l 1,3,-1
 885.48 523.58 l 1,4,-1
 885.48 0 l 1,5,-1
 727.56 0 l 1,6,-1
 727.56 523.58 l 1,7,-1
 203.98 523.58 l 1,8,-1
 203.98 683.38 l 1,9,-1
 727.56 683.38 l 1,10,-1
 727.56 1206.96 l 1,11,-1
 885.48 1206.96 l 1,0,-1
EndSplineSet
EndChar

StartChar: comma
Encoding: 44 44 12
Width: 611
VWidth: 1925
GlyphClass: 2
Flags: W
LayerCount: 2
Fore
SplineSet
225.6 238.76 m 1,0,-1
 423.94 238.76 l 1,1,-1
 423.94 77.0801 l 1,2,-1
 269.78 -223.72 l 1,3,-1
 148.52 -223.72 l 1,4,-1
 225.6 77.0801 l 1,5,-1
 225.6 238.76 l 1,0,-1
EndSplineSet
EndChar

StartChar: hyphen
Encoding: 45 45 13
Width: 694
VWidth: 1925
GlyphClass: 2
Flags: W
LayerCount: 2
Fore
SplineSet
94 604.42 m 1,0,-1
 600.66 604.42 l 1,1,-1
 600.66 450.26 l 1,2,-1
 94 450.26 l 1,3,-1
 94 604.42 l 1,0,-1
EndSplineSet
EndChar

StartChar: period
Encoding: 46 46 14
Width: 496
VWidth: 1925
GlyphClass: 2
Flags: W
LayerCount: 2
Fore
SplineSet
148.99 238.76 m 1,0,-1
 347.33 238.76 l 1,1,-1
 347.33 0 l 1,2,-1
 148.99 0 l 1,3,-1
 148.99 238.76 l 1,0,-1
EndSplineSet
EndChar

StartChar: slash
Encoding: 47 47 15
Width: 648
VWidth: 1925
GlyphClass: 2
Flags: W
LayerCount: 2
Fore
SplineSet
488.8 1403.42 m 1,0,-1
 648.6 1403.42 l 1,1,-1
 159.8 -178.6 l 1,2,-1
 0 -178.6 l 1,3,-1
 488.8 1403.42 l 1,0,-1
EndSplineSet
EndChar

StartChar: colon
Encoding: 58 58 16
Width: 648
VWidth: 1925
GlyphClass: 2
Flags: W
LayerCount: 2
Fore
SplineSet
225.6 238.76 m 1,0,-1
 423.94 238.76 l 1,1,-1
 423.94 0 l 1,2,-1
 225.6 0 l 1,3,-1
 225.6 238.76 l 1,0,-1
225.6 995.46 m 1,4,-1
 423.94 995.46 l 1,5,-1
 423.94 756.7 l 1,6,-1
 225.6 756.7 l 1,7,-1
 225.6 995.46 l 1,4,-1
EndSplineSet
EndChar

StartChar: semicolon
Encoding: 59 59 17
Width: 648
VWidth: 1925
GlyphClass: 2
Flags: W
LayerCount: 2
Fore
SplineSet
225.6 995.46 m 1,0,-1
 423.94 995.46 l 1,1,-1
 423.94 756.7 l 1,2,-1
 225.6 756.7 l 1,3,-1
 225.6 995.46 l 1,0,-1
225.6 238.76 m 1,4,-1
 423.94 238.76 l 1,5,-1
 423.94 77.0801 l 1,6,-1
 269.78 -223.72 l 1,7,-1
 148.52 -223.72 l 1,8,-1
 225.6 77.0801 l 1,9,-1
 225.6 238.76 l 1,4,-1
EndSplineSet
EndChar

StartChar: less
Encoding: 60 60 18
Width: 1613
VWidth: 1925
GlyphClass: 2
Flags: W
LayerCount: 2
Fore
SplineSet
1409.06 947.52 m 1,0,-1
 438.98 602.54 l 1,1,-1
 1409.06 259.44 l 1,2,-1
 1409.06 88.3604 l 1,3,-1
 203.98 525.46 l 1,4,-1
 203.98 681.5 l 1,5,-1
 1409.06 1118.6 l 1,6,-1
 1409.06 947.52 l 1,0,-1
EndSplineSet
EndChar

StartChar: equal
Encoding: 61 61 19
Width: 1613
VWidth: 1925
GlyphClass: 2
Flags: W
GlyphCompositionHorizontal: 2  equal%0,0,44,1433 equal%1,44,0,1433
LayerCount: 2
Fore
SplineSet
203.98 874.2 m 1,0,-1
 1409.06 874.2 l 1,1,-1
 1409.06 716.28 l 1,2,-1
 203.98 716.28 l 1,3,-1
 203.98 874.2 l 1,0,-1
203.98 490.68 m 1,4,-1
 1409.06 490.68 l 1,5,-1
 1409.06 330.88 l 1,6,-1
 203.98 330.88 l 1,7,-1
 203.98 490.68 l 1,4,-1
EndSplineSet
EndChar

StartChar: greater
Encoding: 62 62 20
Width: 1613
VWidth: 1925
GlyphClass: 2
Flags: W
LayerCount: 2
Fore
SplineSet
203.98 947.52 m 1,0,-1
 203.98 1118.6 l 1,1,-1
 1409.06 681.5 l 1,2,-1
 1409.06 525.46 l 1,3,-1
 203.98 88.3604 l 1,4,-1
 203.98 259.44 l 1,5,-1
 1172.18 602.54 l 1,6,-1
 203.98 947.52 l 1,0,-1
EndSplineSet
EndChar

StartChar: question
Encoding: 63 63 21
Width: 1021
VWidth: 1925
GlyphClass: 2
Flags: W
LayerCount: 2
Fore
SplineSet
367.54 238.76 m 1,0,-1
 558.36 238.76 l 1,1,-1
 558.36 0 l 1,2,-1
 367.54 0 l 1,3,-1
 367.54 238.76 l 1,0,-1
552.72 376.94 m 1,4,-1
 373.18 376.94 l 1,5,-1
 373.18 521.7 l 2,6,7
 373.18 616.64 373.18 616.64 399.5 677.74 c 128,-1,8
 425.82 738.84 425.82 738.84 510.42 819.68 c 1,9,-1
 595.02 903.34 l 1,10,11
 648.6 953.16 648.6 953.16 672.57 997.34 c 128,-1,12
 696.54 1041.52 696.54 1041.52 696.54 1087.58 c 0,13,14
 696.54 1171.24 696.54 1171.24 634.97 1222.94 c 128,-1,15
 573.4 1274.64 573.4 1274.64 471.88 1274.64 c 0,16,17
 397.62 1274.64 397.62 1274.64 313.49 1241.74 c 128,-1,18
 229.36 1208.84 229.36 1208.84 138.18 1145.86 c 1,19,-1
 138.18 1322.58 l 1,20,21
 226.54 1376.16 226.54 1376.16 317.25 1402.48 c 128,-1,22
 407.96 1428.8 407.96 1428.8 504.78 1428.8 c 0,23,24
 677.74 1428.8 677.74 1428.8 782.55 1337.62 c 128,-1,25
 887.36 1246.44 887.36 1246.44 887.36 1096.98 c 0,26,27
 887.36 1025.54 887.36 1025.54 853.52 961.15 c 128,-1,28
 819.68 896.76 819.68 896.76 735.08 815.92 c 1,29,-1
 652.36 735.08 l 2,30,31
 608.18 690.9 608.18 690.9 589.85 665.99 c 128,-1,32
 571.52 641.08 571.52 641.08 564 617.58 c 0,33,34
 558.36 597.84 558.36 597.84 555.54 569.64 c 128,-1,35
 552.72 541.44 552.72 541.44 552.72 492.56 c 2,36,-1
 552.72 376.94 l 1,4,-1
EndSplineSet
EndChar

StartChar: at
Encoding: 64 64 22
Width: 1925
VWidth: 1925
GlyphClass: 2
Flags: W
LayerCount: 2
Fore
SplineSet
716.28 504.78 m 0,0,1
 716.28 370.36 716.28 370.36 783.02 293.75 c 128,-1,2
 849.76 217.14 849.76 217.14 966.32 217.14 c 0,3,4
 1081.94 217.14 1081.94 217.14 1148.21 294.22 c 128,-1,5
 1214.48 371.3 1214.48 371.3 1214.48 504.78 c 0,6,7
 1214.48 636.38 1214.48 636.38 1146.8 713.93 c 128,-1,8
 1079.12 791.48 1079.12 791.48 964.44 791.48 c 0,9,10
 850.7 791.48 850.7 791.48 783.49 714.4 c 128,-1,11
 716.28 637.32 716.28 637.32 716.28 504.78 c 0,0,1
1228.58 223.72 m 1,12,13
 1172.18 151.34 1172.18 151.34 1099.33 117.03 c 128,-1,14
 1026.48 82.7197 1026.48 82.7197 929.66 82.7197 c 0,15,16
 767.98 82.7197 767.98 82.7197 666.93 199.75 c 128,-1,17
 565.88 316.78 565.88 316.78 565.88 504.78 c 256,18,19
 565.88 692.78 565.88 692.78 667.4 810.28 c 128,-1,20
 768.92 927.78 768.92 927.78 929.66 927.78 c 0,21,22
 1026.48 927.78 1026.48 927.78 1099.8 892.53 c 128,-1,23
 1173.12 857.28 1173.12 857.28 1228.58 785.84 c 1,24,-1
 1228.58 908.98 l 1,25,-1
 1363 908.98 l 1,26,-1
 1363 217.14 l 1,27,28
 1500.24 237.82 1500.24 237.82 1577.79 342.63 c 128,-1,29
 1655.34 447.44 1655.34 447.44 1655.34 613.82 c 0,30,31
 1655.34 714.4 1655.34 714.4 1625.73 802.76 c 128,-1,32
 1596.12 891.12 1596.12 891.12 1535.96 966.32 c 0,33,34
 1438.2 1089.46 1438.2 1089.46 1297.67 1154.79 c 128,-1,35
 1157.14 1220.12 1157.14 1220.12 991.7 1220.12 c 0,36,37
 876.08 1220.12 876.08 1220.12 769.86 1189.57 c 128,-1,38
 663.64 1159.02 663.64 1159.02 573.4 1098.86 c 1,39,40
 425.82 1002.98 425.82 1002.98 342.63 847.41 c 128,-1,41
 259.44 691.84 259.44 691.84 259.44 510.42 c 0,42,43
 259.44 360.96 259.44 360.96 313.49 230.3 c 128,-1,44
 367.54 99.6396 367.54 99.6396 470 0 c 1,45,46
 568.7 -97.7598 568.7 -97.7598 698.42 -148.99 c 128,-1,47
 828.14 -200.22 828.14 -200.22 975.72 -200.22 c 0,48,49
 1096.98 -200.22 1096.98 -200.22 1214.01 -159.33 c 128,-1,50
 1331.04 -118.44 1331.04 -118.44 1428.8 -42.2998 c 1,51,-1
 1513.4 -146.64 l 1,52,53
 1395.9 -237.82 1395.9 -237.82 1257.25 -286.23 c 128,-1,54
 1118.6 -334.64 1118.6 -334.64 975.72 -334.64 c 0,55,56
 801.82 -334.64 801.82 -334.64 647.66 -273.07 c 128,-1,57
 493.5 -211.5 493.5 -211.5 373.18 -94 c 256,58,59
 252.86 23.5 252.86 23.5 189.88 178.13 c 128,-1,60
 126.9 332.76 126.9 332.76 126.9 510.42 c 0,61,62
 126.9 681.5 126.9 681.5 190.82 836.6 c 128,-1,63
 254.74 991.7 254.74 991.7 373.18 1109.2 c 0,64,65
 494.44 1228.58 494.44 1228.58 653.3 1292.03 c 128,-1,66
 812.16 1355.48 812.16 1355.48 989.82 1355.48 c 0,67,68
 1189.1 1355.48 1189.1 1355.48 1359.71 1273.7 c 128,-1,69
 1530.32 1191.92 1530.32 1191.92 1645.94 1041.52 c 0,70,71
 1716.44 949.4 1716.44 949.4 1753.57 841.3 c 128,-1,72
 1790.7 733.2 1790.7 733.2 1790.7 617.58 c 0,73,74
 1790.7 370.36 1790.7 370.36 1641.24 227.48 c 128,-1,75
 1491.78 84.5996 1491.78 84.5996 1228.58 78.96 c 1,76,-1
 1228.58 223.72 l 1,12,13
EndSplineSet
EndChar

StartChar: bracketleft
Encoding: 91 91 23
Width: 751
VWidth: 1925
GlyphClass: 2
Flags: W
GlyphCompositionVertical: 3  uni23A3%0,0,44,2703 uni23A2%1,44,44,2731 uni23A1%0,44,0,2699
LayerCount: 2
Fore
SplineSet
165.44 1462.64 m 1,0,-1
 564 1462.64 l 1,1,-1
 564 1328.22 l 1,2,-1
 338.4 1328.22 l 1,3,-1
 338.4 -119.38 l 1,4,-1
 564 -119.38 l 1,5,-1
 564 -253.8 l 1,6,-1
 165.44 -253.8 l 1,7,-1
 165.44 1462.64 l 1,0,-1
EndSplineSet
EndChar

StartChar: backslash
Encoding: 92 92 24
Width: 648
VWidth: 1925
GlyphClass: 2
Flags: W
LayerCount: 2
Fore
SplineSet
159.8 1403.42 m 1,0,-1
 648.6 -178.6 l 1,1,-1
 488.8 -178.6 l 1,2,-1
 0 1403.42 l 1,3,-1
 159.8 1403.42 l 1,0,-1
EndSplineSet
EndChar

StartChar: bracketright
Encoding: 93 93 25
Width: 751
VWidth: 1925
GlyphClass: 2
Flags: W
GlyphCompositionVertical: 3  uni23A6%0,0,44,2687 uni23A5%1,44,44,2713 uni23A4%0,44,0,2699
LayerCount: 2
Fore
SplineSet
585.62 1462.64 m 1,0,-1
 585.62 -253.8 l 1,1,-1
 187.06 -253.8 l 1,2,-1
 187.06 -119.38 l 1,3,-1
 411.72 -119.38 l 1,4,-1
 411.72 1328.22 l 1,5,-1
 187.06 1328.22 l 1,6,-1
 187.06 1462.64 l 1,7,-1
 585.62 1462.64 l 1,0,-1
EndSplineSet
EndChar

StartChar: asciicircum
Encoding: 94 94 26
Width: 1613
VWidth: 1925
GlyphClass: 2
Flags: W
LayerCount: 2
Fore
SplineSet
898.64 1403.42 m 1,0,-1
 1409.06 879.84 l 1,1,-1
 1220.12 879.84 l 1,2,-1
 806.52 1251.14 l 1,3,-1
 392.92 879.84 l 1,4,-1
 203.98 879.84 l 1,5,-1
 714.4 1403.42 l 1,6,-1
 898.64 1403.42 l 1,0,-1
EndSplineSet
EndChar

StartChar: underscore
Encoding: 95 95 27
Width: 962
VWidth: 1925
GlyphClass: 2
Flags: W
GlyphCompositionHorizontal: 2  underscore%0,0,44,1188 underscore%1,44,0,1188
LayerCount: 2
Fore
SplineSet
981.36 -319.6 m 1,0,-1
 981.36 -454.02 l 1,1,-1
 -18.7998 -454.02 l 1,2,-1
 -18.7998 -319.6 l 1,3,-1
 981.36 -319.6 l 1,0,-1
EndSplineSet
EndChar

StartChar: grave
Encoding: 96 96 28
Width: 962
VWidth: 1925
GlyphClass: 2
Flags: W
LayerCount: 2
Fore
SplineSet
344.98 1539.72 m 1,0,-1
 610.06 1188.16 l 1,1,-1
 466.24 1188.16 l 1,2,-1
 159.8 1539.72 l 1,3,-1
 344.98 1539.72 l 1,0,-1
EndSplineSet
EndChar

StartChar: braceleft
Encoding: 123 123 29
Width: 1224
VWidth: 1925
GlyphClass: 2
Flags: W
GlyphCompositionVertical: 5  uni23A9%0,0,44,2700 uni23AA%1,44,44,2742 uni23A8%0,44,44,2727 uni23AA%1,44,44,2742 uni23A7%0,44,0,2719
LayerCount: 2
Fore
SplineSet
984.18 -178.6 m 1,0,-1
 984.18 -313.96 l 1,1,-1
 925.9 -313.96 l 2,2,3
 691.84 -313.96 691.84 -313.96 612.41 -244.4 c 128,-1,4
 532.98 -174.84 532.98 -174.84 532.98 32.9004 c 2,5,-1
 532.98 257.56 l 2,6,7
 532.98 399.5 532.98 399.5 482.22 454.02 c 128,-1,8
 431.46 508.54 431.46 508.54 297.98 508.54 c 2,9,-1
 240.64 508.54 l 1,10,-1
 240.64 642.96 l 1,11,-1
 297.98 642.96 l 2,12,13
 432.4 642.96 432.4 642.96 482.69 697.01 c 128,-1,14
 532.98 751.06 532.98 751.06 532.98 891.12 c 2,15,-1
 532.98 1116.72 l 2,16,17
 532.98 1324.46 532.98 1324.46 612.41 1393.55 c 128,-1,18
 691.84 1462.64 691.84 1462.64 925.9 1462.64 c 2,19,-1
 984.18 1462.64 l 1,20,-1
 984.18 1328.22 l 1,21,-1
 920.26 1328.22 l 2,22,23
 787.72 1328.22 787.72 1328.22 747.3 1286.86 c 128,-1,24
 706.88 1245.5 706.88 1245.5 706.88 1112.96 c 2,25,-1
 706.88 879.84 l 2,26,27
 706.88 732.26 706.88 732.26 664.11 665.52 c 128,-1,28
 621.34 598.78 621.34 598.78 517.94 575.28 c 1,29,30
 622.28 549.9 622.28 549.9 664.58 483.16 c 128,-1,31
 706.88 416.42 706.88 416.42 706.88 269.78 c 2,32,-1
 706.88 36.6602 l 2,33,34
 706.88 -95.8799 706.88 -95.8799 747.3 -137.24 c 128,-1,35
 787.72 -178.6 787.72 -178.6 920.26 -178.6 c 2,36,-1
 984.18 -178.6 l 1,0,-1
EndSplineSet
EndChar

StartChar: bar
Encoding: 124 124 30
Width: 648
VWidth: 1925
GlyphClass: 2
Flags: W
GlyphCompositionVertical: 2  bar%0,0,44,2287 bar%1,44,0,2287
LayerCount: 2
Fore
SplineSet
404.2 1471.1 m 1,0,-1
 404.2 -454.02 l 1,1,-1
 244.4 -454.02 l 1,2,-1
 244.4 1471.1 l 1,3,-1
 404.2 1471.1 l 1,0,-1
EndSplineSet
EndChar

StartChar: braceright
Encoding: 125 125 31
Width: 1224
VWidth: 1925
GlyphClass: 2
Flags: W
GlyphCompositionVertical: 5  uni23AD%0,0,44,2700 uni23AA%1,44,44,2742 uni23AC%0,44,44,2727 uni23AA%1,44,44,2742 uni23AB%0,44,0,2719
LayerCount: 2
Fore
SplineSet
240.64 -178.6 m 1,0,-1
 306.44 -178.6 l 2,1,2
 438.04 -178.6 438.04 -178.6 477.99 -138.18 c 128,-1,3
 517.94 -97.7598 517.94 -97.7598 517.94 36.6602 c 2,4,-1
 517.94 269.78 l 2,5,6
 517.94 416.42 517.94 416.42 560.24 483.16 c 128,-1,7
 602.54 549.9 602.54 549.9 706.88 575.28 c 1,8,9
 602.54 598.78 602.54 598.78 560.24 665.52 c 128,-1,10
 517.94 732.26 517.94 732.26 517.94 879.84 c 2,11,-1
 517.94 1112.96 l 2,12,13
 517.94 1246.44 517.94 1246.44 477.99 1287.33 c 128,-1,14
 438.04 1328.22 438.04 1328.22 306.44 1328.22 c 2,15,-1
 240.64 1328.22 l 1,16,-1
 240.64 1462.64 l 1,17,-1
 299.86 1462.64 l 2,18,19
 533.92 1462.64 533.92 1462.64 612.41 1393.55 c 128,-1,20
 690.9 1324.46 690.9 1324.46 690.9 1116.72 c 2,21,-1
 690.9 891.12 l 2,22,23
 690.9 751.06 690.9 751.06 741.66 697.01 c 128,-1,24
 792.42 642.96 792.42 642.96 925.9 642.96 c 2,25,-1
 984.18 642.96 l 1,26,-1
 984.18 508.54 l 1,27,-1
 925.9 508.54 l 2,28,29
 792.42 508.54 792.42 508.54 741.66 454.02 c 128,-1,30
 690.9 399.5 690.9 399.5 690.9 257.56 c 2,31,-1
 690.9 32.9004 l 2,32,33
 690.9 -174.84 690.9 -174.84 612.41 -244.4 c 128,-1,34
 533.92 -313.96 533.92 -313.96 299.86 -313.96 c 2,35,-1
 240.64 -313.96 l 1,36,-1
 240.64 -178.6 l 1,0,-1
EndSplineSet
EndChar

StartChar: asciitilde
Encoding: 126 126 32
Width: 1613
VWidth: 1925
GlyphClass: 2
Flags: W
LayerCount: 2
Fore
SplineSet
1409.06 767.98 m 1,0,-1
 1409.06 600.66 l 1,1,2
 1310.36 526.4 1310.36 526.4 1226.23 494.44 c 128,-1,3
 1142.1 462.48 1142.1 462.48 1050.92 462.48 c 0,4,5
 947.52 462.48 947.52 462.48 810.28 517.94 c 0,6,7
 799.94 521.7 799.94 521.7 795.24 523.58 c 0,8,9
 788.66 526.4 788.66 526.4 774.56 531.1 c 0,10,11
 628.86 589.38 628.86 589.38 540.5 589.38 c 0,12,13
 457.78 589.38 457.78 589.38 376.94 553.19 c 128,-1,14
 296.1 517 296.1 517 203.98 438.98 c 1,15,-1
 203.98 606.3 l 1,16,17
 302.68 680.56 302.68 680.56 386.81 712.99 c 128,-1,18
 470.94 745.42 470.94 745.42 562.12 745.42 c 0,19,20
 665.52 745.42 665.52 745.42 803.7 689.02 c 0,21,22
 813.1 685.26 813.1 685.26 817.8 683.38 c 0,23,24
 825.32 680.56 825.32 680.56 838.48 675.86 c 0,25,26
 984.18 617.58 984.18 617.58 1072.54 617.58 c 0,27,28
 1153.38 617.58 1153.38 617.58 1232.81 653.3 c 128,-1,29
 1312.24 689.02 1312.24 689.02 1409.06 767.98 c 1,0,-1
EndSplineSet
EndChar

StartChar: afii57388
Encoding: 1548 1548 34
Width: 664
VWidth: 2054
GlyphClass: 2
Flags: W
LayerCount: 2
Fore
SplineSet
355.818 0 m 4,0,1
 243.533 0 243.533 0 220 110 c 4,2,3
 209.1 160.95 209.1 160.95 228.857 247 c 4,4,5
 265.432 406.292 265.432 406.292 435.857 568 c 5,6,-1
 542.392 568 l 5,7,8
 364.725 423 364.725 423 353.857 252 c 5,9,10
 506.726 254.051 506.726 254.051 497.818 99.0693 c 4,11,12
 492.191 0 492.191 0 355.818 0 c 4,0,1
EndSplineSet
EndChar

StartChar: uni0615
Encoding: 1557 1557 35
Width: 0
VWidth: 2186
GlyphClass: 4
Flags: W
AnchorPoint: "Anchor-10" 547.84 1279.5 mark 0
AnchorPoint: "Anchor-9" 547.84 1279.5 mark 0
AnchorPoint: "Anchor-1" 547.84 1975 basemark 0
AnchorPoint: "Anchor-1" 547.84 1279.5 mark 0
LayerCount: 2
Fore
SplineSet
466.096 1456.96 m 1,0,-1
 552.12 1456.96 l 2,1,2
 639.138 1456.96 639.138 1456.96 665.862 1472.75 c 0,3,4
 697.288 1492.32 697.288 1492.32 713.059 1508.3 c 128,-1,5
 728.83 1524.27 728.83 1524.27 728.83 1541.65 c 0,6,7
 728.83 1583.09 728.83 1583.09 689.03 1604.94 c 1,8,9
 681.399 1607.6 681.399 1607.6 672.751 1605.46 c 128,-1,10
 664.102 1603.31 664.102 1603.31 640.309 1592.64 c 128,-1,11
 616.515 1581.97 616.515 1581.97 601.865 1576.19 c 0,12,13
 543.049 1552.44 543.049 1552.44 483.147 1478.12 c 2,14,-1
 466.096 1456.96 l 1,0,-1
576.73 1374.89 m 2,15,-1
 282.64 1374.89 l 1,16,-1
 282.64 1456.96 l 1,17,-1
 369.31 1456.96 l 1,18,-1
 369.31 1883.89 l 1,19,-1
 452.45 1883.89 l 1,20,-1
 452.45 1497.67 l 1,21,-1
 477.109 1547.67 l 2,22,23
 513.381 1621.22 513.381 1621.22 619.878 1662.18 c 0,24,25
 682.718 1686.12 682.718 1686.12 752.956 1660.03 c 0,26,27
 814.11 1636.51 814.11 1636.51 814.11 1557.7 c 0,28,29
 814.11 1466.67 814.11 1466.67 750.648 1417.09 c 0,30,31
 696.384 1374.89 696.384 1374.89 576.73 1374.89 c 2,15,-1
EndSplineSet
EndChar

StartChar: uni061B
Encoding: 1563 1563 36
Width: 654
VWidth: 2054
GlyphClass: 2
Flags: W
LayerCount: 2
Fore
SplineSet
338.676 433.611 m 4,0,1
 226.39 433.611 226.39 433.611 202.857 543.611 c 4,2,3
 191.957 594.561 191.957 594.561 211.715 680.611 c 4,4,5
 248.289 839.903 248.289 839.903 418.715 1001.61 c 5,6,-1
 525.249 1001.61 l 5,7,8
 347.582 856.611 347.582 856.611 336.715 685.611 c 5,9,10
 489.583 687.663 489.583 687.663 480.676 532.681 c 4,11,12
 475.048 433.611 475.048 433.611 338.676 433.611 c 4,0,1
232.49 239.023 m 1,13,-1
 420.274 239.023 l 1,14,-1
 420.274 7.99023 l 1,15,-1
 232.49 7.99023 l 1,16,-1
 232.49 239.023 l 1,13,-1
EndSplineSet
EndChar

StartChar: uni061F
Encoding: 1567 1567 37
Width: 1093
VWidth: 2054
GlyphClass: 2
Flags: W
LayerCount: 2
Fore
SplineSet
691.84 239.023 m 1,0,-1
 691.84 7.99023 l 1,1,-1
 512.103 7.99023 l 1,2,-1
 512.103 239.023 l 1,3,-1
 691.84 239.023 l 1,0,-1
518.138 411.315 m 1,4,-1
 518.138 522.81 l 2,5,6
 518.138 575.715 518.138 575.715 515.06 606.501 c 0,7,8
 511.934 637.76 511.934 637.76 505.543 660.122 c 0,9,10
 496.827 687.36 496.827 687.36 476.031 715.622 c 0,11,12
 455.868 743.022 455.868 743.022 407.894 790.997 c 2,13,-1
 319.283 877.593 l 1,14,15
 230.155 962.758 230.155 962.758 194.878 1029.88 c 0,16,17
 160.072 1096.12 160.072 1096.12 160.072 1169.54 c 0,18,19
 160.072 1323.89 160.072 1323.89 268.02 1417.8 c 0,20,21
 376.713 1512.37 376.713 1512.37 557.213 1512.37 c 0,22,23
 659.086 1512.37 659.086 1512.37 754.465 1484.68 c 0,24,25
 846.579 1457.96 846.579 1457.96 937.255 1404.02 c 1,26,-1
 937.255 1244.87 l 1,27,28
 848.514 1303.68 848.514 1303.68 766.345 1335.82 c 0,29,30
 674.191 1371.85 674.191 1371.85 592.416 1371.85 c 0,31,32
 479.337 1371.85 479.337 1371.85 410.053 1313.68 c 0,33,34
 339.81 1254.69 339.81 1254.69 339.81 1159.48 c 0,35,36
 339.81 1107.1 339.81 1107.1 366.937 1057.1 c 0,37,38
 393.542 1008.07 393.542 1008.07 452.198 953.518 c 1,39,-1
 542.663 864.064 l 1,40,41
 631.462 779.207 631.462 779.207 658.641 716.116 c 128,-1,42
 685.806 653.057 685.806 653.057 685.806 553.989 c 2,43,-1
 685.806 411.315 l 1,44,-1
 518.138 411.315 l 1,4,-1
EndSplineSet
EndChar

StartChar: uni0621
Encoding: 1569 1569 38
Width: 1030
VWidth: 2186
GlyphClass: 2
Flags: W
AnchorPoint: "Anchor-7" 541 113 basechar 0
AnchorPoint: "Anchor-10" 481.5 1172.5 basechar 0
LayerCount: 2
Fore
SplineSet
187.41 101.602 m 1,0,-1
 187.41 263.498 l 1,1,2
 237.556 271.485 237.556 271.485 317.178 295.469 c 0,3,4
 391.691 317.384 391.691 317.384 448.876 353.674 c 2,5,-1
 477.476 371.824 l 1,6,-1
 444.076 377.469 l 2,7,8
 297.648 402.218 297.648 402.218 246.196 478.893 c 0,9,10
 191.69 560.135 191.69 560.135 191.69 646.061 c 0,11,12
 191.69 713.824 191.69 713.824 213.721 792.506 c 1,13,14
 244.556 913.791 244.556 913.791 350.289 978.463 c 0,15,16
 453.081 1041.8 453.081 1041.8 554.26 1041.8 c 0,17,18
 663.938 1041.8 663.938 1041.8 755.26 1020.98 c 1,19,-1
 755.26 850.792 l 1,20,21
 656.881 879.36 656.881 879.36 586.047 877.336 c 0,22,23
 528.44 876.207 528.44 876.207 473.406 847.008 c 1,24,25
 363.566 792.09 363.566 792.09 364.71 664.192 c 1,26,27
 364.71 531.047 364.71 531.047 588.609 475.075 c 0,28,29
 652.785 459.312 652.785 459.312 718.077 476.2 c 0,30,31
 784.892 493.831 784.892 493.831 840.86 524.141 c 1,32,-1
 840.86 355.611 l 1,33,34
 744.697 293.335 744.697 293.335 533.49 210.913 c 0,35,36
 303.107 121.15 303.107 121.15 187.41 101.602 c 1,0,-1
EndSplineSet
EndChar

StartChar: uni0627
Encoding: 1575 1575 44
Width: 493
VWidth: 2186
GlyphClass: 2
Flags: W
AnchorPoint: "Anchor-10" 246.5 1495 basechar 0
AnchorPoint: "Anchor-7" 244.5 -111.5 basechar 0
LayerCount: 2
Fore
SplineSet
163.06 1400.96 m 1,0,-1
 329.94 1400.96 l 1,1,-1
 329.94 1.5 l 1,2,-1
 163.06 1.5 l 1,3,-1
 163.06 1400.96 l 1,0,-1
EndSplineSet
Substitution2: "'fina' Terminal Forms in Arabic lookup 9 subtable" uniFE8E
EndChar

StartChar: uni062D
Encoding: 1581 1581 50
Width: 1374
VWidth: 2181
GlyphClass: 2
Flags: W
AnchorPoint: "Anchor-10" 594.5 947.5 basechar 0
AnchorPoint: "Anchor-7" 638.84 -618.5 basechar 0
LayerCount: 2
Fore
SplineSet
79.9902 730.609 m 1,0,1
 367.405 795.4 367.405 795.4 570.96 795.4 c 0,2,3
 874.018 795.4 874.018 795.4 1080.12 740.673 c 1,4,-1
 1080.12 598.765 l 1,5,6
 401.257 482.166 401.257 482.166 314.195 138.5 c 0,7,8
 256.792 -86.0967 256.792 -86.0967 392.195 -221.5 c 0,9,10
 558.811 -388.115 558.811 -388.115 914.2 -323.5 c 0,11,12
 1013.2 -305.5 1013.2 -305.5 1246.4 -215.598 c 1,13,-1
 1246.4 -383.516 l 1,14,15
 1055.37 -472.611 1055.37 -472.611 860.195 -494.5 c 0,16,17
 536.835 -531.135 536.835 -531.135 324.195 -398.5 c 0,18,19
 107.652 -263.458 107.652 -263.458 122.195 63.5 c 0,20,21
 139.323 443.184 139.323 443.184 662.175 641.64 c 1,22,23
 482.441 641.64 482.441 641.64 311.553 621.22 c 0,24,25
 186.07 606.279 186.07 606.279 79.9902 563.628 c 1,26,-1
 79.9902 730.609 l 1,0,1
EndSplineSet
Substitution2: "'fina' Terminal Forms in Arabic lookup 9 subtable" uniFEA2
Substitution2: "'medi' Medial Forms in Arabic lookup 11 subtable" uniFEA4
Substitution2: "'init' Initial Forms in Arabic lookup 13 subtable" uniFEA3
EndChar

StartChar: uni062F
Encoding: 1583 1583 52
Width: 902
VWidth: 2186
GlyphClass: 2
Flags: W
AnchorPoint: "Anchor-10" 270.58 1060.5 basechar 0
AnchorPoint: "Anchor-7" 330.5 -170 basechar 0
LayerCount: 2
Fore
SplineSet
550.075 198.582 m 0,0,1
 621.434 214.465 621.434 214.465 642.57 266.343 c 0,2,3
 661.441 312.658 661.441 312.658 639.935 378.469 c 0,4,5
 575.978 569.941 575.978 569.941 261.321 756.854 c 1,6,-1
 355.106 898.924 l 1,7,8
 767.853 652.607 767.853 652.607 808.505 360.607 c 0,9,10
 828.329 219.26 828.329 219.26 751.853 134.607 c 0,11,12
 631.555 2.60742 631.555 2.60742 396.688 3.70996 c 0,13,14
 173.133 4.76367 173.133 4.76367 92.75 21.8193 c 1,15,-1
 92.75 201.331 l 1,16,17
 365.839 156.735 365.839 156.735 550.075 198.582 c 0,0,1
EndSplineSet
Substitution2: "'fina' Terminal Forms in Arabic lookup 9 subtable" uniFEAA
EndChar

StartChar: uni0631
Encoding: 1585 1585 54
Width: 788
VWidth: 2186
GlyphClass: 2
Flags: W
AnchorPoint: "Anchor-10" 372.7 798.348 basechar 0
AnchorPoint: "Anchor-7" 446.291 -511.16 basechar 0
LayerCount: 2
Fore
SplineSet
541.746 99.2871 m 0,0,1
 564 281.485 564 281.485 453.275 441.023 c 1,2,-1
 599.998 518.564 l 1,3,4
 735 318 735 318 705.244 74.4854 c 0,5,6
 643.844 -405.16 643.844 -405.16 30.0469 -465.593 c 1,7,-1
 0.650391 -302.476 l 1,8,9
 498.364 -261.515 498.364 -261.515 541.746 99.2871 c 0,0,1
EndSplineSet
PairPos2: "'kern' Horizontal Kerning lookup 15-1" uniFEDF dx=-70 dy=0 dh=-70 dv=0 dx=0 dy=0 dh=0 dv=0
PairPos2: "'kern' Horizontal Kerning lookup 15-1" uniFBAC dx=-70 dy=0 dh=-70 dv=0 dx=0 dy=0 dh=0 dv=0
PairPos2: "'kern' Horizontal Kerning lookup 15-1" uniFB90 dx=-70 dy=0 dh=-70 dv=0 dx=0 dy=0 dh=0 dv=0
PairPos2: "'kern' Horizontal Kerning lookup 15-1" uni06A9 dx=-70 dy=0 dh=-70 dv=0 dx=0 dy=0 dh=0 dv=0
PairPos2: "'kern' Horizontal Kerning lookup 15-1" uni0649 dx=-70 dy=0 dh=-70 dv=0 dx=0 dy=0 dh=0 dv=0
PairPos2: "'kern' Horizontal Kerning lookup 15-1" uni0647 dx=-70 dy=0 dh=-70 dv=0 dx=0 dy=0 dh=0 dv=0
PairPos2: "'kern' Horizontal Kerning lookup 15-1" uniFEE7 dx=-70 dy=0 dh=-70 dv=0 dx=0 dy=0 dh=0 dv=0
PairPos2: "'kern' Horizontal Kerning lookup 15-1" uniFEE3 dx=-70 dy=0 dh=-70 dv=0 dx=0 dy=0 dh=0 dv=0
PairPos2: "'kern' Horizontal Kerning lookup 15-1" uni0645 dx=-70 dy=0 dh=-70 dv=0 dx=0 dy=0 dh=0 dv=0
PairPos2: "'kern' Horizontal Kerning lookup 15-1" uni0644 dx=-70 dy=0 dh=-70 dv=0 dx=0 dy=0 dh=0 dv=0
PairPos2: "'kern' Horizontal Kerning lookup 15-1" uniFEDB dx=-70 dy=0 dh=-70 dv=0 dx=0 dy=0 dh=0 dv=0
PairPos2: "'kern' Horizontal Kerning lookup 15-1" uniFED7 dx=-70 dy=0 dh=-70 dv=0 dx=0 dy=0 dh=0 dv=0
PairPos2: "'kern' Horizontal Kerning lookup 15-1" uni0642 dx=-70 dy=0 dh=-70 dv=0 dx=0 dy=0 dh=0 dv=0
PairPos2: "'kern' Horizontal Kerning lookup 15-1" uniFED3 dx=-70 dy=0 dh=-70 dv=0 dx=0 dy=0 dh=0 dv=0
PairPos2: "'kern' Horizontal Kerning lookup 15-1" uni0641 dx=-70 dy=0 dh=-70 dv=0 dx=0 dy=0 dh=0 dv=0
PairPos2: "'kern' Horizontal Kerning lookup 15-1" uniFECF dx=-70 dy=0 dh=-70 dv=0 dx=0 dy=0 dh=0 dv=0
PairPos2: "'kern' Horizontal Kerning lookup 15-1" uniFECB dx=-70 dy=0 dh=-70 dv=0 dx=0 dy=0 dh=0 dv=0
PairPos2: "'kern' Horizontal Kerning lookup 15-1" uniFEC7 dx=-70 dy=0 dh=-70 dv=0 dx=0 dy=0 dh=0 dv=0
PairPos2: "'kern' Horizontal Kerning lookup 15-1" uni0638 dx=-70 dy=0 dh=-70 dv=0 dx=0 dy=0 dh=0 dv=0
PairPos2: "'kern' Horizontal Kerning lookup 15-1" uniFEC3 dx=-70 dy=0 dh=-70 dv=0 dx=0 dy=0 dh=0 dv=0
PairPos2: "'kern' Horizontal Kerning lookup 15-1" uni0637 dx=-70 dy=0 dh=-70 dv=0 dx=0 dy=0 dh=0 dv=0
PairPos2: "'kern' Horizontal Kerning lookup 15-1" uniFEBF dx=-70 dy=0 dh=-70 dv=0 dx=0 dy=0 dh=0 dv=0
PairPos2: "'kern' Horizontal Kerning lookup 15-1" uni0636 dx=-70 dy=0 dh=-70 dv=0 dx=0 dy=0 dh=0 dv=0
PairPos2: "'kern' Horizontal Kerning lookup 15-1" uniFEBB dx=-70 dy=0 dh=-70 dv=0 dx=0 dy=0 dh=0 dv=0
PairPos2: "'kern' Horizontal Kerning lookup 15-1" uni0635 dx=-70 dy=0 dh=-70 dv=0 dx=0 dy=0 dh=0 dv=0
PairPos2: "'kern' Horizontal Kerning lookup 15-1" uniFEB7 dx=-70 dy=0 dh=-70 dv=0 dx=0 dy=0 dh=0 dv=0
PairPos2: "'kern' Horizontal Kerning lookup 15-1" uni0634 dx=-70 dy=0 dh=-70 dv=0 dx=0 dy=0 dh=0 dv=0
PairPos2: "'kern' Horizontal Kerning lookup 15-1" uniFEB3 dx=-70 dy=0 dh=-70 dv=0 dx=0 dy=0 dh=0 dv=0
PairPos2: "'kern' Horizontal Kerning lookup 15-1" uni0633 dx=-70 dy=0 dh=-70 dv=0 dx=0 dy=0 dh=0 dv=0
PairPos2: "'kern' Horizontal Kerning lookup 15-1" uni0630 dx=-70 dy=0 dh=-70 dv=0 dx=0 dy=0 dh=0 dv=0
PairPos2: "'kern' Horizontal Kerning lookup 15-1" uni062F dx=-70 dy=0 dh=-70 dv=0 dx=0 dy=0 dh=0 dv=0
PairPos2: "'kern' Horizontal Kerning lookup 15-1" uniFEA7 dx=-70 dy=0 dh=-70 dv=0 dx=0 dy=0 dh=0 dv=0
PairPos2: "'kern' Horizontal Kerning lookup 15-1" uniFEA3 dx=-70 dy=0 dh=-70 dv=0 dx=0 dy=0 dh=0 dv=0
PairPos2: "'kern' Horizontal Kerning lookup 15-1" uniFE9F dx=-70 dy=0 dh=-70 dv=0 dx=0 dy=0 dh=0 dv=0
PairPos2: "'kern' Horizontal Kerning lookup 15-1" uniFE9B dx=-70 dy=0 dh=-70 dv=0 dx=0 dy=0 dh=0 dv=0
PairPos2: "'kern' Horizontal Kerning lookup 15-1" uni062B dx=-70 dy=0 dh=-70 dv=0 dx=0 dy=0 dh=0 dv=0
PairPos2: "'kern' Horizontal Kerning lookup 15-1" uniFE97 dx=-70 dy=0 dh=-70 dv=0 dx=0 dy=0 dh=0 dv=0
PairPos2: "'kern' Horizontal Kerning lookup 15-1" uni062A dx=-70 dy=0 dh=-70 dv=0 dx=0 dy=0 dh=0 dv=0
PairPos2: "'kern' Horizontal Kerning lookup 15-1" uni0629 dx=-70 dy=0 dh=-70 dv=0 dx=0 dy=0 dh=0 dv=0
PairPos2: "'kern' Horizontal Kerning lookup 15-1" uniFE91 dx=-70 dy=0 dh=-70 dv=0 dx=0 dy=0 dh=0 dv=0
PairPos2: "'kern' Horizontal Kerning lookup 15-1" uni0628 dx=-70 dy=0 dh=-70 dv=0 dx=0 dy=0 dh=0 dv=0
PairPos2: "'kern' Horizontal Kerning lookup 15-1" uni0627 dx=-70 dy=0 dh=-70 dv=0 dx=0 dy=0 dh=0 dv=0
PairPos2: "'kern' Horizontal Kerning lookup 15-1" uni0622 dx=-70 dy=0 dh=-70 dv=0 dx=0 dy=0 dh=0 dv=0
PairPos2: "'kern' Horizontal Kerning lookup 15-1" uniFB94 dx=-70 dy=0 dh=-70 dv=0 dx=0 dy=0 dh=0 dv=0
PairPos2: "'kern' Horizontal Kerning lookup 15-1" afii57509 dx=-70 dy=0 dh=-70 dv=0 dx=0 dy=0 dh=0 dv=0
PairPos2: "'kern' Horizontal Kerning lookup 15-1" uniFB56 dx=-70 dy=0 dh=-70 dv=0 dx=0 dy=0 dh=0 dv=0
PairPos2: "'kern' Horizontal Kerning lookup 15-1" afii57506 dx=-70 dy=0 dh=-70 dv=0 dx=0 dy=0 dh=0 dv=0
Substitution2: "'fina' Terminal Forms in Arabic lookup 9 subtable" uniFEAE
EndChar

StartChar: uni0633
Encoding: 1587 1587 56
Width: 2375
VWidth: 2186
GlyphClass: 2
Flags: W
AnchorPoint: "Anchor-10" 547.51 851.5 basechar 0
AnchorPoint: "Anchor-7" 516.5 -579.03 basechar 0
LayerCount: 2
Fore
SplineSet
1103 188.201 m 1,0,1
 1102.4 322.568 1102.4 322.568 1020.37 550.36 c 1,2,-1
 1189.07 550.36 l 1,3,4
 1217.68 435.117 1217.68 435.117 1256.53 342.478 c 0,5,6
 1326.88 174.744 1326.88 174.744 1489.48 176.156 c 128,-1,7
 1652.07 177.568 1652.07 177.568 1654.36 550.36 c 1,8,-1
 1775.12 550.36 l 1,9,10
 1775.02 187.029 1775.02 187.029 1924 171 c 0,11,12
 1984.15 164.936 1984.15 164.936 2028 199 c 0,13,14
 2127.71 274.574 2127.71 274.574 2100.73 528.42 c 0,15,-1
 2077.73 692 l 1,16,-1
 2247.61 725 l 1,17,18
 2276.3 621.5 2276.3 621.5 2283.5 434.5 c 0,19,20
 2291.62 239.785 2291.62 239.785 2187 117 c 0,21,22
 2089.61 4.31738 2089.61 4.31738 1985.95 -0.570312 c 0,23,24
 1784.64 -10.6465 1784.64 -10.6465 1718.46 135.354 c 1,25,26
 1674.79 1.75781 1674.79 1.75781 1458.61 1.55859 c 0,27,28
 1313.24 1.40527 1313.24 1.40527 1263 79.2012 c 1,29,30
 1236 -106.799 1236 -106.799 1174 -212.799 c 0,31,32
 1038 -442.799 1038 -442.799 694 -439.799 c 0,33,34
 383 -437.799 383 -437.799 238 -288.799 c 0,35,36
 90 -135.799 90 -135.799 90 100.201 c 0,37,38
 90 330.201 90 330.201 196 518.201 c 1,39,-1
 365 468.201 l 1,40,41
 275 250.201 275 250.201 273 99.2012 c 1,42,43
 272 -75.7988 272 -75.7988 376 -166.799 c 0,44,45
 482 -258.799 482 -258.799 687 -262.799 c 0,46,47
 988.033 -269.709 988.033 -269.709 1068 -51.4189 c 0,48,49
 1103 44.123 1103 44.123 1103 188.201 c 1,0,1
EndSplineSet
Substitution2: "'fina' Terminal Forms in Arabic lookup 9 subtable" uniFEB2
Substitution2: "'medi' Medial Forms in Arabic lookup 11 subtable" uniFEB4
Substitution2: "'init' Initial Forms in Arabic lookup 13 subtable" uniFEB3
EndChar

StartChar: uni0635
Encoding: 1589 1589 58
Width: 2376
VWidth: 2186
GlyphClass: 2
Flags: W
AnchorPoint: "Anchor-10" 481.84 851.5 basechar 0
AnchorPoint: "Anchor-7" 491.84 -571.5 basechar 0
LayerCount: 2
Fore
SplineSet
1263.95 70.5977 m 1,0,1
 1236.95 -115.402 1236.95 -115.402 1174.95 -221.402 c 0,2,3
 1040.41 -451.415 1040.41 -451.415 694.95 -448.402 c 0,4,5
 383.95 -446.402 383.95 -446.402 238.95 -297.402 c 0,6,7
 90.9502 -144.402 90.9502 -144.402 90.9502 91.5977 c 0,8,9
 90.9502 321.598 90.9502 321.598 196.95 509.598 c 1,10,-1
 365.95 459.598 l 1,11,12
 275.95 241.598 275.95 241.598 273.95 90.5977 c 1,13,14
 272.95 -84.4023 272.95 -84.4023 376.95 -175.402 c 0,15,16
 482.95 -267.402 482.95 -267.402 687.95 -271.402 c 0,17,18
 999.368 -278.435 999.368 -278.435 1079.95 -43.4023 c 0,19,20
 1103.95 26.5977 1103.95 26.5977 1103.95 179.598 c 1,21,22
 1103.95 316.291 1103.95 316.291 1062.78 464 c 1,23,-1
 1216.08 464 l 1,24,25
 1232.88 344.242 1232.88 344.242 1315.11 277.49 c 1,26,27
 1463.06 522.792 1463.06 522.792 1525.63 586.584 c 0,28,29
 1655.08 718.54 1655.08 718.54 1763.04 765.045 c 0,30,31
 1961.27 850.21 1961.27 850.21 2112.49 783.892 c 0,32,33
 2284.8 708.887 2284.8 708.887 2284.8 434.455 c 0,34,35
 2284.8 248.876 2284.8 248.876 2113.19 130.135 c 0,36,37
 1928.08 1.69922 1928.08 1.69922 1660.94 -0.0654297 c 2,38,-1
 1420.28 -1.65527 l 2,39,40
 1343.07 -2.16504 1343.07 -2.16504 1287.71 72.54 c 1,41,-1
 1263.95 70.5977 l 1,0,1
1425.49 187.744 m 1,42,-1
 1612.46 187.744 l 2,43,44
 1793.14 187.744 1793.14 187.744 1942.27 256.999 c 0,45,46
 2089.71 325.469 2089.71 325.469 2109.62 444.86 c 1,47,48
 2121.01 521.614 2121.01 521.614 2087.12 568.641 c 128,-1,49
 2053.23 615.667 2053.23 615.667 1976.99 628.909 c 0,50,51
 1845.32 651.191 1845.32 651.191 1714.64 542.532 c 1,52,53
 1557.68 409.275 1557.68 409.275 1437.22 207.405 c 2,54,-1
 1425.49 187.744 l 1,42,-1
EndSplineSet
Substitution2: "'fina' Terminal Forms in Arabic lookup 9 subtable" uniFEBA
Substitution2: "'medi' Medial Forms in Arabic lookup 11 subtable" uniFEBC
Substitution2: "'init' Initial Forms in Arabic lookup 13 subtable" uniFEBB
EndChar

StartChar: uni0637
Encoding: 1591 1591 60
Width: 1396
VWidth: 2186
GlyphClass: 2
Flags: W
AnchorPoint: "Anchor-10" 278.72 1527.47 basechar 0
AnchorPoint: "Anchor-7" 284.72 -165 basechar 0
LayerCount: 2
Fore
SplineSet
498.295 190.009 m 1,0,-1
 685.264 190.009 l 2,1,2
 865.94 190.009 865.94 190.009 1015.08 259.262 c 0,3,4
 1162.5 327.725 1162.5 327.725 1182.43 447.116 c 1,5,6
 1193.83 523.874 1193.83 523.874 1159.93 570.901 c 128,-1,7
 1126.04 617.929 1126.04 617.929 1049.8 631.172 c 0,8,9
 918.13 653.456 918.13 653.456 787.456 544.802 c 1,10,11
 630.447 411.491 630.447 411.491 510.026 209.67 c 2,12,-1
 498.295 190.009 l 1,0,-1
743.048 5.82812 m 2,13,-1
 186.218 0.5 l 1,14,-1
 7.75 0.5 l 1,15,-1
 7.75 179.38 l 1,16,-1
 203.28 179.38 l 1,17,-1
 203.28 1398.89 l 1,18,-1
 370.16 1398.89 l 1,19,-1
 370.16 253.824 l 1,20,-1
 394.629 299.68 l 2,21,22
 587.329 660.809 587.329 660.809 847.549 783.293 c 0,23,24
 1005.6 857.156 1005.6 857.156 1167.15 790.323 c 0,25,26
 1344.76 716.246 1344.76 716.246 1344.76 446.639 c 0,27,28
 1344.76 260.074 1344.76 260.074 1178.5 136.731 c 0,29,30
 1005.92 8.34346 1005.92 8.34346 743.048 5.82812 c 2,13,-1
EndSplineSet
Substitution2: "'fina' Terminal Forms in Arabic lookup 9 subtable" uniFEC2
Substitution2: "'medi' Medial Forms in Arabic lookup 11 subtable" uniFEC4
Substitution2: "'init' Initial Forms in Arabic lookup 13 subtable" uniFEC3
EndChar

StartChar: uni0639
Encoding: 1593 1593 62
Width: 1311
VWidth: 2186
GlyphClass: 2
Flags: W
AnchorPoint: "Anchor-10" 520.325 1352.51 basechar 0
AnchorPoint: "Anchor-7" 610.235 -640.76 basechar 0
LayerCount: 2
Fore
SplineSet
668.143 -340.419 m 0,0,1
 931.73 -327.987 931.73 -327.987 1133.52 -223.854 c 1,2,-1
 1168.42 -387.338 l 1,3,4
 991.38 -472.93 991.38 -472.93 773.209 -497.176 c 0,5,6
 641.375 -512.137 641.375 -512.137 527.254 -500.982 c 0,7,8
 298.155 -479.529 298.155 -479.529 182.582 -339.232 c 0,9,10
 64.8447 -196.586 64.8447 -196.586 82.3535 23.0244 c 0,11,12
 101.817 271.706 101.817 271.706 424.301 484.784 c 1,13,14
 370.106 489.596 370.106 489.596 308.254 537.018 c 0,15,16
 203.666 617.205 203.666 617.205 198.254 768.018 c 0,17,18
 190.386 1022.59 190.386 1022.59 445.753 1102.16 c 0,19,20
 610.038 1153.72 610.038 1153.72 830.254 1040.02 c 1,21,-1
 789.481 901.547 l 1,22,23
 638.069 975.22 638.069 975.22 528.267 958.066 c 0,24,25
 356.88 931.293 356.88 931.293 356.88 778.72 c 0,26,27
 356.88 659.874 356.88 659.874 446.254 615.018 c 0,28,29
 492.668 591.723 492.668 591.723 523.61 588.04 c 0,30,-1
 948.04 626.871 l 1,31,-1
 948.04 456.208 l 1,32,33
 671.466 428.751 671.466 428.751 512.929 338.253 c 0,34,35
 264.125 194.508 264.125 194.508 255.587 0.963867 c 0,36,37
 248.418 -170.888 248.418 -170.888 362.39 -256.978 c 0,38,39
 485.583 -348.679 485.583 -348.679 668.143 -340.419 c 0,0,1
EndSplineSet
Substitution2: "'fina' Terminal Forms in Arabic lookup 9 subtable" uniFECA
Substitution2: "'medi' Medial Forms in Arabic lookup 11 subtable" uniFECC
Substitution2: "'init' Initial Forms in Arabic lookup 13 subtable" uniFECB
EndChar

StartChar: afii57440
Encoding: 1600 1600 64
Width: 642
VWidth: 2186
GlyphClass: 2
Flags: W
AnchorPoint: "Anchor-10" 321 1279.5 basechar 0
AnchorPoint: "Anchor-7" 321 -111.5 basechar 0
LayerCount: 2
Fore
SplineSet
-8.40039 0 m 1,0,-1
 -8.40039 178.979 l 1,1,-1
 650.4 178.979 l 5,2,-1
 650.4 0 l 1,3,-1
 -8.40039 0 l 1,0,-1
EndSplineSet
EndChar

StartChar: uni0643
Encoding: 1603 1603 67
Width: 1734
VWidth: 2186
GlyphClass: 2
Flags: W
AnchorPoint: "Anchor-10" 531 1399.5 basechar 0
AnchorPoint: "Anchor-7" 789 -218.5 basechar 0
LayerCount: 2
Fore
SplineSet
1049.77 1191.37 m 1,0,-1
 1049.77 1129.46 l 1,1,2
 977.53 1124.56 977.53 1124.56 938.37 1110.13 c 0,3,4
 844.33 1074.87 844.33 1074.87 844.33 1030.55 c 0,5,6
 844.33 996.128 844.33 996.128 861.977 973.438 c 0,7,8
 877.961 952.126 877.961 952.126 956.02 940.646 c 0,9,10
 1006.93 933.158 1006.93 933.158 1032.99 909.356 c 128,-1,11
 1059.05 885.555 1059.05 885.555 1059.05 843.298 c 0,12,13
 1059.05 744.281 1059.05 744.281 967.3 692.399 c 0,14,15
 897.305 652.814 897.305 652.814 801.689 651.929 c 0,16,17
 738.676 651.929 738.676 651.929 684.148 661.5 c 1,18,-1
 684.148 729.882 l 1,19,20
 748.203 721.158 748.203 721.158 792.059 721.158 c 0,21,22
 865.923 721.158 865.923 721.158 913.305 739.814 c 0,23,24
 994.45 770.977 994.45 770.977 994.45 821.898 c 0,25,26
 994.45 878.181 994.45 878.181 900.736 893.454 c 0,27,28
 842.307 902.357 842.307 902.357 810.391 935.003 c 0,29,30
 778.093 968.039 778.093 968.039 779.375 1027.02 c 0,31,32
 781.326 1105.92 781.326 1105.92 854.637 1143.07 c 0,33,34
 937.89 1185.19 937.89 1185.19 1049.77 1191.37 c 1,0,-1
803.912 179.813 m 0,35,36
 1008.99 173.801 1008.99 173.801 1130.62 186.432 c 0,37,38
 1444.07 218.981 1444.07 218.981 1461.64 386.571 c 0,39,40
 1467.43 441.814 l 2,41,-1
 1467.43 1436.96 l 1,42,-1
 1638.3 1436.96 l 1,43,-1
 1638.3 411.814 l 2,44,45
 1638.3 393.984 1638.3 393.984 1635.64 355.166 c 0,46,47
 1620.76 138.003 1620.76 138.003 1327.64 46.5039 c 0,48,49
 1178.57 -0.0298237 1178.57 -0.0298237 911 2 c 24,50,51
 569.769 4.81854 569.769 4.81854 449.861 38.4805 c 0,52,53
 126.648 130.551 126.648 130.551 92 457 c 0,54,55
 79.4531 575.45 79.4531 575.45 128 709 c 1,56,-1
 290.912 676.955 l 5,57,58
 257.862 536.48 257.862 536.48 267 478 c 0,59,60
 300.288 257.155 300.288 257.155 525 203 c 0,61,62
 595.911 185.911 595.911 185.911 803.912 179.813 c 0,35,36
EndSplineSet
Substitution2: "'fina' Terminal Forms in Arabic lookup 9 subtable" uniFEDA
Substitution2: "'medi' Medial Forms in Arabic lookup 11 subtable" uniFEDC
Substitution2: "'init' Initial Forms in Arabic lookup 13 subtable" uniFEDB
EndChar

StartChar: uni0644
Encoding: 1604 1604 68
Width: 1263
VWidth: 2186
GlyphClass: 2
Flags: W
AnchorPoint: "Anchor-10" 439.01 1074.5 basechar 0
AnchorPoint: "Anchor-7" 503.15 -463.616 basechar 0
LayerCount: 2
Fore
SplineSet
969.47 164.241 m 24,0,1
 971.91 186.196 971.91 186.196 971.91 451.32 c 2,2,-1
 971.91 1399.03 l 1,3,-1
 1137.79 1399.03 l 1,4,-1
 1137.79 451.32 l 2,5,6
 1137.79 259.62 1137.79 259.62 1135.46 195.191 c 1,7,8
 1131.23 -44.5576 1131.23 -44.5576 989.406 -203.616 c 0,9,10
 868.928 -337.309 868.928 -337.309 644.385 -342.295 c 0,11,12
 388.069 -348.013 388.069 -348.013 244.396 -223.111 c 0,13,14
 102.646 -100.192 102.646 -100.192 92.0361 123.28 c 0,15,16
 85.0361 273.032 85.0361 273.032 136.823 404.99 c 1,17,-1
 296.222 372.975 l 1,18,19
 254.148 232.098 254.148 232.098 259.827 144.694 c 0,20,21
 269.08 -10.2246 269.08 -10.2246 363.96 -98.4141 c 0,22,23
 451.837 -180.613 451.837 -180.613 645.023 -173.547 c 0,24,25
 758.521 -169.648 758.521 -169.648 840.406 -110.616 c 0,26,27
 947.5 -33.4102 947.5 -33.4102 969.47 164.241 c 24,0,1
EndSplineSet
Substitution2: "'fina' Terminal Forms in Arabic lookup 9 subtable" uniFEDE
Substitution2: "'medi' Medial Forms in Arabic lookup 11 subtable" uniFEE0
Substitution2: "'init' Initial Forms in Arabic lookup 13 subtable" uniFEDF
EndChar

StartChar: uni0645
Encoding: 1605 1605 69
Width: 1062
VWidth: 2186
GlyphClass: 2
Flags: W
AnchorPoint: "Anchor-10" 544.5 1011.31 basechar 0
AnchorPoint: "Anchor-7" 131.631 -696.952 basechar 0
LayerCount: 2
Fore
SplineSet
501 319 m 4,0,1
 621 313 621 313 630 313 c 4,2,3
 717 313 717 313 763 326 c 4,4,5
 811.823 339.585 811.823 339.585 810 376 c 4,6,7
 798.106 573.189 798.106 573.189 636.174 611.965 c 4,8,9
 521.033 637.688 521.033 637.688 468.174 573.455 c 4,10,11
 414.402 497.312 414.402 497.312 429 330 c 5,12,13
 436 322 436 322 501 319 c 4,0,1
376 154 m 4,14,15
 303 154 303 154 257 64 c 4,16,17
 227 5 227 5 227 -84 c 6,18,-1
 227 -630 l 5,19,-1
 61 -630 l 5,20,-1
 61 -70 l 6,21,22
 61 119 61 119 137 215 c 4,23,24
 188 280 188 280 269 294 c 5,25,26
 254.763 582.016 254.763 582.016 373.174 691.455 c 4,27,28
 505.786 813.02 505.786 813.02 708.286 752.02 c 4,29,30
 928.391 683.772 928.391 683.772 957 418 c 4,31,32
 976.887 237 976.887 237 855 169 c 5,33,34
 794 143 794 143 657 148 c 4,35,36
 478 154 478 154 376 154 c 4,14,15
EndSplineSet
Substitution2: "'init' Initial Forms in Arabic lookup 13 subtable" uniFEE3
Substitution2: "'medi' Medial Forms in Arabic lookup 11 subtable" uniFEE4
Substitution2: "'fina' Terminal Forms in Arabic lookup 9 subtable" uniFEE2
EndChar

StartChar: uni0647
Encoding: 1607 1607 71
Width: 951
VWidth: 2186
GlyphClass: 2
Flags: W
AnchorPoint: "Anchor-10" 438.924 1154.58 basechar 0
AnchorPoint: "Anchor-7" 471.864 -106.56 basechar 0
LayerCount: 2
Fore
SplineSet
283.186 402.335 m 0,0,1
 254.349 328.805 254.349 328.805 279.757 269.295 c 128,-1,2
 305.165 209.784 305.165 209.784 382.154 178.459 c 0,3,4
 463.705 145.662 463.705 145.662 570.049 169.229 c 0,5,6
 652.93 186.875 652.93 186.875 675.607 261.162 c 0,7,8
 692.445 319.195 692.445 319.195 657.638 417.679 c 1,9,10
 600.786 549.52 600.786 549.52 453.676 642.602 c 1,11,12
 323.616 506.156 323.616 506.156 283.186 402.335 c 0,0,1
161.764 538.74 m 1,13,14
 186.106 589.815 186.106 589.815 324.037 749.965 c 1,15,-1
 266.365 783.359 l 1,16,-1
 347.972 899.882 l 1,17,18
 701.506 718.104 701.506 718.104 804.318 500.457 c 0,19,20
 951 189.941 951 189.941 720 53 c 0,21,22
 637.521 3.00434 637.521 3.00434 483.499 4.43359 c 0,23,24
 338.786 5.7959 338.786 5.7959 259.998 43.4404 c 0,25,26
 115.232 112.737 115.232 112.737 92.1924 240.333 c 0,27,28
 70.0898 362.738 70.0898 362.738 161.764 538.74 c 1,13,14
EndSplineSet
Substitution2: "'fina' Terminal Forms in Arabic lookup 9 subtable" uniFEEA
Substitution2: "'medi' Medial Forms in Arabic lookup 11 subtable" uniFEEC
Substitution2: "'init' Initial Forms in Arabic lookup 13 subtable" uniFEEB
EndChar

StartChar: uni0648
Encoding: 1608 1608 72
Width: 895
VWidth: 2186
GlyphClass: 2
Flags: W
AnchorPoint: "Anchor-10" 424.282 1037.17 basechar 0
AnchorPoint: "Anchor-7" 491.191 -518.443 basechar 0
LayerCount: 2
Fore
SplineSet
494.256 526.276 m 0,0,1
 429.146 533.861 429.146 533.861 386.537 484.773 c 0,2,3
 339.31 432.552 339.31 432.552 338.537 326.773 c 0,4,5
 337.664 240.115 337.664 240.115 403.779 199.921 c 128,-1,6
 469.894 159.727 469.894 159.727 624.188 184.568 c 2,7,-1
 632.686 185.937 l 1,8,-1
 633.347 197.632 l 2,9,10
 643.644 379.785 643.644 379.785 582.41 475.673 c 0,11,12
 553.929 520.273 553.929 520.273 494.256 526.276 c 0,0,1
781.391 10.4424 m 0,13,14
 744.133 -194.712 744.133 -194.712 576.537 -316 c 0,15,16
 403.518 -441.36 403.518 -441.36 119.063 -465.086 c 1,17,-1
 90.1973 -302.812 l 1,18,19
 516.887 -264.358 516.887 -264.358 608.318 0.491211 c 1,20,21
 566.06 3.98047 566.06 3.98047 489.119 2.79297 c 0,22,23
 327.806 0.0322266 327.806 0.0322266 248.438 107.31 c 0,24,25
 176.098 205.088 176.098 205.088 182.595 347.932 c 0,26,27
 188.729 487.891 188.729 487.891 277.221 600.592 c 0,28,29
 364.3 711.494 364.3 711.494 495.802 712.633 c 1,30,31
 680.332 712.633 680.332 712.633 759.537 524.773 c 0,32,33
 801.46 425.454 801.46 425.454 802.014 261.369 c 0,34,35
 802.041 128.579 802.041 128.579 781.391 10.4424 c 0,13,14
EndSplineSet
Substitution2: "'fina' Terminal Forms in Arabic lookup 9 subtable" uniFEEE
EndChar

StartChar: uni0649
Encoding: 1609 1609 73
Width: 1532
VWidth: 2186
GlyphClass: 2
Flags: W
AnchorPoint: "Anchor-10" 377.847 1033.66 basechar 0
AnchorPoint: "Anchor-7" 671.548 -498.146 basechar 0
LayerCount: 2
Fore
SplineSet
1279.84 -132.017 m 4,0,1
 1058.46 -323.024 1058.46 -323.024 673.843 -313.017 c 4,2,3
 282.302 -303.797 282.302 -303.797 154.843 -53.5 c 4,4,5
 73.2471 106.733 73.2471 106.733 91.292 292.504 c 4,6,7
 108.713 472.806 108.713 472.806 210.862 644.24 c 5,8,-1
 372.758 587.918 l 5,9,10
 289.351 459.975 289.351 459.975 269.427 308.318 c 4,11,12
 245.738 136.646 245.738 136.646 308.843 29.9834 c 4,13,14
 409.506 -140.058 409.506 -140.058 691.938 -142.091 c 4,15,16
 961.527 -144.054 961.527 -144.054 1118.56 -39.4023 c 4,17,18
 1261.64 55.9512 1261.64 55.9512 1263.54 139.199 c 4,19,20
 1263.61 144.658 1263.61 144.658 1262.77 149.659 c 4,21,22
 1251.39 210.548 1251.39 210.548 1123.13 195.519 c 5,23,24
 1077.95 191.933 1077.95 191.933 949.962 199.067 c 4,25,26
 833.238 205.574 833.238 205.574 776.735 281.54 c 4,27,28
 730.76 343.173 730.76 343.173 740.966 454.931 c 4,29,30
 749.979 554.016 749.979 554.016 816.65 642.824 c 4,31,32
 922.471 780.624 922.471 780.624 1084.96 792.067 c 4,33,34
 1294.96 807.067 1294.96 807.067 1445.9 665.688 c 5,35,-1
 1331.36 546.46 l 5,36,37
 1119.37 685.038 1119.37 685.038 979.7 572.87 c 4,38,39
 902.14 510.581 902.14 510.581 908.52 410.951 c 4,40,41
 910.735 379.207 910.735 379.207 933.962 367.995 c 4,42,43
 955.397 357.647 955.397 357.647 1006.62 360.79 c 4,44,45
 1122.09 367.874 1122.09 367.874 1234.96 356.995 c 4,46,47
 1351.95 345.363 1351.95 345.363 1410.68 251.065 c 4,48,49
 1432.54 216.278 1432.54 216.278 1422.76 135.97 c 4,50,51
 1404.81 -24.1865 1404.81 -24.1865 1279.84 -132.017 c 4,0,1
EndSplineSet
Substitution2: "'fina' Terminal Forms in Arabic lookup 9 subtable" uniFEF0
Substitution2: "'medi' Medial Forms in Arabic lookup 11 subtable" uniFBE9
Substitution2: "'init' Initial Forms in Arabic lookup 13 subtable" uniFBE8
EndChar

StartChar: uni064B
Encoding: 1611 1611 75
Width: 0
VWidth: 2186
GlyphClass: 4
Flags: W
AnchorPoint: "Anchor-10" 547.84 1041.5 mark 0
AnchorPoint: "Anchor-9" 547.84 1041.5 mark 0
AnchorPoint: "Anchor-1" 547.84 1576.5 basemark 0
AnchorPoint: "Anchor-1" 547.84 1041.5 mark 0
LayerCount: 2
Fore
SplineSet
269.4 977.41 m 5,0,-1
 269.4 1104.48 l 5,1,-1
 827.28 1332.79 l 5,2,-1
 827.28 1205.72 l 5,3,-1
 269.4 977.41 l 5,0,-1
269.4 1234.21 m 5,4,-1
 269.4 1361.28 l 5,5,-1
 827.28 1589.59 l 5,6,-1
 827.28 1462.52 l 5,7,-1
 269.4 1234.21 l 5,4,-1
EndSplineSet
EndChar

StartChar: uni064C
Encoding: 1612 1612 76
Width: 0
VWidth: 2186
GlyphClass: 4
Flags: W
AnchorPoint: "Anchor-10" 554.386 1155.44 mark 0
AnchorPoint: "Anchor-9" 554.386 1155.44 mark 0
AnchorPoint: "Anchor-1" 546.386 1810.94 basemark 0
AnchorPoint: "Anchor-1" 554.386 1155.44 mark 0
LayerCount: 2
Fore
SplineSet
567.219 1298.72 m 0,0,1
 608.391 1338.78 608.391 1338.78 631.845 1385.69 c 2,2,-1
 639.364 1400.73 l 1,3,-1
 622.913 1404.22 l 2,4,5
 589.558 1411.29 589.558 1411.29 566.532 1424.31 c 0,6,7
 457.736 1481.73 457.736 1481.73 457.736 1574.47 c 0,8,9
 457.736 1661.08 457.736 1661.08 526.365 1712.8 c 0,10,11
 552.86 1732.67 552.86 1732.67 615.937 1732.67 c 0,12,13
 688.759 1732.67 688.759 1732.67 727.738 1694.66 c 0,14,15
 782.696 1640.71 782.696 1640.71 782.696 1561.63 c 0,16,17
 782.696 1521.9 782.696 1521.9 770.46 1483.15 c 2,18,-1
 765.402 1467.14 l 1,19,-1
 782.175 1466.26 l 2,20,21
 802.247 1465.2 802.247 1465.2 817.806 1465.17 c 0,22,23
 831.205 1464.45 831.205 1464.45 845.826 1464.2 c 1,24,-1
 845.826 1372.44 l 1,25,26
 806.232 1372.69 806.232 1372.69 788.381 1374.48 c 2,27,-1
 723.27 1380.74 l 1,28,-1
 719.537 1371.99 l 2,29,30
 692.652 1308.91 692.652 1308.91 614.12 1227.24 c 1,31,32
 527.043 1139.14 527.043 1139.14 431.896 1139.14 c 0,33,34
 319.02 1139.14 319.02 1139.14 262.205 1295.39 c 0,35,36
 247.89 1334.51 247.89 1334.51 246.994 1442.7 c 1,37,-1
 317.299 1442.7 l 1,38,39
 318.143 1347.11 318.143 1347.11 331.307 1318.59 c 0,40,41
 372.26 1230.84 372.26 1230.84 431.896 1230.84 c 0,42,43
 497.076 1230.84 497.076 1230.84 567.219 1298.72 c 0,0,1
669.292 1482.64 m 1,44,-1
 680.316 1508.36 l 2,45,46
 690.996 1533.28 690.996 1533.28 690.996 1561.63 c 0,47,48
 690.996 1604.15 690.996 1604.15 668.07 1623.02 c 0,49,50
 646.28 1640.97 646.28 1640.97 620.217 1640.97 c 0,51,52
 591.787 1640.97 591.787 1640.97 575.875 1628.63 c 0,53,54
 551.576 1610.34 551.576 1610.34 551.576 1574.47 c 0,55,56
 551.576 1526.08 551.576 1526.08 607.898 1503.55 c 0,57,58
 629.803 1494.79 629.803 1494.79 658.123 1486.08 c 2,59,-1
 669.292 1482.64 l 1,44,-1
EndSplineSet
EndChar

StartChar: uni064D
Encoding: 1613 1613 77
Width: 0
VWidth: 2186
GlyphClass: 4
Flags: W
AnchorPoint: "Anchor-7" 531.84 75.5 mark 0
AnchorPoint: "Anchor-6" 531.84 75.5 mark 0
AnchorPoint: "Anchor-0" 547.84 -439.5 basemark 0
AnchorPoint: "Anchor-0" 531.84 75.5 mark 0
LayerCount: 2
Fore
SplineSet
270.96 -512.18 m 5,0,-1
 270.96 -385.109 l 5,1,-1
 828.84 -156.8 l 5,2,-1
 828.84 -283.87 l 5,3,-1
 270.96 -512.18 l 5,0,-1
270.96 -255.38 m 5,4,-1
 270.96 -128.31 l 5,5,-1
 828.84 100 l 5,6,-1
 828.84 -27.0703 l 5,7,-1
 270.96 -255.38 l 5,4,-1
EndSplineSet
EndChar

StartChar: uni064E
Encoding: 1614 1614 78
Width: 0
VWidth: 2186
GlyphClass: 4
Flags: W
AnchorPoint: "Anchor-10" 517.84 1279.5 mark 0
AnchorPoint: "Anchor-9" 517.84 1279.5 mark 0
AnchorPoint: "Anchor-1" 517.84 1600.5 basemark 0
AnchorPoint: "Anchor-1" 517.84 1279.5 mark 0
LayerCount: 2
Fore
SplineSet
237.4 1237.41 m 1,0,-1
 237.4 1364.48 l 1,1,-1
 795.28 1592.79 l 5,2,-1
 795.28 1465.72 l 1,3,-1
 237.4 1237.41 l 1,0,-1
EndSplineSet
EndChar

StartChar: uni064F
Encoding: 1615 1615 79
Width: 0
VWidth: 2186
GlyphClass: 4
Flags: W
AnchorPoint: "Anchor-10" 531.84 1205.5 mark 0
AnchorPoint: "Anchor-9" 531.84 1205.5 mark 0
AnchorPoint: "Anchor-1" 547.84 1825 basemark 0
AnchorPoint: "Anchor-1" 531.84 1205.5 mark 0
LayerCount: 2
Fore
SplineSet
594.529 1426.81 m 6,0,1
 586.598 1428.57 586.598 1428.57 567.734 1438.5 c 4,2,3
 459.19 1494.78 459.19 1494.78 459.19 1588.53 c 4,4,5
 459.19 1675.14 459.19 1675.14 527.819 1726.86 c 4,6,7
 554.314 1746.73 554.314 1746.73 617.39 1746.73 c 4,8,9
 690.212 1746.73 690.212 1746.73 729.192 1708.72 c 4,10,11
 784.15 1654.77 784.15 1654.77 784.15 1575.69 c 4,12,13
 784.15 1543.43 784.15 1543.43 769.757 1497.16 c 6,14,-1
 764.821 1481.3 l 5,15,-1
 781.407 1480.32 l 6,16,17
 799.81 1479.24 799.81 1479.24 819.259 1478.7 c 4,18,19
 832.229 1478.34 832.229 1478.34 847.28 1478.21 c 5,20,-1
 847.28 1386.53 l 5,21,22
 817.029 1386.85 817.029 1386.85 789.455 1388.57 c 4,23,24
 757.6 1390.7 757.6 1390.7 727.915 1393.88 c 6,25,-1
 720.312 1394.69 l 5,26,-1
 715.905 1388.44 l 6,27,28
 671.45 1325.37 671.45 1325.37 599.88 1281.81 c 4,29,30
 398.294 1157.85 398.294 1157.85 248.4 1152.36 c 5,31,-1
 248.4 1244.01 l 5,32,33
 408.671 1248.65 408.671 1248.65 554.781 1363.22 c 4,34,35
 580.142 1383.07 580.142 1383.07 601.135 1405.16 c 6,36,-1
 616.962 1421.83 l 5,37,-1
 594.529 1426.81 l 6,0,1
670.746 1496.7 m 5,38,-1
 681.77 1522.42 l 6,39,40
 692.45 1547.34 692.45 1547.34 692.45 1575.69 c 4,41,42
 692.45 1618.21 692.45 1618.21 669.524 1637.08 c 4,43,44
 647.734 1655.03 647.734 1655.03 621.67 1655.03 c 4,45,46
 593.241 1655.03 593.241 1655.03 577.329 1642.69 c 4,47,48
 553.03 1624.4 553.03 1624.4 553.03 1588.53 c 4,49,50
 553.03 1540.14 553.03 1540.14 609.352 1517.61 c 4,51,52
 631.256 1508.85 631.256 1508.85 659.577 1500.14 c 6,53,-1
 670.746 1496.7 l 5,38,-1
EndSplineSet
EndChar

StartChar: uni0650
Encoding: 1616 1616 80
Width: 0
VWidth: 2186
GlyphClass: 4
Flags: W
AnchorPoint: "Anchor-7" 467.84 -12.5 mark 0
AnchorPoint: "Anchor-6" 467.84 -12.5 mark 0
AnchorPoint: "Anchor-0" 556.84 -311.5 basemark 0
AnchorPoint: "Anchor-0" 467.84 -12.5 mark 0
LayerCount: 2
Fore
SplineSet
267.96 -356.836 m 1,0,-1
 267.96 -229.766 l 1,1,-1
 825.84 -1.45605 l 1,2,-1
 825.84 -128.526 l 1,3,-1
 267.96 -356.836 l 1,0,-1
EndSplineSet
EndChar

StartChar: uni0651
Encoding: 1617 1617 81
Width: 0
VWidth: 2186
GlyphClass: 4
Flags: W
AnchorPoint: "Anchor-10" 547.84 1316.5 mark 0
AnchorPoint: "Anchor-9" 547.84 1316.5 mark 0
AnchorPoint: "Anchor-1" 535.84 1818.5 basemark 0
AnchorPoint: "Anchor-1" 547.84 1316.5 mark 0
LayerCount: 2
Fore
SplineSet
507.838 1339.09 m 128,-1,1
 469.58 1294.39 469.58 1294.39 378.78 1294.39 c 0,2,3
 301.302 1294.39 301.302 1294.39 261.261 1355.91 c 0,4,5
 227 1408.31 227 1408.31 227 1486.07 c 0,6,7
 227 1527.41 227 1527.41 242.222 1626.56 c 1,8,-1
 320.73 1626.56 l 1,9,10
 310.14 1502.98 310.14 1502.98 310.14 1459.89 c 0,11,12
 310.14 1394.86 310.14 1394.86 398.84 1393.09 c 0,13,14
 497.128 1391.16 497.128 1391.16 506.266 1518.54 c 0,15,16
 508.184 1545.08 508.184 1545.08 508.4 1680.83 c 1,17,-1
 586.06 1680.83 l 1,18,19
 588.34 1645.85 588.34 1645.85 588.34 1597.53 c 0,20,21
 588.34 1452.09 588.34 1452.09 700.84 1452.09 c 4,22,23
 785.54 1452.09 785.54 1452.09 785.54 1599.06 c 4,24,25
 785.54 1708.64 785.54 1708.64 774.521 1770.1 c 5,26,-1
 857.705 1770.1 l 5,27,28
 868.68 1694.87 868.68 1694.87 868.68 1580.87 c 4,29,30
 868.68 1511.69 868.68 1511.69 841.188 1456.65 c 4,31,32
 796.118 1367.27 796.118 1367.27 722.84 1358.99 c 4,33,34
 657.525 1351.76 657.525 1351.76 616.258 1379.33 c 4,35,36
 556.63 1418.62 556.63 1418.62 554.84 1431.09 c 1,37,38
 546.096 1383.79 546.096 1383.79 507.838 1339.09 c 128,-1,1
EndSplineSet
EndChar

StartChar: uni0652
Encoding: 1618 1618 82
Width: 0
VWidth: 2186
GlyphClass: 4
Flags: W
AnchorPoint: "Anchor-10" 565.84 1128.5 mark 0
AnchorPoint: "Anchor-9" 565.84 1128.5 mark 0
AnchorPoint: "Anchor-1" 551.84 1702 basemark 0
AnchorPoint: "Anchor-1" 565.84 1128.5 mark 0
LayerCount: 2
Fore
SplineSet
674.569 1383.62 m 0,0,1
 674.569 1428.15 674.569 1428.15 643.439 1459.28 c 128,-1,2
 612.312 1490.41 612.312 1490.41 567.126 1490.41 c 0,3,4
 521.285 1490.41 521.285 1490.41 490.485 1459.61 c 128,-1,5
 459.685 1428.81 459.685 1428.81 459.685 1383.62 c 0,6,7
 459.685 1337.78 459.685 1337.78 490.485 1306.98 c 128,-1,8
 521.285 1276.18 521.285 1276.18 567.126 1276.18 c 0,9,10
 612.314 1276.18 612.314 1276.18 643.439 1307.31 c 128,-1,11
 674.569 1338.44 674.569 1338.44 674.569 1383.62 c 0,0,1
750.396 1383.73 m 128,-1,13
 750.396 1306.88 750.396 1306.88 697.316 1253.46 c 128,-1,14
 644.259 1200.07 644.259 1200.07 567.436 1200.07 c 128,-1,15
 490.613 1200.07 490.613 1200.07 437.557 1253.46 c 128,-1,16
 384.476 1306.88 384.476 1306.88 384.476 1383.73 c 128,-1,17
 384.476 1460.56 384.476 1460.56 437.537 1513.63 c 128,-1,18
 490.596 1566.69 490.596 1566.69 567.436 1566.69 c 128,-1,19
 644.276 1566.69 644.276 1566.69 697.335 1513.63 c 128,-1,12
 750.396 1460.56 750.396 1460.56 750.396 1383.73 c 128,-1,13
EndSplineSet
EndChar

StartChar: uni0653
Encoding: 1619 1619 83
Width: 0
VWidth: 2186
GlyphClass: 4
Flags: W
AnchorPoint: "Anchor-10" 442.84 1264.52 mark 0
AnchorPoint: "Anchor-9" 442.84 1264.52 mark 0
AnchorPoint: "Anchor-1" 442.84 1600.5 basemark 0
AnchorPoint: "Anchor-1" 442.84 1264.52 mark 0
LayerCount: 2
Fore
SplineSet
109.638 1365.05 m 5,0,1
 212.289 1479.87 212.289 1479.87 287.73 1453.49 c 4,2,3
 442.183 1397.9 442.183 1397.9 515.207 1405.97 c 4,4,5
 587.354 1413.79 587.354 1413.79 656.914 1479.92 c 5,6,-1
 704.93 1408.22 l 5,7,8
 617.699 1349.9 617.699 1349.9 559.504 1324.21 c 4,9,10
 491.236 1295.05 491.236 1295.05 293.235 1356.78 c 4,11,12
 239.766 1372.07 239.766 1372.07 165.102 1302.38 c 5,13,-1
 109.638 1365.05 l 5,0,1
EndSplineSet
EndChar

StartChar: uni0657
Encoding: 1623 1623 86
Width: 0
VWidth: 2186
GlyphClass: 4
Flags: W
AnchorPoint: "Anchor-10" 547.84 1279.5 mark 0
AnchorPoint: "Anchor-9" 547.84 1279.5 mark 0
AnchorPoint: "Anchor-1" 547.84 1975 basemark 0
AnchorPoint: "Anchor-1" 547.84 1279.5 mark 0
LayerCount: 2
Fore
SplineSet
501.148 1675.55 m 2,0,1
 509.083 1673.79 509.083 1673.79 527.945 1663.86 c 0,2,3
 636.49 1607.58 636.49 1607.58 636.49 1513.83 c 0,4,5
 636.49 1427.22 636.49 1427.22 567.86 1375.5 c 0,6,7
 541.366 1355.63 541.366 1355.63 478.29 1355.63 c 0,8,9
 405.468 1355.63 405.468 1355.63 366.487 1393.64 c 0,10,11
 311.53 1447.59 311.53 1447.59 311.53 1526.67 c 0,12,13
 311.53 1558.94 311.53 1558.94 325.923 1605.2 c 2,14,-1
 330.858 1621.06 l 1,15,-1
 314.272 1622.04 l 2,16,17
 295.871 1623.12 295.871 1623.12 276.421 1623.66 c 0,18,19
 263.452 1624.02 263.452 1624.02 248.4 1624.15 c 1,20,-1
 248.4 1715.83 l 1,21,22
 278.631 1715.51 278.631 1715.51 306.226 1713.79 c 0,23,24
 338.082 1711.66 338.082 1711.66 367.766 1708.48 c 2,25,-1
 375.369 1707.67 l 1,26,-1
 379.775 1713.92 l 2,27,28
 424.231 1776.99 424.231 1776.99 495.801 1820.55 c 0,29,30
 697.387 1944.51 697.387 1944.51 847.28 1950 c 1,31,-1
 847.28 1858.35 l 1,32,33
 687.009 1853.71 687.009 1853.71 540.898 1739.14 c 0,34,35
 515.54 1719.29 515.54 1719.29 494.545 1697.2 c 2,36,-1
 478.72 1680.54 l 1,37,-1
 501.148 1675.55 l 2,0,1
424.935 1605.66 m 1,38,-1
 413.911 1579.94 l 2,39,40
 403.23 1555.02 403.23 1555.02 403.23 1526.67 c 0,41,42
 403.23 1484.16 403.23 1484.16 426.155 1465.28 c 0,43,44
 447.946 1447.33 447.946 1447.33 474.01 1447.33 c 0,45,46
 502.438 1447.33 502.438 1447.33 518.352 1459.67 c 0,47,48
 542.65 1477.96 542.65 1477.96 542.65 1513.83 c 0,49,50
 542.65 1562.22 542.65 1562.22 486.328 1584.75 c 0,51,52
 464.442 1593.51 464.442 1593.51 436.104 1602.22 c 2,53,-1
 424.935 1605.66 l 1,38,-1
EndSplineSet
EndChar

StartChar: uni065A
Encoding: 1626 1626 87
Width: 1095
VWidth: 2186
GlyphClass: 4
Flags: W
AnchorPoint: "Anchor-10" 547.84 1279.5 mark 0
AnchorPoint: "Anchor-9" 547.84 1279.5 mark 0
AnchorPoint: "Anchor-1" 545.7 1761 basemark 0
AnchorPoint: "Anchor-1" 547.84 1279.5 mark 0
LayerCount: 2
Fore
SplineSet
476.032 1358.84 m 1,0,-1
 282.934 1681.66 l 1,1,-1
 401.783 1681.66 l 1,2,-1
 547.84 1462.57 l 1,3,-1
 693.896 1681.66 l 1,4,-1
 812.746 1681.66 l 1,5,-1
 619.646 1358.84 l 1,6,-1
 476.032 1358.84 l 1,0,-1
EndSplineSet
EndChar

StartChar: afii57392
Encoding: 1632 1632 88
Width: 1177
VWidth: 2186
GlyphClass: 2
Flags: W
LayerCount: 2
Fore
SplineSet
502.74 608.61 m 128,-1,1
 502.74 568.984 502.74 568.984 531.157 540.567 c 128,-1,2
 559.574 512.15 559.574 512.15 599.2 512.15 c 128,-1,3
 638.825 512.15 638.825 512.15 667.242 540.567 c 128,-1,4
 695.66 568.985 695.66 568.985 695.66 608.61 c 128,-1,5
 695.66 648.234 695.66 648.234 667.242 676.652 c 128,-1,6
 638.824 705.07 638.824 705.07 599.2 705.07 c 128,-1,7
 559.575 705.07 559.575 705.07 531.157 676.652 c 128,-1,0
 502.74 648.235 502.74 648.235 502.74 608.61 c 128,-1,1
352.267 605.562 m 128,-1,9
 352.267 709.377 352.267 709.377 425.556 783.094 c 128,-1,10
 498.81 856.775 498.81 856.775 601.947 856.775 c 128,-1,11
 705.089 856.775 705.089 856.775 778.339 783.094 c 128,-1,12
 851.626 709.375 851.626 709.375 851.626 605.562 c 128,-1,13
 851.626 501.743 851.626 501.743 778.339 428.031 c 128,-1,14
 705.083 354.351 705.083 354.351 601.947 354.351 c 128,-1,15
 498.809 354.351 498.809 354.351 425.556 428.031 c 128,-1,8
 352.267 501.745 352.267 501.745 352.267 605.562 c 128,-1,9
EndSplineSet
EndChar

StartChar: afii57393
Encoding: 1633 1633 89
Width: 1177
VWidth: 2186
GlyphClass: 2
Flags: W
LayerCount: 2
Fore
SplineSet
735.995 8.5 m 1,0,-1
 569.393 8.5 l 1,1,2
 568.82 454.753 568.82 454.753 529.627 687.823 c 0,3,4
 478.21 991.048 478.21 991.048 317.09 1373.5 c 1,5,-1
 498.492 1373.5 l 1,6,7
 625.204 1066.05 625.204 1066.05 702.028 683.021 c 0,8,9
 735.557 520.63 735.557 520.63 735.995 8.5 c 1,0,-1
EndSplineSet
EndChar

StartChar: afii57394
Encoding: 1634 1634 90
Width: 1177
VWidth: 2186
GlyphClass: 2
Flags: W
LayerCount: 2
Fore
SplineSet
438.942 917.841 m 2,0,1
 467.745 804.762 467.745 804.762 492.309 683.021 c 0,2,3
 525.838 520.605 525.838 520.605 526.275 8.5 c 1,4,-1
 359.672 8.5 l 1,5,6
 359.113 454.721 359.113 454.721 319.907 687.823 c 0,7,8
 268.488 991.061 268.488 991.061 107.37 1373.5 c 1,9,-1
 292.076 1373.5 l 1,10,11
 359.331 1215.6 359.331 1215.6 363.137 1208.98 c 0,12,13
 455.028 1039.66 455.028 1039.66 654.758 1039.66 c 1,14,15
 856.12 1037.08 856.12 1037.08 889.035 1189.01 c 0,16,17
 890.865 1197.46 890.865 1197.46 898.416 1373.5 c 1,18,-1
 1064.53 1373.5 l 1,19,20
 1049.69 1184.08 1049.69 1184.08 1024.48 1108.08 c 0,21,22
 947.197 873.061 947.197 873.061 660.19 873.061 c 0,23,24
 545.411 873.061 545.411 873.061 458.84 931.807 c 2,25,-1
 430.484 951.048 l 1,26,-1
 438.942 917.841 l 2,0,1
EndSplineSet
EndChar

StartChar: afii57395
Encoding: 1635 1635 91
Width: 1177
VWidth: 2186
GlyphClass: 2
Flags: W
LayerCount: 2
Fore
SplineSet
485.801 683.491 m 0,0,1
 519.36 484.229 519.36 484.229 519.854 8.5 c 1,2,-1
 353.252 8.5 l 1,3,4
 352.693 454.721 352.693 454.721 313.487 687.823 c 0,5,6
 262.068 991.061 262.068 991.061 100.95 1373.5 c 1,7,-1
 282.325 1373.5 l 1,8,9
 330.513 1255.7 330.513 1255.7 371.758 1127.85 c 0,10,11
 390.075 1071.07 390.075 1071.07 453.834 1061.21 c 0,12,13
 464.774 1059.52 464.774 1059.52 474.822 1058.89 c 0,14,15
 525.059 1055.75 525.059 1055.75 553.768 1080.52 c 128,-1,16
 582.479 1105.29 582.479 1105.29 585.432 1154.68 c 0,17,18
 591.453 1278.17 591.453 1278.17 591.844 1373.5 c 1,19,-1
 758.481 1373.5 l 1,20,21
 758.724 1249.29 758.724 1249.29 761.991 1191.37 c 128,-1,22
 765.258 1133.45 765.258 1133.45 775.19 1115.71 c 0,23,24
 802.411 1069.93 802.411 1069.93 859.782 1067.49 c 0,25,26
 932.602 1065.02 932.602 1065.02 951.824 1121.4 c 1,27,28
 965.941 1167.02 965.941 1167.02 966.357 1373.5 c 1,29,-1
 1111.95 1373.5 l 1,30,31
 1111.06 1066.07 1111.06 1066.07 1065 992.918 c 0,32,33
 1001.72 894.46 1001.72 894.46 862.42 894.46 c 0,34,35
 749.627 894.46 749.627 894.46 688.399 971.244 c 1,36,37
 638.843 911.373 638.843 911.373 576 895.917 c 0,38,39
 530.068 884.62 530.068 884.62 444.501 893.582 c 1,40,41
 454.176 869.291 454.176 869.291 485.801 683.491 c 0,0,1
EndSplineSet
EndChar

StartChar: afii57396
Encoding: 1636 1636 92
Width: 1177
VWidth: 2186
GlyphClass: 2
Flags: W
LayerCount: 2
Fore
SplineSet
760.839 1379.27 m 1,0,-1
 751.858 1235.39 l 1,1,2
 625.316 1248.51 625.316 1248.51 541.384 1210.87 c 1,3,4
 434.32 1161.44 434.32 1161.44 442.861 1052.49 c 0,5,6
 451.887 938.883 451.887 938.883 567.848 894.981 c 0,7,8
 606.676 880.282 606.676 880.282 747.77 866.245 c 1,9,-1
 747.77 714.173 l 1,10,11
 591.777 685.198 591.777 685.198 501.055 625.644 c 0,12,13
 383.336 547.415 383.336 547.415 366.936 405.734 c 0,14,15
 362.057 363.574 362.057 363.574 366.864 328.529 c 0,16,17
 395.427 120.352 395.427 120.352 751.844 169.516 c 0,18,19
 836.288 181.146 836.288 181.146 963.91 242.83 c 1,20,-1
 963.91 62.7109 l 1,21,22
 838.77 12.291 838.77 12.291 672.165 0.766602 c 0,23,24
 288.326 -24.8447 288.326 -24.8447 219.064 232.988 c 0,25,26
 200.25 303.028 200.25 303.028 200.25 404.24 c 0,27,28
 200.25 542.905 200.25 542.905 311.667 676.186 c 1,29,30
 378.57 754.41 378.57 754.41 468.871 779.038 c 2,31,-1
 508.735 789.91 l 1,32,-1
 469.827 803.821 l 2,33,34
 320.077 857.363 320.077 857.363 289.852 999.697 c 0,35,36
 239.282 1240 239.282 1240 444.796 1326.15 c 0,37,38
 567.115 1377.42 567.115 1377.42 760.839 1379.27 c 1,0,-1
EndSplineSet
EndChar

StartChar: afii57397
Encoding: 1637 1637 93
Width: 1177
VWidth: 2186
GlyphClass: 2
Flags: W
LayerCount: 2
Fore
SplineSet
560.961 1030.2 m 2,0,1
 439.416 954.464 439.416 954.464 351.691 782.513 c 0,2,3
 272.573 627.433 272.573 627.433 266.962 506.585 c 0,4,5
 259.034 335.862 259.034 335.862 352.789 258.761 c 0,6,7
 440.095 186.944 440.095 186.944 612.881 186.156 c 0,8,9
 805.098 185.278 805.098 185.278 870.539 297.249 c 0,10,11
 926.174 394.023 926.174 394.023 914.456 537.879 c 0,12,13
 902.715 689.812 902.715 689.812 775.581 858.488 c 0,14,15
 679.835 985.524 679.835 985.524 572.929 1031.13 c 2,16,-1
 566.707 1033.78 l 1,17,-1
 560.961 1030.2 l 2,0,1
354.796 1161.51 m 1,18,-1
 426.285 1294.95 l 5,19,20
 605.986 1251.47 605.986 1251.47 725.908 1171.21 c 0,21,22
 885.93 1061.21 885.93 1061.21 984.059 883.863 c 0,23,24
 1082.93 709.151 1082.93 709.151 1091.99 523.002 c 0,25,26
 1104.74 266.826 1104.74 266.826 999.698 155.195 c 0,27,28
 868.402 16.9102 868.402 16.9102 594.251 17.958 c 1,29,30
 316.067 17.958 316.067 17.958 188.858 155.138 c 0,31,32
 57.5371 297.696 57.5371 297.696 85.5146 523.002 c 0,33,34
 108.052 702.512 108.052 702.512 198.252 856.01 c 0,35,36
 306.796 1040.72 306.796 1040.72 426.796 1134.51 c 1,37,-1
 354.796 1161.51 l 1,18,-1
EndSplineSet
EndChar

StartChar: afii57398
Encoding: 1638 1638 94
Width: 1177
VWidth: 2186
GlyphClass: 2
Flags: W
LayerCount: 2
Fore
SplineSet
892.247 1370.04 m 1,0,1
 893.315 1062.93 893.315 1062.93 931.881 694.996 c 0,2,3
 962.357 403.903 962.357 403.903 1063.92 8.5 c 1,4,-1
 881.021 8.5 l 1,5,6
 792.369 349.892 792.369 349.892 759.804 697.565 c 0,7,8
 729.715 1017.72 729.715 1017.72 727.759 1158.54 c 6,9,-1
 727.521 1175.62 l 5,10,-1
 711.12 1170.84 l 6,11,12
 610.112 1141.4 610.112 1141.4 460.1 1141.4 c 4,13,14
 276.589 1141.4 276.589 1141.4 103.95 1191.62 c 5,15,-1
 103.95 1369.49 l 1,16,17
 289.405 1320 289.405 1320 460.1 1320 c 0,18,19
 677.834 1320 677.834 1320 892.247 1370.04 c 1,0,1
EndSplineSet
EndChar

StartChar: afii57399
Encoding: 1639 1639 95
Width: 1177
VWidth: 2186
GlyphClass: 2
Flags: W
LayerCount: 2
Fore
SplineSet
504.29 8.5 m 1,0,1
 484.477 268.8 484.477 268.8 381.562 598.569 c 0,2,3
 217.666 1124.25 217.666 1124.25 85.958 1373.5 c 1,4,-1
 265.854 1373.5 l 1,5,6
 427.62 1046.27 427.62 1046.27 522.5 714.179 c 0,7,8
 573.688 535.013 573.688 535.013 575.71 523.895 c 2,9,-1
 588.5 453.533 l 1,10,-1
 601.29 523.895 l 2,11,12
 603.312 535.014 603.312 535.014 654.5 714.179 c 0,13,14
 749.38 1046.27 749.38 1046.27 911.146 1373.5 c 1,15,-1
 1090.96 1373.5 l 1,16,17
 920.192 1054.99 920.192 1054.99 795.312 598.138 c 0,18,19
 706.193 273.075 706.193 273.075 673.29 8.5 c 1,20,-1
 504.29 8.5 l 1,0,1
EndSplineSet
EndChar

StartChar: afii57400
Encoding: 1640 1640 96
Width: 1177
VWidth: 2186
GlyphClass: 2
Flags: W
LayerCount: 2
Fore
SplineSet
504.29 1373.5 m 1,0,-1
 673.29 1373.5 l 1,1,2
 706.196 1108.92 706.196 1108.92 795.31 783.872 c 0,3,4
 920.195 326.998 920.195 326.998 1090.96 8.5 c 1,5,-1
 911.146 8.5 l 1,6,7
 749.394 335.684 749.394 335.684 654.5 667.821 c 0,8,9
 603.312 846.988 603.312 846.988 601.29 858.105 c 2,10,-1
 588.5 928.467 l 1,11,-1
 575.71 858.105 l 2,12,13
 573.688 846.986 573.688 846.986 522.5 667.821 c 0,14,15
 427.606 335.684 427.606 335.684 265.854 8.5 c 1,16,-1
 85.958 8.5 l 1,17,18
 217.658 257.723 217.658 257.723 381.561 783.427 c 0,19,20
 484.476 1113.2 484.476 1113.2 504.29 1373.5 c 1,0,-1
EndSplineSet
EndChar

StartChar: afii57401
Encoding: 1641 1641 97
Width: 1177
VWidth: 2186
GlyphClass: 2
Flags: W
LayerCount: 2
Fore
SplineSet
752.21 647.29 m 2,0,1
 554.404 647.29 554.404 647.29 470.195 666.02 c 0,2,3
 286.998 707.162 286.998 707.162 207.965 794.351 c 0,4,5
 120 891.393 120 891.393 120 1006.65 c 0,6,7
 120 1160.34 120 1160.34 215.917 1256.33 c 0,8,9
 346.684 1388.2 346.684 1388.2 499.69 1387.2 c 0,10,11
 682.945 1387.2 682.945 1387.2 767.727 1305.45 c 0,12,13
 887.868 1188.57 887.868 1188.57 901.885 1000.34 c 0,14,15
 912.598 855.68 912.598 855.68 931.904 694.794 c 0,16,17
 970.703 372.799 970.703 372.799 1063.93 8.5 c 1,18,-1
 881.426 8.5 l 1,19,20
 786.212 440.811 786.212 440.811 765.135 635.688 c 2,21,-1
 763.88 647.29 l 1,22,-1
 752.21 647.29 l 2,0,1
739.53 814.96 m 1,23,-1
 739.53 921.05 l 2,24,25
 739.53 1047.96 739.53 1047.96 692.94 1111.49 c 0,26,27
 616.674 1218.6 616.674 1218.6 505.04 1217.6 c 0,28,29
 415.265 1217.6 415.265 1217.6 350.496 1155.11 c 0,30,31
 286.6 1093.5 286.6 1093.5 286.6 1012 c 0,32,33
 286.6 944.443 286.6 944.443 356.163 885.514 c 4,34,35
 396.683 853.091 396.683 853.091 478.473 833.508 c 0,36,37
 555.938 814.96 555.938 814.96 726.53 814.96 c 2,38,-1
 739.53 814.96 l 1,23,-1
EndSplineSet
EndChar

StartChar: afii57381
Encoding: 1642 1642 98
Width: 1177
VWidth: 2186
GlyphClass: 2
Flags: W
LayerCount: 2
Fore
SplineSet
839.04 250 m 1,0,-1
 1005.64 250 l 1,1,-1
 1005.64 8.5 l 1,2,-1
 839.04 8.5 l 1,3,-1
 839.04 250 l 1,0,-1
170.29 1373.5 m 1,4,-1
 336.89 1373.5 l 1,5,-1
 336.89 1132 l 1,6,-1
 170.29 1132 l 1,7,-1
 170.29 1373.5 l 1,4,-1
871.394 1373.5 m 1,8,-1
 1013.31 1373.5 l 1,9,-1
 305.606 8.5 l 1,10,-1
 163.693 8.5 l 1,11,-1
 871.394 1373.5 l 1,8,-1
EndSplineSet
EndChar

StartChar: uni066B
Encoding: 1643 1643 99
Width: 711
VWidth: 2186
GlyphClass: 2
Flags: W
LayerCount: 2
Fore
SplineSet
443.218 502.139 m 1,0,-1
 568.799 501.203 l 1,1,2
 342.799 113.203 342.799 113.203 130 -230.265 c 1,3,-1
 1.59766 -228.502 l 1,4,5
 94.7988 -78.7969 94.7988 -78.7969 443.218 502.139 c 1,0,-1
EndSplineSet
EndChar

StartChar: uni066C
Encoding: 1644 1644 100
Width: 696
VWidth: 2186
GlyphClass: 2
Flags: W
LayerCount: 2
Fore
SplineSet
291.2 1580.01 m 1,0,-1
 490.97 1580.01 l 1,1,-1
 490.97 1433.52 l 1,2,-1
 320.557 1102.04 l 1,3,-1
 207.225 1102.04 l 1,4,-1
 291.2 1428.73 l 1,5,-1
 291.2 1580.01 l 1,0,-1
EndSplineSet
EndChar

StartChar: afii63167
Encoding: 1645 1645 101
Width: 1194
VWidth: 2186
GlyphClass: 2
Flags: W
LayerCount: 2
Fore
SplineSet
132.901 794.63 m 1,0,-1
 486.633 794.63 l 1,1,-1
 597.061 1130.84 l 1,2,-1
 707.487 794.63 l 1,3,-1
 1061.22 794.63 l 1,4,-1
 775.453 585.725 l 1,5,-1
 884.797 249.809 l 1,6,-1
 597.061 457.729 l 1,7,-1
 309.323 249.809 l 1,8,-1
 418.667 585.725 l 1,9,-1
 132.901 794.63 l 1,0,-1
EndSplineSet
EndChar

StartChar: uni066E
Encoding: 1646 1646 102
Width: 1727
VWidth: 2186
GlyphClass: 2
Flags: W
AnchorPoint: "Anchor-10" 763.22 1056.5 basechar 0
AnchorPoint: "Anchor-7" 763.22 -174 basechar 0
LayerCount: 2
Fore
SplineSet
1635 448 m 4,0,1
 1619.69 132.796 1619.69 132.796 1281.62 36.8076 c 4,2,3
 1147.82 -0.199219 1147.82 -0.199219 891 0 c 4,4,5
 583.919 1.41513 583.919 1.41513 439.624 42.8076 c 4,6,7
 121.7 135.484 121.7 135.484 91.3975 454.768 c 4,8,9
 80.9817 566.156 80.9817 566.156 124.267 713.644 c 5,10,-1
 288.267 677.644 l 5,11,12
 260.227 525.795 260.227 525.795 264.518 480.686 c 4,13,14
 283.224 259.193 283.224 259.193 526.267 206.608 c 4,15,16
 648.807 180.078 648.807 180.078 805.099 180.017 c 4,17,18
 855.429 179.992 855.429 179.992 893 180.066 c 4,19,20
 983.587 180.245 983.587 180.245 1000 181 c 4,21,22
 1154.77 186.527 1154.77 186.527 1200.45 197.561 c 4,23,24
 1449.5 257.719 1449.5 257.719 1462.06 473.626 c 4,25,26
 1465.38 532.808 1465.38 532.808 1439 672 c 5,27,-1
 1599.84 705.795 l 5,28,29
 1641.47 578.705 1641.47 578.705 1635 448 c 4,0,1
EndSplineSet
Substitution2: "'init' Initial Forms in Arabic lookup 13 subtable" uni066E.init
Substitution2: "'medi' Medial Forms in Arabic lookup 11 subtable" uni066E.medi
Substitution2: "'fina' Terminal Forms in Arabic lookup 9 subtable" uni066E.fina
EndChar

StartChar: uni066F
Encoding: 1647 1647 103
Width: 1450
VWidth: 2186
GlyphClass: 2
Flags: W
AnchorPoint: "Anchor-10" 315 1050.5 basechar 0
AnchorPoint: "Anchor-7" 472 -535 basechar 0
LayerCount: 2
Fore
SplineSet
1069.9 703.207 m 0,0,1
 1013.19 709.498 1013.19 709.498 968.01 645.861 c 0,2,3
 913.55 571.302 913.55 571.302 918.51 485.842 c 0,4,5
 923 413.276 923 413.276 978.01 387.861 c 0,6,7
 1051.89 355.109 1051.89 355.109 1205.5 380.312 c 1,8,9
 1213.94 524.096 1213.94 524.096 1157.38 628.602 c 0,10,11
 1120.92 697.05 1120.92 697.05 1069.9 703.207 c 0,0,1
1191.93 216.228 m 1,12,13
 1055.66 204.622 l 1,14,15
 890.09 202.3 890.09 202.3 811.896 309.207 c 0,16,17
 705.484 456.389 705.484 456.389 808.013 679.861 c 0,18,19
 937.75 964.77 937.75 964.77 1166.01 869.861 c 0,20,21
 1246.79 836.273 1246.79 836.273 1310.95 704.262 c 0,22,23
 1362.48 598.245 1362.48 598.245 1368.59 440.684 c 24,24,25
 1373.33 330.805 1373.33 330.805 1365.17 198.981 c 0,26,27
 1348.97 -61.2976 1348.97 -61.2976 1213.58 -207.951 c 0,28,29
 1055.93 -379.7 1055.93 -379.7 702.818 -376.341 c 4,30,31
 439.144 -373.845 439.144 -373.845 270.297 -242.884 c 0,32,33
 85.5068 -98.9922 85.5068 -98.9922 90.166 174.895 c 0,34,35
 94.6768 415.367 94.6768 415.367 185.122 615.521 c 1,36,-1
 354.826 581.21 l 1,37,38
 238.268 307.103 238.268 307.103 267.882 115.596 c 0,39,40
 316.998 -204.683 316.998 -204.683 691.88 -207.462 c 0,41,42
 962.771 -209.429 962.771 -209.429 1094.69 -77.4492 c 0,43,44
 1192.64 19.5508 1192.64 19.5508 1191.93 216.228 c 1,12,13
EndSplineSet
Substitution2: "'init' Initial Forms in Arabic lookup 13 subtable" uni066F.init
Substitution2: "'medi' Medial Forms in Arabic lookup 11 subtable" uni066F.medi
Substitution2: "'fina' Terminal Forms in Arabic lookup 9 subtable" uni066F.fina
EndChar

StartChar: uni0670
Encoding: 1648 1648 104
Width: 0
VWidth: 2186
GlyphClass: 4
Flags: W
AnchorPoint: "Anchor-10" 547.84 1279.5 mark 0
AnchorPoint: "Anchor-9" 547.84 1279.5 mark 0
AnchorPoint: "Anchor-1" 547.84 1975 basemark 0
AnchorPoint: "Anchor-1" 547.84 1279.5 mark 0
LayerCount: 2
Fore
SplineSet
501.99 1327.81 m 1,0,-1
 501.99 1926.69 l 1,1,-1
 593.69 1926.69 l 1,2,-1
 593.69 1327.81 l 1,3,-1
 501.99 1327.81 l 1,0,-1
EndSplineSet
EndChar

StartChar: uni0674
Encoding: 1652 1652 105
Width: 639
VWidth: 2186
GlyphClass: 2
Flags: W
LayerCount: 2
Fore
SplineSet
143.54 1515.26 m 1,0,-1
 254.306 1540.82 l 1,1,-1
 219.379 1556.7 l 2,2,3
 176.794 1576.05 176.794 1576.05 161.706 1610 c 0,4,5
 145.68 1647.06 145.68 1647.06 145.68 1692.52 c 0,6,7
 145.68 1788.83 145.68 1788.83 200.568 1830.98 c 0,8,9
 259.108 1876.4 259.108 1876.4 353.1 1876.4 c 0,10,11
 411.842 1876.4 411.842 1876.4 462.08 1846.81 c 1,12,-1
 462.08 1769.8 l 1,13,14
 412.732 1795.4 412.732 1795.4 353.1 1795.4 c 0,15,16
 276.875 1795.4 276.875 1795.4 254.747 1771.97 c 0,17,18
 220.26 1733.92 220.26 1733.92 220.26 1701.08 c 0,19,20
 220.26 1608.9 220.26 1608.9 330.161 1577.33 c 0,21,22
 366.368 1566.36 366.368 1566.36 484.55 1593.69 c 1,23,-1
 484.55 1511.4 l 1,24,-1
 143.54 1434.84 l 1,25,-1
 143.54 1515.26 l 1,0,-1
EndSplineSet
EndChar

StartChar: uni06A1
Encoding: 1697 1697 109
Width: 1739
VWidth: 2186
GlyphClass: 2
Flags: W
AnchorPoint: "Anchor-10" 515.55 1230.28 basechar 0
AnchorPoint: "Anchor-7" 622.55 -147.88 basechar 0
LayerCount: 2
Fore
SplineSet
1375.28 892.867 m 0,0,1
 1301.53 899.159 1301.53 899.159 1255.51 836.094 c 0,2,3
 1201.04 761.534 1201.04 761.534 1206 676.074 c 0,4,5
 1210.5 603.508 1210.5 603.508 1265.51 578.094 c 0,6,7
 1336.41 545.342 1336.41 545.342 1482 570.546 c 1,8,9
 1492.43 728.094 1492.43 728.094 1444.88 818.834 c 0,10,11
 1406.94 890.076 1406.94 890.076 1375.28 892.867 c 0,0,1
1455.43 407.46 m 1,12,13
 1343.15 394.854 l 1,14,15
 1212 392.862 1212 392.862 1138.35 466.854 c 0,16,17
 985.34 620.587 985.34 620.587 1095.51 870.094 c 0,18,19
 1221.3 1155.32 1221.3 1155.32 1453.51 1060.09 c 0,20,21
 1537.17 1026.16 1537.17 1026.16 1598.45 894.494 c 0,22,23
 1657.79 766.986 1657.79 766.986 1654.09 630.916 c 24,24,25
 1647.62 372.633 1647.62 372.633 1590.67 261.784 c 0,26,27
 1511.09 105.412 1511.09 105.412 1314.58 46.7061 c 0,28,29
 1149.54 -2.84375 1149.54 -2.84375 872.406 -1.30811 c 24,30,31
 579.013 0.254031 579.013 0.254031 435.865 39.4199 c 4,32,33
 127.711 124.822 127.711 124.822 92 457 c 0,34,35
 79.4531 575.45 79.4531 575.45 128 709 c 1,36,-1
 290.912 676.955 l 1,37,38
 257.513 544.338 257.513 544.338 265 478 c 0,39,40
 290.801 257.989 290.801 257.989 525 203 c 0,41,42
 574.433 191.393 574.433 191.393 803.912 179.813 c 24,43,44
 1070.68 166.351 1070.68 166.351 1281.31 227.975 c 0,45,46
 1438.06 273.598 1438.06 273.598 1455.43 407.46 c 1,12,13
EndSplineSet
Substitution2: "'init' Initial Forms in Arabic lookup 13 subtable" uni06A1.init
Substitution2: "'medi' Medial Forms in Arabic lookup 11 subtable" uni06A1.medi
Substitution2: "'fina' Terminal Forms in Arabic lookup 9 subtable" uni06A1.fina
EndChar

StartChar: uni06A9
Encoding: 1705 1705 110
Width: 1715
VWidth: 2186
GlyphClass: 2
Flags: W
AnchorPoint: "Anchor-10" 387 1207.34 basechar 0
AnchorPoint: "Anchor-7" 798 -190.68 basechar 0
LayerCount: 2
Fore
SplineSet
803.912 179.813 m 1,0,-1
 1074.77 179.004 l 2,1,2
 1354.67 178.168 1354.67 178.168 1377.35 323.596 c 0,3,4
 1397.17 450.549 1397.17 450.549 1273.51 546.547 c 2,5,-1
 925.26 816.896 l 2,6,7
 847.397 877.342 847.397 877.342 834.92 949.13 c 0,8,9
 811.096 1086.18 811.096 1086.18 941.939 1147.45 c 2,10,-1
 1645.65 1476.96 l 1,11,-1
 1645.65 1300.28 l 1,12,13
 1318.21 1143.14 1318.21 1143.14 990.77 986 c 1,14,15
 1407.91 657.823 1407.91 657.823 1407.91 657.822 c 0,16,17
 1569.97 530.65 1569.97 530.65 1532.33 281.203 c 0,18,19
 1510.92 139.311 1510.92 139.311 1408.89 71.999 c 0,20,21
 1299.75 0 1299.75 0 1116.1 0 c 2,22,-1
 776 0 l 1,23,24
 563.131 3.02253 563.131 3.02253 425.352 41.4805 c 0,25,26
 129.853 126.346 129.853 126.346 92 457 c 0,27,28
 78.7582 575.45 78.7582 575.45 125 709 c 1,29,-1
 282.912 676.955 l 1,30,31
 255.588 525.852 255.588 525.852 263 478 c 4,32,33
 298.458 257.596 298.458 257.596 525 203 c 0,34,35
 604.22 183.908 604.22 183.908 803.912 179.813 c 1,0,-1
EndSplineSet
Substitution2: "'init' Initial Forms in Arabic lookup 13 subtable" uniFB90
Substitution2: "'medi' Medial Forms in Arabic lookup 11 subtable" uniFB91
Substitution2: "'fina' Terminal Forms in Arabic lookup 9 subtable" uniFB8F
EndChar

StartChar: afii57514
Encoding: 1722 1722 112
Width: 1432
VWidth: 2186
GlyphClass: 2
Flags: W
AnchorPoint: "Anchor-10" 643.11 798 basechar 0
AnchorPoint: "Anchor-7" 665.58 -524.02 basechar 0
LayerCount: 2
Fore
SplineSet
1340.54 179.725 m 4,0,1
 1247.3 -318.871 1247.3 -318.871 709.526 -311.411 c 5,2,3
 141.98 -306.894 141.98 -306.894 91.7988 184.801 c 4,4,5
 67.418 423.007 67.418 423.007 182.943 644.253 c 5,6,-1
 342.557 596.132 l 5,7,8
 236.347 334.1 236.347 334.1 262.724 183.41 c 4,9,10
 318.605 -137.721 318.605 -137.721 702.404 -140.521 c 5,11,12
 1158.72 -156.916 1158.72 -156.916 1178.11 323.58 c 4,13,14
 1182.77 441.111 1182.77 441.111 1104.19 685.172 c 5,15,-1
 1267.11 727.597 l 5,16,17
 1382.19 403.666 1382.19 403.666 1340.54 179.725 c 4,0,1
EndSplineSet
Substitution2: "'init' Initial Forms in Arabic lookup 13 subtable" uni06BA.init
Substitution2: "'medi' Medial Forms in Arabic lookup 11 subtable" uni06BA.medi
Substitution2: "'fina' Terminal Forms in Arabic lookup 9 subtable" uniFB9F
EndChar

StartChar: uni06F4
Encoding: 1780 1780 119
Width: 1177
VWidth: 2186
GlyphClass: 2
Flags: W
LayerCount: 2
Fore
SplineSet
378.713 1119.61 m 6,0,1
 390.591 1082.79 l 1,2,-1
 403.356 1119.31 l 2,3,4
 475.023 1324.32 475.023 1324.32 617.281 1365.78 c 0,5,6
 766.506 1409.14 766.506 1409.14 962.84 1367.47 c 1,7,-1
 962.84 1227.06 l 1,8,9
 924.694 1239.12 924.694 1239.12 833.56 1250.67 c 0,10,11
 671.896 1271.16 671.896 1271.16 589.383 1186.95 c 0,12,13
 482.345 1078.42 482.345 1078.42 549.067 968.815 c 0,14,15
 597.934 890.097 597.934 890.097 791.249 889.86 c 0,16,17
 845.619 889.811 845.619 889.811 1020.32 915.636 c 1,18,-1
 1022.58 769.774 l 1,19,20
 824.389 743.59 824.389 743.59 761.84 743.59 c 0,21,22
 590.742 743.59 590.742 743.59 487.136 813.076 c 2,23,-1
 452.58 836.254 l 1,24,-1
 467.795 797.526 l 2,25,26
 479.035 768.916 479.035 768.916 492.192 683.668 c 0,27,28
 530.048 438.386 530.048 438.386 526.4 8.5 c 1,29,-1
 359.672 8.5 l 1,30,31
 359.113 454.721 359.113 454.721 319.91 687.807 c 0,32,33
 268.488 991.061 268.488 991.061 107.37 1373.5 c 1,34,-1
 291.455 1373.5 l 1,35,36
 357.88 1184.19 357.88 1184.19 378.713 1119.61 c 6,0,1
EndSplineSet
EndChar

StartChar: uni06F5
Encoding: 1781 1781 120
Width: 1177
VWidth: 2186
GlyphClass: 2
Flags: W
LayerCount: 2
Fore
SplineSet
655.009 312.555 m 2,0,1
 687.107 191 687.107 191 806.03 194.388 c 0,2,3
 1019.49 199.483 1019.49 199.483 923.336 474.313 c 0,4,5
 804.905 810.635 804.905 810.635 588.176 1079.9 c 1,6,7
 366.586 783.527 366.586 783.527 264.815 469.416 c 0,8,9
 239.372 390.888 239.372 390.888 239.327 335.012 c 0,10,11
 239.216 197.945 239.216 197.945 395.245 197.945 c 0,12,13
 496.877 197.945 496.877 197.945 537.245 312.934 c 2,14,-1
 538.419 316.278 l 1,15,-1
 654.026 316.278 l 1,16,-1
 655.009 312.555 l 2,0,1
367.371 8.3643 m 0,17,18
 89.6541 8.36403 89.6541 8.36403 75.007 283.734 c 0,19,20
 55.7766 645.273 55.7766 645.273 544.308 1278.5 c 0,21,22
 591.275 1339.38 591.275 1339.38 640.92 1278.5 c 0,23,24
 1139.76 666.794 1139.76 666.794 1101.98 287.506 c 0,25,26
 1074.8 13.6842 1074.8 13.6842 819.801 8.86533 c 0,27,28
 646.364 5.34656 646.364 5.34656 591.451 157.804 c 1,29,30
 537.529 8.36608 537.529 8.36608 367.371 8.3643 c 0,17,18
EndSplineSet
EndChar

StartChar: uni06F6
Encoding: 1782 1782 121
Width: 1177
VWidth: 2186
GlyphClass: 2
Flags: W
LayerCount: 2
Fore
SplineSet
239.351 8.5 m 1,0,1
 307.948 269.312 307.948 269.312 421.965 455.229 c 0,2,3
 493.641 572.233 493.641 572.233 599.059 661.835 c 2,4,-1
 626.006 684.74 l 1,5,-1
 590.64 684.74 l 2,6,7
 511.758 684.74 511.758 684.74 466.163 721.415 c 0,8,9
 327.58 834.146 327.58 834.146 327.58 989.53 c 0,10,11
 327.58 1170.28 327.58 1170.28 428.592 1270.27 c 0,12,13
 544.622 1385.27 544.622 1385.27 689.08 1385.27 c 0,14,15
 809.176 1385.27 809.176 1385.27 898.64 1355.8 c 1,16,-1
 898.64 1194.44 l 1,17,18
 809.326 1240.07 809.326 1240.07 695.5 1240.07 c 0,19,20
 623.86 1240.07 623.86 1240.07 568.678 1186.04 c 0,21,22
 494.18 1112.67 494.18 1112.67 494.18 1002.37 c 0,23,24
 494.18 914.305 494.18 914.305 557.168 855.899 c 0,25,26
 607.996 808.54 607.996 808.54 723.32 808.54 c 0,27,28
 862.811 808.54 862.811 808.54 962.84 846.188 c 1,29,-1
 962.84 682.217 l 1,30,31
 724.667 602.469 724.667 602.469 604.762 439.74 c 0,32,33
 463.097 246.283 463.097 246.283 404.908 8.5 c 1,34,-1
 239.351 8.5 l 1,0,1
EndSplineSet
EndChar

StartChar: uniFB8F
Encoding: 64399 64399 136
Width: 1795
VWidth: 2186
GlyphClass: 2
Flags: W
AnchorPoint: "Anchor-10" 433 1179.5 basechar 0
AnchorPoint: "Anchor-7" 798 -165 basechar 0
LayerCount: 2
Fore
SplineSet
776.9 0 m 9,0,1
 530.547 6.73097 530.547 6.73097 425.036 40.0039 c 4,2,3
 129.663 133.15 129.663 133.15 92 457 c 0,4,5
 78.0063 575.45 78.0063 575.45 122 709 c 1,6,-1
 284.912 676.955 l 1,7,8
 258.476 524.727 258.476 524.727 264 478 c 0,9,10
 289.11 258.426 289.11 258.426 525 203 c 0,11,12
 580.376 189.989 580.376 189.989 776.9 178.98 c 17,13,-1
 1075.67 179.004 l 2,14,15
 1352.65 179.026 1352.65 179.026 1375.25 323.598 c 0,16,17
 1395.36 452.461 1395.36 452.461 1274.41 546.547 c 2,18,-1
 910.158 829.896 l 2,19,20
 849.374 877.179 849.374 877.179 835.82 962.14 c 0,21,22
 813.575 1101.58 813.575 1101.58 939.84 1160.45 c 2,23,-1
 1646.55 1489.96 l 1,24,-1
 1646.55 1310.28 l 1,25,26
 1319.11 1154.64 1319.11 1154.64 991.67 999 c 1,27,28
 1224.5 827.844 1224.5 827.844 1408.81 657.823 c 0,29,30
 1557.69 520.489 1557.69 520.489 1533.22 281.204 c 1,31,32
 1597.85 179.38 1597.85 179.38 1686.42 179.38 c 2,33,-1
 1805.45 179.38 l 1,34,-1
 1805.45 0.5 l 1,35,-1
 1676.71 0.5 l 2,36,37
 1597.43 0.5 1597.43 0.5 1537.3 35 c 0,38,39
 1533.57 37.1406 1533.57 37.1406 1447.3 102 c 1,40,41
 1428.54 89 1428.54 89 1409.79 76 c 0,42,43
 1300.13 0 1300.13 0 1117 0 c 2,44,-1
 776.9 0 l 9,0,1
EndSplineSet
EndChar

StartChar: uniFB9F
Encoding: 64415 64415 144
Width: 1570
VWidth: 2186
GlyphClass: 2
Flags: W
AnchorPoint: "Anchor-10" 618.9 691 basechar 0
AnchorPoint: "Anchor-7" 584.88 -588.5 basechar 0
LayerCount: 2
Fore
SplineSet
1276.7 573.153 m 1,0,1
 1296.28 466.55 1296.28 466.55 1321.52 354.479 c 0,2,3
 1361.51 179.38 1361.51 179.38 1511.28 179.38 c 2,4,-1
 1578.53 179.38 l 1,5,-1
 1578.53 0.5 l 1,6,-1
 1452.43 0.5 l 2,7,8
 1388.86 0.5 1388.86 0.5 1331.29 81.7598 c 1,9,10
 1286.72 -176.987 1286.72 -176.987 1128.03 -308.746 c 0,11,12
 971.834 -438.483 971.834 -438.483 671.061 -423.3 c 0,13,14
 337.691 -406.73 337.691 -406.73 185.694 -198.977 c 0,15,16
 64.5154 -34.3555 64.5154 -34.3555 98.8555 285.508 c 0,17,18
 108.957 378.574 108.957 378.574 163.478 511.053 c 1,19,-1
 326.272 476.082 l 1,20,21
 268.438 308.829 268.438 308.829 262.495 188.646 c 0,22,23
 261.66 173.823 261.66 173.823 261.37 159.46 c 0,24,25
 257.642 -37.7391 257.642 -37.7391 352 -127.387 c 0,26,27
 479.249 -246.958 479.249 -246.958 679.314 -255.57 c 0,28,29
 927.762 -266.267 927.762 -266.267 1038.11 -154.858 c 0,30,31
 1153.96 -35.832 1153.96 -35.832 1161.54 202.696 c 0,32,33
 1165.12 323.534 1165.12 323.534 1110.5 539.912 c 1,34,-1
 1276.7 573.153 l 1,0,1
EndSplineSet
EndChar

StartChar: uniFBE8
Encoding: 64488 64488 147
Width: 558
VWidth: 2186
GlyphClass: 2
Flags: W
AnchorPoint: "Anchor-10" 261.93 1049.5 basechar 0
AnchorPoint: "Anchor-7" 293.93 -111.5 basechar 0
LayerCount: 2
Fore
SplineSet
300.876 91.6904 m 0,0,1
 193.776 0 193.776 0 4.90039 0 c 2,2,-1
 -87.4004 0 l 1,3,-1
 -87.4004 178.98 l 1,4,-1
 13.0498 178.98 l 2,5,6
 35.9876 178.98 35.9876 178.98 50.3252 180.837 c 0,7,8
 166.521 194.058 166.521 194.058 213.006 255.599 c 0,9,10
 281.916 346.828 281.916 346.828 267.006 520 c 0,11,12
 257.344 630.412 257.344 630.412 234.11 722.01 c 1,13,-1
 390.017 755.01 l 1,14,15
 422.712 660.678 422.712 660.678 429.006 523.599 c 0,16,17
 444.169 214.366 444.169 214.366 300.876 91.6904 c 0,0,1
EndSplineSet
EndChar

StartChar: uniFBE9
Encoding: 64489 64489 148
Width: 657
VWidth: 2186
GlyphClass: 2
Flags: W
AnchorPoint: "Anchor-10" 281.93 969.5 basechar 0
AnchorPoint: "Anchor-7" 263.93 -115.5 basechar 0
LayerCount: 2
Fore
SplineSet
310.244 96.1914 m 2,0,1
 224.102 -5.37713e-06 224.102 -5.37713e-06 74.9004 0 c 2,2,-1
 -32.4004 0 l 1,3,-1
 -32.4004 178.98 l 1,4,-1
 28.0498 178.98 l 2,5,6
 139.365 178.98 139.365 178.98 184.18 223.494 c 0,7,8
 231.221 270.22 231.221 270.22 239.49 348.31 c 2,9,-1
 262.49 565.5 l 1,10,-1
 379.37 565.5 l 1,11,-1
 402.37 348.31 l 2,12,13
 410.875 268 410.875 268 461.68 223.494 c 128,-1,14
 512.494 178.98 512.494 178.98 623.811 178.98 c 2,15,-1
 697.66 178.98 l 1,16,-1
 697.66 0 l 1,17,-1
 564.96 0 l 2,18,19
 417.985 1.76184e-06 417.985 1.76184e-06 329.504 96.3145 c 2,20,-1
 319.807 106.87 l 1,21,-1
 310.244 96.1914 l 2,0,1
EndSplineSet
EndChar

StartChar: uniFE73
Encoding: 65139 65139 156
Width: 573
VWidth: 2186
GlyphClass: 2
Flags: W
AnchorPoint: "Anchor-10" 210.79 1279.5 basechar 0
AnchorPoint: "Anchor-7" 210.79 -111.5 basechar 0
LayerCount: 2
Fore
SplineSet
296.23 350.74 m 2,0,1
 296.23 286.506 296.23 286.506 352.468 230.268 c 0,2,3
 403.354 179.38 403.354 179.38 514.67 179.38 c 2,4,-1
 581.92 179.38 l 1,5,-1
 581.92 8.5 l 1,6,-1
 455.82 8.5 l 2,7,8
 309.266 8.5 309.266 8.5 214.633 103.133 c 0,9,10
 125.35 192.415 125.35 192.415 125.35 337.9 c 2,11,-1
 125.35 370.91 l 1,12,-1
 296.23 370.91 l 1,13,-1
 296.23 350.74 l 2,0,1
EndSplineSet
EndChar

StartChar: uniFE8E
Encoding: 65166 65166 182
Width: 634
VWidth: 2186
GlyphClass: 2
Flags: W
AnchorPoint: "Anchor-10" 280.95 1505 basechar 0
AnchorPoint: "Anchor-7" 262.95 -111.5 basechar 0
LayerCount: 2
Fore
SplineSet
193.51 408.94 m 2,0,-1
 193.51 1400.03 l 1,1,-1
 360.39 1400.03 l 1,2,-1
 360.39 421.78 l 2,3,4
 360.39 327.759 360.39 327.759 388.795 274.396 c 0,5,6
 439.585 178.98 439.585 178.98 578.83 178.98 c 2,7,-1
 646.08 178.98 l 1,8,-1
 646.08 0 l 1,9,-1
 558.98 0 l 2,10,11
 337.283 1.43562e-05 337.283 1.43562e-05 249 166 c 0,12,13
 193.51 276.795 193.51 276.795 193.51 408.94 c 2,0,-1
EndSplineSet
EndChar

StartChar: uniFEA2
Encoding: 65186 65186 202
Width: 1367
VWidth: 2186
GlyphClass: 2
Flags: W
AnchorPoint: "Anchor-10" 602.5 1065.5 basechar 0
AnchorPoint: "Anchor-7" 562.84 -638.64 basechar 0
LayerCount: 2
Fore
SplineSet
1300.13 179.38 m 2,0,-1
 1380.94 179.38 l 1,1,-1
 1380.94 0.5 l 1,2,-1
 1290.51 0.5 l 2,3,4
 1057.26 0.5 1057.26 0.5 879.965 280.531 c 0,5,6
 851.5 325.486 851.5 325.486 791.249 497.242 c 1,7,8
 368.166 414.008 368.166 414.008 291 124.486 c 0,9,10
 233.63 -91.542 233.63 -91.542 381.547 -224.352 c 0,11,12
 537.777 -364.704 537.777 -364.704 870 -321.5 c 0,13,14
 995.315 -304.908 995.315 -304.908 1205.4 -203.67 c 1,15,-1
 1205.4 -371.617 l 1,16,17
 1076.64 -448.193 1076.64 -448.193 890 -473.5 c 0,18,19
 462.163 -529.82 462.163 -529.82 244.965 -332.5 c 0,20,21
 62.0547 -166.597 62.0547 -166.597 128 132.5 c 0,22,23
 192.198 424.08 192.198 424.08 603.903 580.346 c 2,24,-1
 670.175 605.5 l 1,25,-1
 572.54 605.5 l 2,26,27
 470.036 605.5 470.036 605.5 319.278 585.043 c 0,28,29
 186.289 566.329 186.289 566.329 87.9902 527.423 c 1,30,-1
 87.9902 704.502 l 1,31,32
 239.506 752.26 239.506 752.26 572.54 751.26 c 0,33,34
 908.531 751.26 908.531 751.26 1088.12 704.482 c 1,35,-1
 1088.12 562.655 l 1,36,37
 979.86 561.855 979.86 561.855 935.32 543.178 c 1,38,-1
 969.96 434.473 l 2,39,40
 1051.25 179.38 1051.25 179.38 1300.13 179.38 c 2,0,-1
EndSplineSet
EndChar

StartChar: uniFEA3
Encoding: 65187 65187 203
Width: 1289
VWidth: 2186
GlyphClass: 2
Flags: W
AnchorPoint: "Anchor-10" 462 1077.73 basechar 0
AnchorPoint: "Anchor-7" 594 -111.5 basechar 0
LayerCount: 2
Fore
SplineSet
991.27 341.771 m 0,0,1
 1128.62 437.328 1128.62 437.328 1160.59 459.516 c 1,2,-1
 1214.59 577.516 l 1,3,4
 731.074 717.038 731.074 717.038 602.718 759.25 c 0,5,6
 449.759 808.508 449.759 808.508 340 802.04 c 0,7,8
 225.942 794.985 225.942 794.985 154 724.04 c 0,9,10
 64.0948 635.395 64.0948 635.395 27.1182 584.262 c 1,11,-1
 152.93 477.711 l 1,12,13
 273.466 619.738 273.466 619.738 351.915 625.542 c 0,14,15
 428.406 632.011 428.406 632.011 579.557 583.524 c 0,16,17
 852.722 495.897 852.722 495.897 904.829 492.802 c 1,18,-1
 883.086 477.117 l 2,19,20
 561.114 244.852 561.114 244.852 307.671 203.513 c 0,21,22
 157.266 178.98 157.266 178.98 37.5996 178.98 c 2,23,-1
 -8.40039 178.98 l 1,24,-1
 -8.40039 0 l 1,25,-1
 38.6973 0 l 1,26,-1
 71.2549 0 l 2,27,28
 420.059 0 420.059 0 681.684 149.5 c 0,29,30
 887.674 267.209 887.674 267.209 991.27 341.771 c 0,0,1
EndSplineSet
EndChar

StartChar: uniFEA4
Encoding: 65188 65188 204
Width: 1372
VWidth: 2186
GlyphClass: 2
Flags: W
AnchorPoint: "Anchor-10" 455 1077.69 basechar 0
AnchorPoint: "Anchor-7" 599 -111.5 basechar 0
LayerCount: 2
Fore
SplineSet
862.27 259.088 m 1,0,1
 768.8 199.828 768.8 199.828 681.684 149.5 c 0,2,3
 422.903 0 422.903 0 71.2549 0 c 2,4,-1
 38.6973 0 l 1,5,-1
 -8.40039 0 l 1,6,-1
 -8.40039 178.98 l 1,7,-1
 37.5996 178.98 l 2,8,9
 157.266 178.98 157.266 178.98 307.671 203.513 c 0,10,11
 561.114 244.852 561.114 244.852 883.086 477.117 c 2,12,-1
 904.829 492.802 l 1,13,14
 858.44 495.557 858.44 495.557 579.557 583.524 c 0,15,16
 428.406 632.011 428.406 632.011 351.915 625.542 c 0,17,18
 273.466 619.738 273.466 619.738 152.93 477.711 c 1,19,20
 27.1182 584.262 l 1,21,22
 56.7698 629.395 56.7698 629.395 154 724.04 c 0,23,24
 230.485 795.266 230.485 795.266 340 802.04 c 0,25,26
 449.759 808.508 449.759 808.508 602.718 759.25 c 0,27,28
 731.074 717.038 731.074 717.038 1214.59 577.516 c 1,29,-1
 1160.59 459.516 l 1,30,31
 1072.62 397.392 1072.62 397.392 989.27 341.771 c 1,32,33
 1010.15 179.88 1010.15 179.88 1322.32 179.88 c 2,34,-1
 1379.94 179.88 l 1,35,-1
 1379.94 0 l 1,36,-1
 1300.92 0 l 2,37,38
 943.387 0 943.387 0 862.27 259.088 c 1,0,1
EndSplineSet
EndChar

StartChar: uniFEAA
Encoding: 65194 65194 210
Width: 995
VWidth: 2186
GlyphClass: 2
Flags: W
AnchorPoint: "Anchor-10" 447.99 1113.65 basechar 0
AnchorPoint: "Anchor-7" 333.5 -165 basechar 0
LayerCount: 2
Fore
SplineSet
536 456.678 m 2,0,-1
 369.506 839.762 l 5,1,-1
 528.547 907.356 l 1,2,3
 590.2 768.678 590.2 768.678 752.951 393.465 c 0,4,5
 833.97 209.615 833.97 209.615 969.48 179.687 c 2,6,-1
 970.87 179.38 l 1,7,-1
 1010.65 179.38 l 1,8,-1
 1010.65 0.5 l 1,9,-1
 974.439 0.5 l 2,10,11
 812.883 0.500012 812.883 0.500012 734.629 105.374 c 2,12,-1
 724.69 118.694 l 1,13,-1
 714.155 105.84 l 2,14,15
 622.114 -6.46157 622.114 -6.46157 316.052 3.70312 c 0,16,17
 127.272 9.96777 127.272 9.96777 70.75 24.915 c 1,18,-1
 70.75 206.844 l 1,19,20
 211.405 175.266 211.405 175.266 342.734 179.175 c 0,21,22
 516.477 184.045 516.477 184.045 562.55 204.981 c 0,23,24
 625.7 233.678 625.7 233.678 593.7 315.678 c 0,25,26
 572.406 372.911 572.406 372.911 536 456.678 c 2,0,-1
EndSplineSet
EndChar

StartChar: uniFEAE
Encoding: 65198 65198 214
Width: 936
VWidth: 2186
GlyphClass: 2
Flags: W
AnchorPoint: "Anchor-10" 489 818 basechar 0
AnchorPoint: "Anchor-7" 461.925 -555.55 basechar 0
LayerCount: 2
Fore
SplineSet
459.247 441.341 m 1,0,-1
 604.247 519.341 l 1,1,2
 615.511 496.341 615.511 496.341 697.512 337.841 c 0,3,4
 781.517 178.984 781.517 178.984 927.84 178.98 c 2,5,-1
 945.6 178.98 l 1,6,-1
 945.6 0 l 1,7,-1
 941.99 0 l 2,8,9
 761.952 0 761.952 0 710.247 64.1289 c 1,10,11
 644.625 -404.159 644.625 -404.159 34.4229 -465.659 c 1,12,-1
 5.42285 -301.659 l 1,13,14
 494.69 -260.647 494.69 -260.647 547.247 99.3408 c 0,15,16
 569.511 251.841 569.511 251.841 459.247 441.341 c 1,0,-1
EndSplineSet
PairPos2: "'kern' Horizontal Kerning lookup 15-1" uniFEDF dx=-70 dy=0 dh=-70 dv=0 dx=0 dy=0 dh=0 dv=0
PairPos2: "'kern' Horizontal Kerning lookup 15-1" uniFBAC dx=-70 dy=0 dh=-70 dv=0 dx=0 dy=0 dh=0 dv=0
PairPos2: "'kern' Horizontal Kerning lookup 15-1" uniFB90 dx=-70 dy=0 dh=-70 dv=0 dx=0 dy=0 dh=0 dv=0
PairPos2: "'kern' Horizontal Kerning lookup 15-1" uni06A9 dx=-70 dy=0 dh=-70 dv=0 dx=0 dy=0 dh=0 dv=0
PairPos2: "'kern' Horizontal Kerning lookup 15-1" uni0649 dx=-70 dy=0 dh=-70 dv=0 dx=0 dy=0 dh=0 dv=0
PairPos2: "'kern' Horizontal Kerning lookup 15-1" uni0647 dx=-70 dy=0 dh=-70 dv=0 dx=0 dy=0 dh=0 dv=0
PairPos2: "'kern' Horizontal Kerning lookup 15-1" uniFEE7 dx=-70 dy=0 dh=-70 dv=0 dx=0 dy=0 dh=0 dv=0
PairPos2: "'kern' Horizontal Kerning lookup 15-1" uniFEE3 dx=-70 dy=0 dh=-70 dv=0 dx=0 dy=0 dh=0 dv=0
PairPos2: "'kern' Horizontal Kerning lookup 15-1" uni0645 dx=-70 dy=0 dh=-70 dv=0 dx=0 dy=0 dh=0 dv=0
PairPos2: "'kern' Horizontal Kerning lookup 15-1" uniFEDB dx=-70 dy=0 dh=-70 dv=0 dx=0 dy=0 dh=0 dv=0
PairPos2: "'kern' Horizontal Kerning lookup 15-1" uniFED7 dx=-70 dy=0 dh=-70 dv=0 dx=0 dy=0 dh=0 dv=0
PairPos2: "'kern' Horizontal Kerning lookup 15-1" uniFED3 dx=-70 dy=0 dh=-70 dv=0 dx=0 dy=0 dh=0 dv=0
PairPos2: "'kern' Horizontal Kerning lookup 15-1" uni0641 dx=-70 dy=0 dh=-70 dv=0 dx=0 dy=0 dh=0 dv=0
PairPos2: "'kern' Horizontal Kerning lookup 15-1" uniFECF dx=-70 dy=0 dh=-70 dv=0 dx=0 dy=0 dh=0 dv=0
PairPos2: "'kern' Horizontal Kerning lookup 15-1" uniFECB dx=-70 dy=0 dh=-70 dv=0 dx=0 dy=0 dh=0 dv=0
PairPos2: "'kern' Horizontal Kerning lookup 15-1" uniFEC7 dx=-70 dy=0 dh=-70 dv=0 dx=0 dy=0 dh=0 dv=0
PairPos2: "'kern' Horizontal Kerning lookup 15-1" uni0638 dx=-70 dy=0 dh=-70 dv=0 dx=0 dy=0 dh=0 dv=0
PairPos2: "'kern' Horizontal Kerning lookup 15-1" uniFEC3 dx=-70 dy=0 dh=-70 dv=0 dx=0 dy=0 dh=0 dv=0
PairPos2: "'kern' Horizontal Kerning lookup 15-1" uni0637 dx=-70 dy=0 dh=-70 dv=0 dx=0 dy=0 dh=0 dv=0
PairPos2: "'kern' Horizontal Kerning lookup 15-1" uniFEBF dx=-70 dy=0 dh=-70 dv=0 dx=0 dy=0 dh=0 dv=0
PairPos2: "'kern' Horizontal Kerning lookup 15-1" uni0636 dx=-70 dy=0 dh=-70 dv=0 dx=0 dy=0 dh=0 dv=0
PairPos2: "'kern' Horizontal Kerning lookup 15-1" uniFEBB dx=-70 dy=0 dh=-70 dv=0 dx=0 dy=0 dh=0 dv=0
PairPos2: "'kern' Horizontal Kerning lookup 15-1" uni0635 dx=-70 dy=0 dh=-70 dv=0 dx=0 dy=0 dh=0 dv=0
PairPos2: "'kern' Horizontal Kerning lookup 15-1" uniFEB7 dx=-70 dy=0 dh=-70 dv=0 dx=0 dy=0 dh=0 dv=0
PairPos2: "'kern' Horizontal Kerning lookup 15-1" uni0634 dx=-70 dy=0 dh=-70 dv=0 dx=0 dy=0 dh=0 dv=0
PairPos2: "'kern' Horizontal Kerning lookup 15-1" uniFEB3 dx=-70 dy=0 dh=-70 dv=0 dx=0 dy=0 dh=0 dv=0
PairPos2: "'kern' Horizontal Kerning lookup 15-1" uni0633 dx=-70 dy=0 dh=-70 dv=0 dx=0 dy=0 dh=0 dv=0
PairPos2: "'kern' Horizontal Kerning lookup 15-1" uni0630 dx=-70 dy=0 dh=-70 dv=0 dx=0 dy=0 dh=0 dv=0
PairPos2: "'kern' Horizontal Kerning lookup 15-1" uni062F dx=-70 dy=0 dh=-70 dv=0 dx=0 dy=0 dh=0 dv=0
PairPos2: "'kern' Horizontal Kerning lookup 15-1" uniFEA7 dx=-70 dy=0 dh=-70 dv=0 dx=0 dy=0 dh=0 dv=0
PairPos2: "'kern' Horizontal Kerning lookup 15-1" uniFEA3 dx=-70 dy=0 dh=-70 dv=0 dx=0 dy=0 dh=0 dv=0
PairPos2: "'kern' Horizontal Kerning lookup 15-1" uniFE9F dx=-70 dy=0 dh=-70 dv=0 dx=0 dy=0 dh=0 dv=0
PairPos2: "'kern' Horizontal Kerning lookup 15-1" uniFE9B dx=-70 dy=0 dh=-70 dv=0 dx=0 dy=0 dh=0 dv=0
PairPos2: "'kern' Horizontal Kerning lookup 15-1" uni062B dx=-70 dy=0 dh=-70 dv=0 dx=0 dy=0 dh=0 dv=0
PairPos2: "'kern' Horizontal Kerning lookup 15-1" uniFE97 dx=-70 dy=0 dh=-70 dv=0 dx=0 dy=0 dh=0 dv=0
PairPos2: "'kern' Horizontal Kerning lookup 15-1" uni062A dx=-70 dy=0 dh=-70 dv=0 dx=0 dy=0 dh=0 dv=0
PairPos2: "'kern' Horizontal Kerning lookup 15-1" uni0629 dx=-70 dy=0 dh=-70 dv=0 dx=0 dy=0 dh=0 dv=0
PairPos2: "'kern' Horizontal Kerning lookup 15-1" uni0628 dx=-70 dy=0 dh=-70 dv=0 dx=0 dy=0 dh=0 dv=0
PairPos2: "'kern' Horizontal Kerning lookup 15-1" uni0627 dx=-70 dy=0 dh=-70 dv=0 dx=0 dy=0 dh=0 dv=0
PairPos2: "'kern' Horizontal Kerning lookup 15-1" uni0622 dx=-70 dy=0 dh=-70 dv=0 dx=0 dy=0 dh=0 dv=0
PairPos2: "'kern' Horizontal Kerning lookup 15-1" uniFB94 dx=-70 dy=0 dh=-70 dv=0 dx=0 dy=0 dh=0 dv=0
PairPos2: "'kern' Horizontal Kerning lookup 15-1" afii57509 dx=-70 dy=0 dh=-70 dv=0 dx=0 dy=0 dh=0 dv=0
PairPos2: "'kern' Horizontal Kerning lookup 15-1" uniFB56 dx=-70 dy=0 dh=-70 dv=0 dx=0 dy=0 dh=0 dv=0
PairPos2: "'kern' Horizontal Kerning lookup 15-1" afii57506 dx=-70 dy=0 dh=-70 dv=0 dx=0 dy=0 dh=0 dv=0
EndChar

StartChar: uniFEB2
Encoding: 65202 65202 218
Width: 2450
VWidth: 2186
GlyphClass: 2
Flags: W
AnchorPoint: "Anchor-10" 643 886.5 basechar 0
AnchorPoint: "Anchor-7" 503 -561.5 basechar 0
LayerCount: 2
Fore
SplineSet
1264.88 94.0254 m 1,0,1
 1260.13 -54.3885 1260.13 -54.3885 1175.88 -197.975 c 0,2,3
 1040.93 -427.983 1040.93 -427.983 695.88 -424.975 c 0,4,5
 384.88 -422.975 384.88 -422.975 239.88 -273.975 c 0,6,7
 91.8799 -120.975 91.8799 -120.975 91.8799 115.025 c 0,8,9
 91.8799 345.025 91.8799 345.025 197.88 533.025 c 1,10,-1
 366.88 483.025 l 1,11,12
 276.88 265.025 276.88 265.025 274.88 114.025 c 1,13,14
 273.88 -60.9746 273.88 -60.9746 377.88 -151.975 c 0,15,16
 483.88 -243.975 483.88 -243.975 688.88 -247.975 c 0,17,18
 994.455 -254.884 994.455 -254.884 1078.88 -23.9746 c 0,19,20
 1115.55 76.126 1115.55 76.126 1104.88 205.025 c 0,21,22
 1093.57 345.855 1093.57 345.855 1026.77 553.676 c 1,23,-1
 1202.3 553.65 l 1,24,25
 1213.84 515.484 1213.84 515.484 1265.71 330 c 0,26,27
 1307.13 180.505 1307.13 180.505 1476.29 180.505 c 0,28,29
 1668.29 180.505 1668.29 180.505 1653.69 543.65 c 1,30,-1
 1775.99 543.65 l 1,31,32
 1787.5 375.816 1787.5 375.816 1798.39 319.505 c 0,33,34
 1827.87 165.99 1827.87 165.99 1956.79 170.505 c 0,35,36
 2068.62 173.631 2068.62 173.631 2079.42 350.42 c 2,37,-1
 2095.54 614.36 l 1,38,-1
 2214.11 614.36 l 1,39,-1
 2242.87 353.06 l 2,40,41
 2255.73 236.217 2255.73 236.217 2305.62 208.062 c 0,42,43
 2356.45 179.38 2356.45 179.38 2449.46 179.38 c 2,44,-1
 2511.33 179.38 l 1,45,-1
 2511.33 0.5 l 1,46,-1
 2420.92 0.5 l 2,47,48
 2233.31 0.5 2233.31 0.5 2166.21 118.919 c 1,49,50
 2093.09 -1.16309 2093.09 -1.16309 1986.66 0 c 0,51,52
 1770.58 1.40234 1770.58 1.40234 1710.32 129.891 c 1,53,54
 1652.35 -1 1652.35 -1 1485.78 0 c 0,55,56
 1308.48 1.06442 1308.48 1.06442 1264.88 94.0254 c 1,0,1
EndSplineSet
EndChar

StartChar: uniFEB3
Encoding: 65203 65203 219
Width: 1560
VWidth: 2186
GlyphClass: 2
Flags: W
AnchorPoint: "Anchor-10" 695.5 958.5 basechar 0
AnchorPoint: "Anchor-7" 695.5 -165 basechar 0
LayerCount: 2
Fore
SplineSet
280.724 47.8809 m 0,0,1
 208.734 0 208.734 0 117.7 0 c 2,2,-1
 -8.40039 0 l 1,3,-1
 -8.40039 178.98 l 1,4,-1
 58.8496 178.98 l 2,5,6
 261.448 178.98 261.448 178.98 293.623 374.06 c 2,7,-1
 320.014 534.07 l 1,8,-1
 423.645 534.07 l 1,9,-1
 440.169 373.846 l 2,10,11
 460.719 174.586 460.719 174.586 640.467 172.499 c 0,12,13
 809.593 170.528 809.593 170.528 824.312 300.695 c 6,14,-1
 850.701 534.07 l 5,15,-1
 966.599 534.07 l 5,16,-1
 990.168 322.75 l 6,17,18
 1008.45 158.866 1008.45 158.866 1161.45 170.75 c 4,19,20
 1263.53 179.15 1263.53 179.15 1292.74 368.994 c 4,21,22
 1302.74 434.994 1302.74 434.994 1290.74 518.994 c 4,23,24
 1273.28 640.542 1273.28 640.542 1246.76 704 c 5,25,-1
 1402.26 736 l 5,26,27
 1444.48 637.75 1444.48 637.75 1452.09 448.75 c 4,28,29
 1460.51 252.743 1460.51 252.743 1373.55 126.994 c 4,30,31
 1286.22 0.80957 1286.22 0.80957 1152.75 0.5 c 4,32,33
 943.937 0 943.937 0 901.31 133.496 c 5,34,35
 858.789 -1.55176 858.789 -1.55176 643.418 0.00585938 c 0,36,37
 432.322 1.64648 432.322 1.64648 371.737 120.18 c 1,38,39
 362.716 102.414 362.716 102.414 280.724 47.8809 c 0,0,1
EndSplineSet
EndChar

StartChar: uniFEB4
Encoding: 65204 65204 220
Width: 1671
VWidth: 2181
GlyphClass: 2
Flags: W
AnchorPoint: "Anchor-10" 720.5 953.5 basechar 0
AnchorPoint: "Anchor-7" 720.5 -170 basechar 0
LayerCount: 2
Fore
SplineSet
1144.65 2.13867 m 0,0,1
 970.086 -10.8203 970.086 -10.8203 908.334 134.549 c 1,2,3
 865.428 1.61621 865.428 1.61621 635.634 3.20996 c 0,4,5
 434.368 4.71777 434.368 4.71777 373.053 124.68 c 1,6,7
 365.094 103.881 365.094 103.881 293.104 56 c 0,8,9
 208.908 0 208.908 0 72.207 0 c 2,10,-1
 -27.2744 0 l 1,11,-1
 -27.2744 178.979 l 1,12,-1
 36.6533 178.979 l 1,13,14
 265.671 180.917 265.671 180.917 289.464 330 c 2,15,-1
 322.238 535.36 l 1,16,-1
 421.319 535.36 l 1,17,-1
 444.979 367.08 l 2,18,19
 471.129 181.089 471.129 181.089 633.358 175.675 c 0,20,21
 807.137 170.382 807.137 170.382 826.884 322.096 c 2,22,-1
 854.642 535.36 l 1,23,-1
 966.502 535.36 l 1,24,-1
 994.702 307.419 l 2,25,26
 1010.94 176.164 1010.94 176.164 1136.32 175.607 c 128,-1,27
 1261.7 175.051 1261.7 175.051 1274.98 333.71 c 6,28,-1
 1297.6 604 l 5,29,-1
 1412.31 604 l 5,30,-1
 1433.24 365.56 l 6,31,32
 1442.93 255.184 1442.93 255.184 1503.52 210 c 4,33,34
 1543.91 179.88 1543.91 179.88 1621.45 179.88 c 6,35,-1
 1682.64 179.88 l 5,36,-1
 1682.64 0 l 5,37,-1
 1576.66 0 l 6,38,39
 1417.8 0 1417.8 0 1359.01 125.007 c 5,40,41
 1328.24 15.8428 1328.24 15.8428 1144.65 2.13867 c 0,0,1
EndSplineSet
EndChar

StartChar: uniFEBA
Encoding: 65210 65210 226
Width: 2472
VWidth: 2186
GlyphClass: 2
Flags: W
AnchorPoint: "Anchor-10" 578 986.5 basechar 0
AnchorPoint: "Anchor-7" 453 -536.5 basechar 0
LayerCount: 2
Fore
SplineSet
1264.46 73.0498 m 1,0,1
 1237.46 -112.95 1237.46 -112.95 1175.46 -218.95 c 0,2,3
 1040.92 -448.963 1040.92 -448.963 695.46 -445.95 c 0,4,5
 384.46 -443.95 384.46 -443.95 239.46 -294.95 c 0,6,7
 91.46 -141.95 91.46 -141.95 91.46 94.0498 c 0,8,9
 91.46 324.05 91.46 324.05 197.46 512.05 c 1,10,-1
 366.46 462.05 l 1,11,12
 276.46 244.05 276.46 244.05 274.46 93.0498 c 1,13,14
 273.46 -81.9502 273.46 -81.9502 377.46 -172.95 c 0,15,16
 483.46 -264.95 483.46 -264.95 688.46 -268.95 c 0,17,18
 999.878 -275.982 999.878 -275.982 1080.46 -40.9502 c 0,19,20
 1104.46 29.0498 1104.46 29.0498 1104.46 182.05 c 1,21,22
 1104.46 311.957 1104.46 311.957 1066.78 464 c 1,23,-1
 1220.08 464 l 1,24,25
 1239 342.183 1239 342.183 1319.11 277.49 c 1,26,27
 1467.06 522.792 1467.06 522.792 1529.63 586.584 c 0,28,29
 1659.33 718.794 1659.33 718.794 1767.04 765.045 c 0,30,31
 1970.25 851.817 1970.25 851.817 2124.49 781.892 c 0,32,33
 2288.8 706.887 2288.8 706.887 2288.8 434.455 c 0,34,35
 2288.8 343.807 2288.8 343.807 2245.32 270.093 c 1,36,37
 2247.42 268.538 2247.42 268.538 2253.39 263.26 c 0,38,39
 2281.36 239.575 2281.36 239.575 2296.18 228.908 c 0,40,41
 2365.01 179.38 2365.01 179.38 2456.78 179.38 c 2,42,-1
 2481.1 179.38 l 1,43,-1
 2481.1 0.5 l 1,44,-1
 2397.93 0.5 l 2,45,46
 2246.35 0.5 2246.35 0.5 2127.93 137.588 c 1,47,48
 1912.45 0.541016 1912.45 0.541016 1664.94 -0.0654297 c 2,49,-1
 1424.28 -0.655273 l 2,50,51
 1346.1 -0.84668 1346.1 -0.84668 1291.71 72.54 c 1,52,-1
 1264.46 73.0498 l 1,0,1
1429.49 187.744 m 1,53,-1
 1616.46 187.744 l 2,54,55
 1797.14 187.744 1797.14 187.744 1946.27 256.999 c 0,56,57
 2093.71 325.469 2093.71 325.469 2113.62 444.86 c 1,58,59
 2125.01 521.614 2125.01 521.614 2091.12 568.641 c 128,-1,60
 2057.23 615.667 2057.23 615.667 1980.99 628.909 c 0,61,62
 1849.32 651.191 1849.32 651.191 1718.64 542.532 c 1,63,64
 1561.68 409.275 1561.68 409.275 1441.22 207.405 c 2,65,-1
 1429.49 187.744 l 1,53,-1
EndSplineSet
EndChar

StartChar: uniFEBB
Encoding: 65211 65211 227
Width: 1519
VWidth: 2186
GlyphClass: 2
Flags: W
AnchorPoint: "Anchor-10" 548.3 1074.8 basechar 0
AnchorPoint: "Anchor-7" 524.3 -165 basechar 0
LayerCount: 2
Fore
SplineSet
580.668 190.071 m 1,0,-1
 767.638 190.071 l 2,1,2
 948.314 190.071 948.314 190.071 1097.45 259.326 c 0,3,4
 1244.88 327.789 1244.88 327.789 1264.81 447.178 c 1,5,6
 1276.2 523.938 1276.2 523.938 1242.31 570.965 c 128,-1,7
 1208.42 617.993 1208.42 617.993 1132.17 631.236 c 0,8,9
 1000.51 653.521 1000.51 653.521 869.821 544.859 c 1,10,11
 712.835 411.577 712.835 411.577 592.399 209.732 c 2,12,-1
 580.668 190.071 l 1,0,-1
485.585 331.974 m 2,13,14
 534.517 427.671 534.517 427.671 681.154 589.279 c 0,15,16
 787.889 706.909 787.889 706.909 918.216 767.371 c 0,17,18
 1099.14 849.317 1099.14 849.317 1263.66 779.219 c 0,19,20
 1439.97 704.214 1439.97 704.214 1439.97 436.782 c 0,21,22
 1439.97 251.187 1439.97 251.187 1268.36 132.461 c 0,23,24
 1076.09 -0.927315 1076.09 -0.927315 816.097 0.00195312 c 2,25,-1
 628.938 0.670898 l 2,26,27
 563.456 0.904944 563.456 0.904944 471.476 49.0684 c 0,28,29
 397.508 87.7994 397.508 87.7994 357.633 150.163 c 2,30,-1
 347.455 166.081 l 1,31,-1
 336.226 150.888 l 2,32,33
 224.706 0 224.706 0 60.9902 0 c 2,34,-1
 -8.40039 0 l 1,35,-1
 -8.40039 178.98 l 1,36,-1
 2.13965 178.98 l 2,37,38
 112.196 178.98 112.196 178.98 159.785 216.333 c 0,39,40
 231.7 272.792 231.7 272.792 248.26 391.06 c 2,41,-1
 269.26 541.04 l 1,42,-1
 392.14 541.04 l 1,43,-1
 413.14 431.58 l 2,44,45
 429.293 347.385 429.293 347.385 476.984 315.153 c 1,46,-1
 485.585 331.974 l 2,13,14
EndSplineSet
EndChar

StartChar: uniFEBC
Encoding: 65212 65212 228
Width: 1626
VWidth: 2186
GlyphClass: 2
Flags: W
AnchorPoint: "Anchor-10" 580.5 1139.5 basechar 0
AnchorPoint: "Anchor-7" 588.5 -165 basechar 0
LayerCount: 2
Fore
SplineSet
580.668 190.071 m 1,0,-1
 767.638 190.071 l 2,1,2
 948.314 190.071 948.314 190.071 1097.45 259.326 c 0,3,4
 1244.88 327.789 1244.88 327.789 1264.81 447.178 c 1,5,6
 1276.2 523.938 1276.2 523.938 1242.31 570.965 c 128,-1,7
 1208.42 617.993 1208.42 617.993 1132.17 631.236 c 0,8,9
 1000.51 653.521 1000.51 653.521 869.821 544.859 c 1,10,11
 712.835 411.577 712.835 411.577 592.399 209.732 c 2,12,-1
 580.668 190.071 l 1,0,-1
1400.52 264.536 m 2,13,14
 1408.67 253.135 1408.67 253.135 1442.24 228.917 c 0,15,16
 1510.92 179.38 1510.92 179.38 1597.51 179.38 c 2,17,-1
 1634.8 179.38 l 1,18,-1
 1634.8 0.5 l 1,19,-1
 1576.11 0.5 l 2,20,21
 1440.38 0.5 1440.38 0.5 1368.46 56.1006 c 0,22,23
 1295.24 112.693 1295.24 112.693 1287.27 127.84 c 2,24,-1
 1280.43 140.833 l 1,25,-1
 1268.36 132.461 l 2,26,27
 1077.05 -0.233606 1077.05 -0.233606 816.097 0.00195312 c 2,28,-1
 628.938 0.170898 l 2,29,30
 564.745 0.228844 564.745 0.228844 471.476 49.0684 c 0,31,32
 397.508 87.7994 397.508 87.7994 357.633 150.163 c 2,33,-1
 347.455 166.081 l 1,34,-1
 336.226 150.888 l 2,35,36
 224.706 0 224.706 0 60.9902 0 c 2,37,-1
 -8.40039 0 l 1,38,-1
 -8.40039 178.98 l 1,39,-1
 2.13965 178.98 l 2,40,41
 115.842 178.98 115.842 178.98 172.2 235.335 c 0,42,43
 230.684 293.821 230.684 293.821 246.26 402.06 c 2,44,-1
 266.26 541.04 l 1,45,-1
 393.14 541.04 l 1,46,-1
 412.14 440.58 l 2,47,48
 428.883 352.054 428.883 352.054 476.984 315.153 c 1,49,50
 534.517 427.671 534.517 427.671 681.154 589.279 c 0,51,52
 792.084 711.532 792.084 711.532 918.216 767.371 c 0,53,54
 1110.68 851.096 1110.68 851.096 1264.66 785.219 c 0,55,56
 1439.97 710.214 1439.97 710.214 1439.97 436.782 c 0,57,58
 1439.97 350.604 1439.97 350.604 1399.74 278.431 c 2,59,-1
 1395.73 271.237 l 1,60,-1
 1400.52 264.536 l 2,13,14
EndSplineSet
EndChar

StartChar: uniFEC1
Encoding: 65217 65217 233
Width: 1399
VWidth: 2186
GlyphClass: 2
Flags: W
AnchorPoint: "Anchor-7" 287.72 -165 basechar 0
AnchorPoint: "Anchor-10" 287.72 1512.47 basechar 0
LayerCount: 2
Fore
SplineSet
501.295 190.009 m 1,0,-1
 688.264 190.009 l 2,1,2
 868.94 190.009 868.94 190.009 1018.08 259.262 c 0,3,4
 1165.5 327.725 1165.5 327.725 1185.43 447.116 c 1,5,6
 1196.83 523.874 1196.83 523.874 1162.93 570.901 c 128,-1,7
 1129.04 617.929 1129.04 617.929 1052.8 631.172 c 0,8,9
 921.13 653.456 921.13 653.456 790.456 544.802 c 1,10,11
 633.447 411.491 633.447 411.491 513.026 209.67 c 2,12,-1
 501.295 190.009 l 1,0,-1
746.048 0 m 2,13,-1
 189.218 0 l 1,14,-1
 10.75 0 l 1,15,-1
 10.75 178.979 l 1,16,-1
 207.28 178.98 l 1,17,-1
 207.28 1398.89 l 5,18,-1
 373.16 1398.89 l 5,19,-1
 373.16 253.824 l 1,20,-1
 397.629 299.68 l 2,21,22
 590.18 660.529 590.18 660.529 850.549 783.293 c 0,23,24
 1009.67 857.872 1009.67 857.872 1174.15 788.323 c 0,25,26
 1347.76 714.246 1347.76 714.246 1347.76 446.639 c 0,27,28
 1347.76 260.074 1347.76 260.074 1181.5 136.731 c 0,29,30
 997.7 0 997.7 0 746.048 0 c 2,13,-1
EndSplineSet
EndChar

StartChar: uniFEC2
Encoding: 65218 65218 234
Width: 1562
VWidth: 2186
GlyphClass: 2
Flags: W
AnchorPoint: "Anchor-7" 395.13 -165 basechar 0
AnchorPoint: "Anchor-10" 291.67 1515.79 basechar 0
LayerCount: 2
Fore
SplineSet
514.545 190.009 m 1,0,-1
 701.514 190.009 l 2,1,2
 882.193 190.009 882.193 190.009 1031.33 259.262 c 0,3,4
 1178.75 327.725 1178.75 327.725 1198.68 447.116 c 1,5,6
 1210.08 523.874 1210.08 523.874 1176.18 570.901 c 128,-1,7
 1142.29 617.929 1142.29 617.929 1066.05 631.172 c 0,8,9
 934.38 653.456 934.38 653.456 803.706 544.802 c 1,10,11
 646.697 411.491 646.697 411.491 526.276 209.67 c 2,12,-1
 514.545 190.009 l 1,0,-1
1330.79 290.454 m 2,13,14
 1359 244.422 1359 244.422 1380.48 228.917 c 0,15,16
 1449.16 179.38 1449.16 179.38 1541.1 179.38 c 2,17,-1
 1570.9 179.38 l 1,18,-1
 1570.9 0.5 l 1,19,-1
 1482.25 0.5 l 2,20,21
 1310.1 0.500045 1310.1 0.500045 1213.02 133.949 c 2,22,-1
 1205.29 144.575 l 1,23,-1
 1194.75 136.731 l 2,24,25
 1011.02 0 1011.02 0 759.298 0 c 2,26,-1
 202.468 0 l 1,27,-1
 24 0 l 1,28,-1
 24 178.98 l 1,29,-1
 219.53 178.98 l 1,30,-1
 219.53 1399.89 l 1,31,-1
 386.41 1399.89 l 1,32,-1
 386.41 253.824 l 1,33,-1
 410.879 299.68 l 2,34,35
 607.601 668.346 607.601 668.346 863.568 783.181 c 0,36,37
 1039.52 861.618 1039.52 861.618 1195.4 792.814 c 0,38,39
 1361.01 718.736 1361.01 718.736 1361.01 446.639 c 0,40,41
 1361.01 369.385 1361.01 369.385 1330.08 302.71 c 2,42,-1
 1327.15 296.394 l 1,43,-1
 1330.79 290.454 l 2,13,14
EndSplineSet
EndChar

StartChar: uniFEC3
Encoding: 65219 65219 235
Width: 1381
VWidth: 2186
GlyphClass: 2
Flags: W
AnchorPoint: "Anchor-10" 262.57 1518.47 basechar 0
AnchorPoint: "Anchor-7" 268.57 -165 basechar 0
LayerCount: 2
Fore
SplineSet
482.145 190.009 m 1,0,-1
 669.114 190.009 l 2,1,2
 849.793 190.009 849.793 190.009 998.928 259.262 c 0,3,4
 1146.35 327.725 1146.35 327.725 1166.28 447.117 c 1,5,6
 1177.68 523.874 1177.68 523.874 1143.78 570.901 c 128,-1,7
 1109.89 617.929 1109.89 617.929 1033.65 631.172 c 0,8,9
 901.981 653.457 901.981 653.457 771.306 544.802 c 1,10,11
 614.297 411.491 614.297 411.491 493.876 209.67 c 2,12,-1
 482.145 190.009 l 1,0,-1
726.898 0 m 2,13,-1
 170.067 0 l 1,14,-1
 -8.40039 0 l 1,15,-1
 -8.40039 178.98 l 1,16,-1
 187.13 178.98 l 1,17,-1
 187.13 1399.89 l 1,18,-1
 354.01 1399.89 l 1,19,-1
 354.01 253.825 l 1,20,-1
 378.479 299.68 l 2,21,22
 574.549 667.116 574.549 667.116 831.268 783.229 c 0,23,24
 1002.25 861.283 1002.25 861.283 1162 789.604 c 0,25,26
 1328.61 715.526 1328.61 715.526 1328.61 446.639 c 0,27,28
 1328.61 260.074 1328.61 260.074 1162.35 136.731 c 0,29,30
 978.553 0 978.553 0 726.898 0 c 2,13,-1
EndSplineSet
EndChar

StartChar: uniFEC4
Encoding: 65220 65220 236
Width: 1530
VWidth: 2186
GlyphClass: 2
Flags: W
AnchorPoint: "Anchor-10" 257.27 1528.79 basechar 0
AnchorPoint: "Anchor-7" 362.73 -165 basechar 0
LayerCount: 2
Fore
SplineSet
482.145 190.009 m 1,0,-1
 669.114 190.009 l 2,1,2
 849.793 190.009 849.793 190.009 998.928 259.262 c 0,3,4
 1146.35 327.725 1146.35 327.725 1166.28 447.117 c 1,5,6
 1177.68 523.874 1177.68 523.874 1143.78 570.901 c 128,-1,7
 1109.89 617.929 1109.89 617.929 1033.65 631.172 c 0,8,9
 901.981 653.457 901.981 653.457 771.306 544.802 c 1,10,11
 614.297 411.491 614.297 411.491 493.876 209.67 c 2,12,-1
 482.145 190.009 l 1,0,-1
1298.39 290.454 m 2,13,14
 1326.61 244.408 1326.61 244.408 1348.08 228.917 c 0,15,16
 1416.76 179.38 1416.76 179.38 1508.7 179.38 c 2,17,-1
 1538.5 179.38 l 1,18,-1
 1538.5 0.5 l 1,19,-1
 1449.85 0.5 l 2,20,21
 1277.7 0.500045 1277.7 0.500045 1180.62 133.949 c 2,22,-1
 1172.89 144.575 l 1,23,-1
 1162.35 136.731 l 2,24,25
 978.623 0 978.623 0 726.898 0 c 2,26,-1
 170.067 0 l 1,27,-1
 -8.40039 0 l 1,28,-1
 -8.40039 178.98 l 1,29,-1
 187.13 178.98 l 1,30,-1
 187.13 1400.89 l 1,31,-1
 354.01 1400.89 l 1,32,-1
 354.01 253.825 l 1,33,-1
 378.479 299.68 l 2,34,35
 574.504 667.032 574.504 667.032 831.169 783.181 c 0,36,37
 1003.58 860.978 1003.58 860.978 1161 791.814 c 0,38,39
 1328.61 717.736 1328.61 717.736 1328.61 446.639 c 0,40,41
 1328.61 369.382 1328.61 369.382 1297.68 302.71 c 2,42,-1
 1294.75 296.394 l 1,43,-1
 1298.39 290.454 l 2,13,14
EndSplineSet
EndChar

StartChar: uniFECA
Encoding: 65226 65226 242
Width: 1189
VWidth: 2186
GlyphClass: 2
Flags: W
AnchorPoint: "Anchor-10" 568 1065.5 basechar 0
AnchorPoint: "Anchor-7" 611.69 -617.64 basechar 0
LayerCount: 2
Fore
SplineSet
606.635 627.039 m 0,0,1
 577.481 627.039 577.481 627.039 549.52 621.665 c 0,2,3
 497.869 611.746 497.869 611.746 497.869 583.036 c 0,4,5
 497.869 568.896 497.869 568.896 523.376 545.904 c 128,-1,6
 548.894 522.901 548.894 522.901 606.635 482.832 c 1,7,8
 664.359 522.883 664.359 522.883 689.893 545.899 c 128,-1,9
 715.402 568.896 715.402 568.896 715.402 583.036 c 0,10,11
 715.402 612.601 715.402 612.601 663.66 621.683 c 0,12,13
 633.148 627.039 633.148 627.039 606.635 627.039 c 0,0,1
505.902 391.531 m 1,14,15
 403.807 428.629 403.807 428.629 299.951 517.705 c 0,16,17
 248.677 561.683 248.677 561.683 251.613 592.197 c 0,18,19
 260.874 688.461 260.874 688.461 399.173 754.879 c 0,20,21
 485.795 796.946 485.795 796.946 602.069 796.946 c 128,-1,22
 718.344 796.946 718.344 796.946 805.007 754.861 c 0,23,24
 955.943 682.372 955.943 682.372 955.943 592.197 c 0,25,26
 955.943 572.287 955.943 572.287 905.154 518.758 c 0,27,28
 828.662 438.14 828.662 438.14 699.277 390.338 c 1,29,30
 858.413 179.38 858.413 179.38 1049.5 179.38 c 2,31,-1
 1213.7 179.38 l 1,32,-1
 1213.7 0.5 l 1,33,-1
 1066.62 0.5 l 2,34,35
 854.556 0.5 854.556 0.5 609.777 289.379 c 1,36,37
 410.156 206.258 410.156 206.258 329.8 104.5 c 0,38,39
 213.487 -41.2246 213.487 -41.2246 293.985 -201.77 c 0,40,41
 389.217 -390.605 389.217 -390.605 749.9 -350.561 c 0,42,43
 885.172 -335.858 885.172 -335.858 1040.99 -263.318 c 1,44,-1
 1040.99 -430.411 l 1,45,46
 930.898 -497.401 930.898 -497.401 745.322 -507.164 c 0,47,48
 257.843 -532.811 257.843 -532.811 137.985 -277.77 c 0,49,50
 34.6738 -56.2236 34.6738 -56.2236 192.222 158.5 c 0,51,52
 287.024 288.712 287.024 288.712 505.902 391.531 c 1,14,15
EndSplineSet
EndChar

StartChar: uniFECB
Encoding: 65227 65227 243
Width: 1039
VWidth: 2186
GlyphClass: 2
Flags: W
AnchorPoint: "Anchor-10" 373.265 1221.23 basechar 0
AnchorPoint: "Anchor-7" 513.6 -111.5 basechar 0
LayerCount: 2
Fore
SplineSet
20.3301 178.98 m 2,0,1
 242.394 178.98 242.394 178.98 248.907 178.969 c 2,2,-1
 279.904 179.013 l 1,3,-1
 257.062 203.722 l 2,4,5
 199.062 266.463 199.062 266.463 174.621 336.017 c 0,6,7
 118.697 500.45 118.697 500.45 175.768 642 c 0,8,9
 267.793 874.508 267.793 874.508 540.699 880.708 c 0,10,11
 778.488 885.792 778.488 885.792 888.961 760.358 c 1,12,-1
 833.768 636.427 l 1,13,14
 715.729 733.825 715.729 733.825 539.227 718.849 c 0,15,16
 387.068 706.07 387.068 706.07 331.768 584 c 0,17,18
 282.008 474.162 282.008 474.162 337.981 349.183 c 0,19,20
 379.488 254.996 379.488 254.996 449.768 222.427 c 0,21,22
 506.792 196 506.792 196 663.768 226.427 c 2,23,-1
 963 284.427 l 1,24,-1
 963 104.427 l 1,25,26
 558.299 -0.0252605 558.299 -0.0252605 356.357 -0.015625 c 2,27,-1
 28.8896 0 l 1,28,-1
 -8.40039 0 l 1,29,-1
 -8.40039 178.98 l 1,30,-1
 20.3301 178.98 l 2,0,1
EndSplineSet
EndChar

StartChar: uniFECC
Encoding: 65228 65228 244
Width: 932
VWidth: 2186
GlyphClass: 2
Flags: W
AnchorPoint: "Anchor-10" 464.58 1065.5 basechar 0
AnchorPoint: "Anchor-7" 464.58 -111.5 basechar 0
LayerCount: 2
Fore
SplineSet
476.42 544.003 m 0,0,1
 447.267 544.003 447.267 544.003 419.305 538.747 c 0,2,3
 367.654 529.046 367.654 529.046 367.654 500.969 c 0,4,5
 367.654 487.14 367.654 487.14 393.162 464.653 c 128,-1,6
 418.68 442.157 418.68 442.157 476.42 402.971 c 1,7,8
 534.145 442.14 534.145 442.14 559.677 464.65 c 128,-1,9
 585.187 487.141 585.187 487.141 585.187 500.969 c 0,10,11
 585.187 529.882 585.187 529.882 533.445 538.765 c 0,12,13
 502.933 544.003 502.933 544.003 476.42 544.003 c 0,0,1
40.8604 0 m 2,14,-1
 -72.4004 0 l 1,15,-1
 -72.4004 178.98 l 1,16,-1
 17.3203 178.98 l 2,17,18
 130.191 178.98 130.191 178.98 223.08 210.404 c 0,19,20
 356.1 255.404 356.1 255.404 375.387 310.146 c 1,21,22
 275.315 348.513 275.315 348.513 169.735 437.076 c 0,23,24
 118.462 480.086 118.462 480.086 121.397 509.93 c 0,25,26
 130.658 604.073 130.658 604.073 268.957 669.03 c 0,27,28
 355.58 710.172 355.58 710.172 471.854 710.172 c 128,-1,29
 588.129 710.172 588.129 710.172 674.791 669.013 c 0,30,31
 825.728 598.119 825.728 598.119 825.728 509.93 c 0,32,33
 825.728 488.588 825.728 488.588 774.938 438.105 c 0,34,35
 696.143 359.787 696.143 359.787 568.762 308.953 c 1,36,37
 619.091 238.435 619.091 238.435 718.08 210 c 0,38,39
 827.376 178.603 827.376 178.603 911.84 178.98 c 2,40,-1
 1001.56 179.38 l 1,41,-1
 1001.56 0.5 l 1,42,-1
 888.3 0.5 l 2,43,44
 635.859 0.5 635.859 0.5 466.08 162.404 c 5,45,46
 295.776 0 295.776 0 40.8604 0 c 2,14,-1
EndSplineSet
EndChar

StartChar: uniFEDA
Encoding: 65242 65242 258
Width: 1840
VWidth: 2186
GlyphClass: 2
Flags: W
AnchorPoint: "Anchor-10" 539 1372.5 basechar 0
AnchorPoint: "Anchor-7" 790 -218.5 basechar 0
LayerCount: 2
Fore
SplineSet
1050.77 1191.37 m 1,0,-1
 1050.77 1129.46 l 1,1,2
 978.53 1124.56 978.53 1124.56 939.37 1110.13 c 0,3,4
 845.33 1074.87 845.33 1074.87 845.33 1030.55 c 0,5,6
 845.33 996.128 845.33 996.128 862.977 973.438 c 0,7,8
 878.961 952.126 878.961 952.126 957.02 940.646 c 0,9,10
 1007.93 933.158 1007.93 933.158 1033.99 909.356 c 128,-1,11
 1060.05 885.555 1060.05 885.555 1060.05 843.298 c 0,12,13
 1060.05 744.281 1060.05 744.281 968.3 692.399 c 0,14,15
 898.305 652.814 898.305 652.814 802.689 651.929 c 0,16,17
 739.676 651.929 739.676 651.929 685.148 661.5 c 1,18,-1
 685.148 729.882 l 1,19,20
 749.203 721.158 749.203 721.158 793.059 721.158 c 0,21,22
 866.923 721.158 866.923 721.158 914.305 739.814 c 0,23,24
 995.45 770.977 995.45 770.977 995.45 821.898 c 0,25,26
 995.45 878.181 995.45 878.181 901.736 893.454 c 0,27,28
 843.307 902.357 843.307 902.357 811.391 935.003 c 0,29,30
 779.093 968.039 779.093 968.039 780.375 1027.02 c 0,31,32
 782.326 1105.92 782.326 1105.92 855.637 1143.07 c 0,33,34
 938.89 1185.19 938.89 1185.19 1050.77 1191.37 c 1,0,-1
1265.6 29 m 24,35,36
 1097.64 -1.45804 1097.64 -1.45804 911 2 c 24,37,38
 584.952 8.04088 584.952 8.04088 456 44 c 0,39,40
 126.91 135.769 126.91 135.769 92 457 c 0,41,42
 79.4531 575.45 79.4531 575.45 128 709 c 1,43,-1
 290.912 676.955 l 1,44,45
 260.862 521.504 260.862 521.504 267 478 c 0,46,47
 297.342 262.963 297.342 262.963 560 203 c 0,48,49
 643.63 183.908 643.63 183.908 803.912 179.813 c 0,50,51
 1008.99 173.801 1008.99 173.801 1130.62 186.432 c 16,52,53
 1432.47 217.777 1432.47 217.777 1464.6 397.014 c 0,54,55
 1468.43 418.365 1468.43 418.365 1468.43 441.814 c 2,56,-1
 1468.43 1554.96 l 1,57,-1
 1639.3 1554.96 l 1,58,-1
 1639.3 411.814 l 2,59,60
 1639.3 383.608 1639.3 383.608 1636.64 357 c 0,61,62
 1631.2 302.454 1631.2 302.454 1614.6 254.627 c 1,63,64
 1670.38 179.38 1670.38 179.38 1795.97 179.38 c 2,65,-1
 1863.22 179.38 l 1,66,-1
 1863.22 0.5 l 1,67,-1
 1737.12 0.5 l 2,68,69
 1632.92 0.5 1632.92 0.5 1500.6 108.919 c 1,70,71
 1413.53 55.8251 1413.53 55.8251 1265.6 29 c 24,35,36
EndSplineSet
EndChar

StartChar: uniFEDB
Encoding: 65243 65243 259
Width: 832
VWidth: 2186
GlyphClass: 2
Flags: W
AnchorPoint: "Anchor-10" 198.5 1393 basechar 0
AnchorPoint: "Anchor-7" 321 -165 basechar 0
LayerCount: 2
Fore
SplineSet
293.7 0 m 2,0,-1
 -46.4004 0 l 1,1,-1
 -46.4004 178.98 l 1,2,-1
 252.371 179.004 l 2,3,4
 530.352 179.026 530.352 179.026 552.945 323.598 c 0,5,6
 573.576 455.665 573.576 455.665 451.112 546.547 c 2,7,-1
 90.8574 813.896 l 2,8,9
 18.9615 867.251 18.9615 867.251 12.5195 947.14 c 0,10,11
 1.02309 1089.72 1.02309 1089.72 117.539 1144.45 c 2,12,-1
 823.25 1475.96 l 1,13,-1
 823.25 1299.28 l 1,14,15
 495.811 1141.64 495.811 1141.64 168.371 984 c 1,16,17
 384.425 824.404 384.425 824.404 585.513 657.823 c 0,18,19
 735.487 531.224 735.487 531.224 709.925 281.204 c 0,20,21
 695.62 143.999 695.62 143.999 586.487 71.999 c 128,-1,22
 477.354 0 477.354 0 293.7 0 c 2,0,-1
EndSplineSet
EndChar

StartChar: uniFEDC
Encoding: 65244 65244 260
Width: 990
VWidth: 2186
GlyphClass: 2
Flags: W
AnchorPoint: "Anchor-10" 206.5 1369 basechar 0
AnchorPoint: "Anchor-7" 321 -165 basechar 0
LayerCount: 2
Fore
SplineSet
662 102 m 1,0,1
 643.244 89 643.244 89 624.487 75.999 c 0,2,3
 502.515 0 502.515 0 331.7 0 c 2,4,-1
 -8.40039 0 l 1,5,-1
 -8.40039 178.98 l 1,6,-1
 290.371 179.004 l 2,7,8
 570.354 179.026 570.354 179.026 592.945 323.597 c 0,9,10
 612.825 450.784 612.825 450.784 489.112 546.547 c 2,11,-1
 139.857 816.896 l 2,12,13
 53.1642 884.004 53.1642 884.004 50.5195 949.14 c 0,14,15
 43.878 1112.31 43.878 1112.31 201.539 1182.45 c 2,16,-1
 861.25 1475.96 l 1,17,-1
 861.25 1298.28 l 1,18,19
 533.811 1142.14 533.811 1142.14 206.371 986 c 1,20,21
 602.948 677.438 602.948 677.438 623.513 657.823 c 0,22,23
 771.875 514.404 771.875 514.404 747.925 281.204 c 1,24,25
 812.548 179.38 812.548 179.38 901.12 179.38 c 2,26,-1
 998.15 179.38 l 1,27,-1
 998.15 0.5 l 1,28,-1
 891.41 0.5 l 2,29,30
 812.132 0.5 812.132 0.5 752 35 c 0,31,32
 748.271 37.1396 748.271 37.1396 662 102 c 1,0,1
EndSplineSet
EndChar

StartChar: uniFEDE
Encoding: 65246 65246 262
Width: 1402
VWidth: 2186
GlyphClass: 2
Flags: W
AnchorPoint: "Anchor-10" 452.5 885.5 basechar 0
AnchorPoint: "Anchor-7" 596.34 -553.3 basechar 0
LayerCount: 2
Fore
SplineSet
969.4 372.14 m 2,0,-1
 969.4 1400.83 l 1,1,-1
 1135.28 1400.83 l 1,2,-1
 1135.28 405.31 l 2,3,4
 1135.28 286.501 1135.28 286.501 1191.52 230.268 c 0,5,6
 1242.41 179.38 1242.41 179.38 1343.72 179.38 c 2,7,-1
 1410.97 179.38 l 1,8,-1
 1410.97 0.5 l 1,9,-1
 1357.87 0.5 l 2,10,11
 1234.16 0.5 1234.16 0.5 1135.82 64.8076 c 1,12,13
 1131.71 -174.942 1131.71 -174.942 986.767 -331 c 0,14,15
 860.257 -468.18 860.257 -468.18 644.745 -472.679 c 0,16,17
 388.43 -478.396 388.43 -478.396 244.756 -353.495 c 0,18,19
 103.006 -230.576 103.006 -230.576 92.3965 -7.10352 c 0,20,21
 85.3965 142.648 85.3965 142.648 137.184 274.606 c 1,22,-1
 296.582 242.591 l 1,23,24
 254.509 101.714 254.509 101.714 260.188 14.3105 c 0,25,26
 269.441 -140.608 269.441 -140.608 364.32 -228.798 c 0,27,28
 452.197 -310.997 452.197 -310.997 645.384 -303.931 c 0,29,30
 758.884 -300.031 758.884 -300.031 840.767 -241 c 0,31,32
 969.769 -148 969.769 -148 969.83 33.8574 c 0,33,-1
 969.4 372.14 l 2,0,-1
EndSplineSet
EndChar

StartChar: uniFEDF
Encoding: 65247 65247 263
Width: 531
VWidth: 2186
GlyphClass: 2
Flags: W
AnchorPoint: "Anchor-10" 297.73 1512 basechar 0
AnchorPoint: "Anchor-7" 242.73 -111.5 basechar 0
LayerCount: 2
Fore
SplineSet
398.17 441.69 m 2,0,1
 398.17 217.852 398.17 217.852 291.885 103.897 c 0,2,3
 194.978 0 194.978 0 61.7002 0 c 2,4,-1
 -54.4004 0 l 1,5,-1
 -54.4004 178.98 l 1,6,-1
 12.8496 178.98 l 2,7,8
 112.597 178.98 112.597 178.98 175.053 257.018 c 0,9,10
 231.29 327.285 231.29 327.285 231.29 454.53 c 2,11,-1
 231.29 1401.03 l 1,12,-1
 398.17 1401.03 l 1,13,-1
 398.17 441.69 l 2,0,1
EndSplineSet
EndChar

StartChar: uniFEE0
Encoding: 65248 65248 264
Width: 650
VWidth: 2186
GlyphClass: 2
Flags: W
AnchorPoint: "Anchor-10" 316.73 1508 basechar 0
AnchorPoint: "Anchor-7" 279.73 -117.5 basechar 0
LayerCount: 2
Fore
SplineSet
316.045 96.1914 m 2,0,1
 229.912 7.80436e-06 229.912 7.80436e-06 80.7002 0 c 2,2,-1
 -45.4004 0 l 1,3,-1
 -45.4004 178.98 l 1,4,-1
 21.8496 178.98 l 2,5,6
 129.024 178.98 129.024 178.98 183.053 230.268 c 0,7,8
 242.29 286.505 242.29 286.505 242.29 405.31 c 2,9,-1
 242.29 1399.96 l 1,10,-1
 409.17 1399.96 l 1,11,-1
 409.17 405.31 l 2,12,13
 409.17 288.506 409.17 288.506 467.407 230.268 c 0,14,15
 518.696 178.98 518.696 178.98 629.61 178.98 c 2,16,-1
 696.86 178.98 l 1,17,-1
 696.86 0 l 1,18,-1
 570.76 0 l 2,19,20
 423.795 1.44583e-05 423.795 1.44583e-05 335.305 96.3145 c 2,21,-1
 325.607 106.87 l 1,22,-1
 316.045 96.1914 l 2,0,1
EndSplineSet
EndChar

StartChar: uniFEE2
Encoding: 65250 65250 266
Width: 1139
VWidth: 2186
GlyphClass: 2
Flags: W
AnchorPoint: "Anchor-10" 555.5 996 basechar 0
AnchorPoint: "Anchor-7" 170.188 -734.422 basechar 0
LayerCount: 2
Fore
SplineSet
532.82 176.8 m 4,0,1
 616.358 172.022 616.358 172.022 661.538 171.01 c 4,2,3
 840.862 166.887 840.862 166.887 841.83 197.572 c 4,4,5
 845.888 422.322 845.888 422.322 676.43 463.98 c 4,6,7
 557.209 492.588 557.209 492.588 505.43 424.048 c 4,8,9
 453.675 357.155 453.675 357.155 461.276 187.983 c 5,10,11
 467.232 180.551 467.232 180.551 532.82 176.8 c 4,0,1
989 217 m 5,12,13
 1014.18 179.082 1014.18 179.082 1117.56 178.713 c 6,14,-1
 1151.99 178.59 l 5,15,-1
 1151.99 0.709961 l 5,16,-1
 1103.5 0.709961 l 6,17,18
 975.78 0.709961 975.78 0.709961 931 69 c 5,19,20
 877.829 -1.55371 877.829 -1.55371 688.524 5.11816 c 4,21,22
 508.274 11.4707 508.274 11.4707 407.525 11.2891 c 4,23,24
 334.804 11.0518 334.804 11.0518 288.551 -79 c 4,25,26
 258.54 -137.548 258.54 -137.548 258.54 -226.856 c 6,27,-1
 258.54 -660.217 l 5,28,-1
 92.8701 -660.217 l 5,29,-1
 92.8701 -212.947 l 6,30,31
 92.8701 7.66099 92.8701 7.66099 168.551 89 c 4,32,33
 230.868 155.976 230.868 155.976 301.019 168.224 c 5,34,35
 289.414 405.682 289.414 405.682 394.43 526.048 c 4,36,37
 508.12 655.764 508.12 655.764 714.43 615.034 c 4,38,39
 978 563 978 563 989 217 c 5,12,13
EndSplineSet
EndChar

StartChar: uniFEE3
Encoding: 65251 65251 267
Width: 921
VWidth: 2186
GlyphClass: 2
Flags: W
AnchorPoint: "Anchor-10" 374.69 916.5 basechar 0
AnchorPoint: "Anchor-7" 356.69 -181.5 basechar 0
LayerCount: 2
Fore
SplineSet
755.834 96.4395 m 0,0,1
 670.824 3.9541 670.824 3.9541 533.379 3.9541 c 0,2,3
 335.501 3.9541 335.501 3.9541 237.61 89.9062 c 1,4,5
 175.794 0 175.794 0 35.9805 0 c 2,6,-1
 -8.40039 0 l 1,7,-1
 -8.40039 178.979 l 1,8,-1
 50.96 178.979 l 2,9,10
 131.549 178.979 131.549 178.979 142.524 227.288 c 1,11,12
 163.592 372.357 163.592 372.357 164.829 380.489 c 0,13,14
 208.092 555.785 208.092 555.785 285.357 617.584 c 0,15,16
 374.688 687.11 374.688 687.11 462.93 695.939 c 0,17,18
 588.778 707.02 588.778 707.02 678.492 638.057 c 1,19,20
 819.408 532.511 819.408 532.511 819.408 293.948 c 0,21,22
 819.408 165.604 819.408 165.604 755.834 96.4395 c 0,0,1
517.395 149.307 m 0,23,24
 586.486 150.239 586.486 150.239 630.132 193.282 c 0,25,26
 670.423 233.509 670.423 233.509 654.855 354.035 c 0,27,28
 635.232 503.177 635.232 503.177 536.914 527.593 c 0,29,30
 427.985 553.671 427.985 553.671 360.134 458.856 c 0,31,32
 302.019 375.881 302.019 375.881 300.114 223.026 c 1,33,34
 414.021 147.913 414.021 147.913 517.395 149.307 c 0,23,24
EndSplineSet
EndChar

StartChar: uniFEE4
Encoding: 65252 65252 268
Width: 1127
VWidth: 2186
GlyphClass: 2
Flags: W
AnchorPoint: "Anchor-10" 492.79 893.5 basechar 0
AnchorPoint: "Anchor-7" 468.79 -179.5 basechar 0
LayerCount: 2
Fore
SplineSet
554.451 159.518 m 0,0,1
 648.693 145.185 648.693 145.185 709.298 193.719 c 0,2,3
 755.937 231.501 755.937 231.501 743.177 339.351 c 0,4,5
 723.85 503.854 723.85 503.854 589.058 510.311 c 0,6,7
 404.118 518.255 404.118 518.255 370.147 231.009 c 1,8,9
 435.692 177.579 435.692 177.579 554.451 159.518 c 0,0,1
593.678 -8.96973 m 1,10,11
 415.818 -8.96973 415.818 -8.96973 297.449 94.3047 c 1,12,13
 193.335 0 193.335 0 85.5996 0 c 2,14,-1
 -8.40039 0 l 1,15,-1
 -8.40039 178.979 l 1,16,-1
 92.0195 178.979 l 2,17,18
 202.177 178.979 202.177 178.979 213.937 241.359 c 0,19,20
 235.372 341.364 235.372 341.364 236.413 347.57 c 0,21,22
 262.39 502.388 262.39 502.388 326.075 574.422 c 0,23,24
 473.53 737.636 473.53 737.636 676.89 676.401 c 0,25,26
 852.711 623.458 852.711 623.458 898.27 371.448 c 0,27,28
 932.933 179.09 932.933 179.09 1074.28 179.09 c 2,29,-1
 1136.18 179.09 l 5,30,-1
 1136.18 0.209961 l 1,31,-1
 1015.43 0.209961 l 2,32,33
 928.179 0.209961 928.179 0.209961 849.836 125.495 c 1,34,35
 779.341 0.931641 779.341 0.931641 593.678 -8.96973 c 1,10,11
EndSplineSet
EndChar

StartChar: uniFEEA
Encoding: 65258 65258 274
Width: 990
VWidth: 2186
GlyphClass: 2
Flags: W
AnchorPoint: "Anchor-10" 354.95 1113.81 basechar 0
AnchorPoint: "Anchor-7" 331.88 -129 basechar 0
LayerCount: 2
Fore
SplineSet
672.554 105.418 m 0,0,1
 618.824 173.327 618.824 173.327 587.241 486.843 c 0,2,3
 566.731 689.118 566.731 689.118 390.174 582 c 0,4,5
 264.653 506.252 264.653 506.252 253.516 384.929 c 0,6,7
 246.992 313.857 246.992 313.857 292.516 255.929 c 0,8,9
 344.658 189.579 344.658 189.579 553.922 186.974 c 0,10,-1
 538.516 30.9287 l 0,11,12
 222.865 24.916 222.865 24.916 128.516 186.929 c 0,13,14
 54.7803 313.546 54.7803 313.546 81.4648 436.92 c 0,15,16
 111.362 572.519 111.362 572.519 271.516 702.929 c 0,17,18
 344.421 762.294 344.421 762.294 457.516 786.929 c 0,19,20
 654.671 830.885 654.671 830.885 722.745 638.158 c 0,21,22
 759.344 535.09 759.344 535.09 766.516 336.929 c 0,23,24
 771.932 179.15 771.932 179.15 978.3 179 c 2,25,26
 1005.26 178.98 l 1,27,-1
 1005.26 0 l 1,28,-1
 959.34 0 l 2,29,30
 755.241 0 755.241 0 672.554 105.418 c 0,0,1
EndSplineSet
EndChar

StartChar: uniFEEB
Encoding: 65259 65259 275
Width: 1308
VWidth: 2186
GlyphClass: 2
Flags: W
AnchorPoint: "Anchor-10" 601.801 1218.23 basechar 0
AnchorPoint: "Anchor-7" 425.542 -225.946 basechar 0
LayerCount: 2
Fore
SplineSet
570 315.75 m 0,0,1
 717.041 446.429 717.041 446.429 636 555.75 c 0,2,3
 566.327 650.914 566.327 650.914 427.823 613.25 c 0,4,5
 312.454 581.877 312.454 581.877 271.911 471.429 c 0,6,7
 212.525 313.317 212.525 313.317 400.822 222.25 c 1,8,9
 512.898 263.785 512.898 263.785 570 315.75 c 0,0,1
464.851 909.412 m 1,10,-1
 566.85 1042.04 l 1,11,12
 786 921.75 786 921.75 932.76 787.338 c 0,13,14
 1156.68 585.028 1156.68 585.028 1188.81 389.209 c 0,15,16
 1240.01 79.0062 1240.01 79.0062 928.993 8.53027 c 0,17,18
 697.887 -43.8387 697.887 -43.8387 439.046 74.4385 c 1,19,20
 276.161 0 276.161 0 9.62988 0 c 2,21,-1
 -8.40039 0 l 1,22,-1
 -8.40039 178.98 l 1,23,-1
 93.0898 178.98 l 2,24,25
 167.176 178.98 167.176 178.98 198.439 179.559 c 1,26,27
 124.644 252.438 124.644 252.438 110.111 335.311 c 0,28,29
 80.9926 504.592 80.9926 504.592 171.053 627.494 c 0,30,31
 253.295 740.357 253.295 740.357 386.641 760 c 0,32,33
 580.695 788.586 580.695 788.586 721.808 669.209 c 1,34,35
 836.763 559.781 836.763 559.781 797.713 393.429 c 0,36,37
 770.323 276.75 770.323 276.75 614.225 181.658 c 1,38,39
 969.808 95.209 969.808 95.209 1026.81 263.209 c 0,40,41
 1081.73 424.415 1081.73 424.415 849.424 639.419 c 0,42,43
 637.742 835.338 637.742 835.338 464.851 909.412 c 1,10,-1
EndSplineSet
EndChar

StartChar: uniFEEC
Encoding: 65260 65260 276
Width: 1055
VWidth: 2186
GlyphClass: 2
Flags: W
AnchorPoint: "Anchor-7" 368.88 -567 basechar 0
AnchorPoint: "Anchor-10" 557.76 1079.74 basechar 0
LayerCount: 2
Fore
SplineSet
337.689 178.957 m 1,0,-1
 396.343 179.715 l 2,1,2
 463.821 180.587 463.821 180.587 520.155 246.662 c 2,3,-1
 520.508 247.076 l 1,4,-1
 520.828 247.518 l 2,5,6
 590.688 344.01 590.688 344.01 590.688 567.296 c 0,7,8
 590.688 636.01 590.688 636.01 565.999 673.478 c 128,-1,9
 541.312 710.946 541.312 710.946 480.986 710.946 c 0,10,11
 395.325 710.946 395.325 710.946 352.479 550.576 c 0,12,13
 308.867 389.522 308.867 389.522 335.913 191.935 c 2,14,-1
 337.689 178.957 l 1,0,-1
232.379 685.394 m 0,15,16
 313.888 865.279 313.888 865.279 493.5 864 c 0,17,18
 610.732 863.167 610.732 863.167 677.5 788 c 0,19,20
 747.082 709.544 747.082 709.544 747.082 593.893 c 0,21,22
 747.082 224.679 747.082 224.679 572.975 72.6113 c 0,23,24
 497.787 6.93896 497.787 6.93896 365.025 0.484375 c 2,25,-1
 353.094 -0.0957031 l 1,26,-1
 352.665 -12.0352 l 2,27,28
 346.284 -189.623 346.284 -189.623 525.557 -285.337 c 2,29,-1
 541.131 -293.652 l 1,30,-1
 544.447 -276.312 l 2,31,32
 585.378 -62.2795 585.378 -62.2795 737.5 66 c 0,33,34
 868.311 178.318 868.311 178.318 1018.02 179.979 c 1,35,-1
 1106.64 179.38 l 1,36,-1
 1106.64 0.499023 l 1,37,-1
 1035.96 -0.000976562 l 2,38,39
 725.368 -2.19814 725.368 -2.19814 664.726 -480.481 c 1,40,41
 373.155 -460.966 373.155 -460.966 256.353 -257.404 c 0,42,43
 200.609 -160.231 200.609 -160.231 189.998 -11.6113 c 2,44,-1
 189.169 0 l 1,45,-1
 -17.9355 -0 l 1,46,-1
 -17.9355 178.979 l 1,47,-1
 186.791 179.037 l 1,48,-1
 186.181 194.815 l 2,49,50
 172.389 551.542 172.389 551.542 232.379 685.394 c 0,15,16
EndSplineSet
EndChar

StartChar: uniFEEE
Encoding: 65262 65262 278
Width: 862
VWidth: 2186
GlyphClass: 2
Flags: W
AnchorPoint: "Anchor-10" 330 1064 basechar 0
AnchorPoint: "Anchor-7" 481.515 -517.238 basechar 0
LayerCount: 2
Fore
SplineSet
409.256 525.276 m 0,0,1
 344.146 532.861 344.146 532.861 301.537 483.773 c 0,2,3
 254.303 431.552 254.303 431.552 253.537 326.773 c 0,4,5
 252.664 240.115 252.664 240.115 318.779 199.921 c 128,-1,6
 384.894 159.727 384.894 159.727 539.188 184.568 c 2,7,-1
 547.686 185.937 l 1,8,-1
 548.347 197.632 l 2,9,10
 558.592 378.866 558.592 378.866 497.41 474.673 c 0,11,12
 468.929 519.273 468.929 519.273 409.256 525.276 c 0,0,1
694.765 0.5 m 1,13,14
 655.499 -189.432 655.499 -189.432 491.929 -316.357 c 0,15,16
 339.191 -434.877 339.191 -434.877 35.0635 -466.086 c 1,17,-1
 5.19727 -301.812 l 1,18,19
 430.055 -267.358 430.055 -267.358 522.318 0.491211 c 1,20,21
 480.218 3.98047 480.218 3.98047 404.119 2.79297 c 0,22,23
 242.806 0.0322266 242.806 0.0322266 163.438 107.31 c 0,24,25
 91.0977 205.088 91.0977 205.088 97.5947 347.932 c 0,26,27
 103.683 487.891 103.683 487.891 192.221 599.592 c 0,28,29
 279.3 710.494 279.3 710.494 410.802 711.633 c 1,30,31
 594.108 711.633 594.108 711.633 674.537 523.773 c 0,32,33
 709.792 441.735 709.792 441.735 717.014 261.369 c 0,34,35
 718.641 218.954 718.641 218.954 716.747 178.5 c 1,36,-1
 888.66 179.38 l 1,37,-1
 888.66 0.5 l 1,38,-1
 858.98 0.5 l 1,39,-1
 694.765 0.5 l 1,13,14
EndSplineSet
EndChar

StartChar: uniFEF0
Encoding: 65264 65264 280
Width: 1445
VWidth: 2186
GlyphClass: 2
Flags: W
AnchorPoint: "Anchor-10" 590.73 519.315 basechar 0
AnchorPoint: "Anchor-7" 473.94 -574.88 basechar 0
LayerCount: 2
Fore
SplineSet
1119.99 0.494141 m 1,0,-1
 914.66 0.689453 l 1,1,2
 860.72 7.18848 860.72 7.18848 839.72 88.9888 c 128,-1,3
 818.72 170.789 818.72 170.789 855.66 178.981 c 1,4,-1
 1472.89 179.38 l 1,5,-1
 1472.89 0.5 l 1,6,-1
 1276.03 0.541016 l 1,7,8
 1341.13 -40.6749 1341.13 -40.6749 1323.51 -148.724 c 0,9,10
 1303.7 -268.231 1303.7 -268.231 1092.51 -379.068 c 0,11,12
 872.112 -495.367 872.112 -495.367 549.717 -465.501 c 0,13,14
 124.195 -426.755 124.195 -426.755 117.221 2.0957 c 0,15,16
 114.717 156.499 114.717 156.499 188.491 346.908 c 1,17,-1
 348.289 307.794 l 1,18,19
 291.148 136.404 291.148 136.404 292.113 16.3564 c 0,20,21
 294.663 -304.805 294.663 -304.805 678.998 -307.194 c 0,22,23
 889.482 -308.503 889.482 -308.503 1071.2 -196.48 c 0,24,25
 1171.31 -135.102 1171.31 -135.102 1174.55 -80.3301 c 0,26,27
 1177.55 -35.3301 1177.55 -35.3301 1119.99 0.494141 c 1,28,-1
 1119.99 0.494141 l 1,0,-1
EndSplineSet
EndChar

StartChar: uniFEFB
Encoding: 65275 65275 291
Width: 1116
VWidth: 2186
GlyphClass: 3
Flags: W
AnchorPoint: "Anchor-9" 903.69 1497 baselig 0
AnchorPoint: "Anchor-6" 832.69 -111.5 baselig 0
AnchorPoint: "Anchor-6" 195 -165 baselig 1
AnchorPoint: "Anchor-9" 202.5 1490.5 baselig 1
LayerCount: 2
Fore
SplineSet
994.03 887.88 m 2,0,1
 993.951 480.927 993.951 480.927 970.9 380.5 c 0,2,3
 918.766 149.004 918.766 149.004 745.487 61.4238 c 0,4,5
 603.858 -12.2051 603.858 -12.2051 289.908 3.70801 c 0,6,7
 149.574 10.4248 149.574 10.4248 91.4023 28.5 c 1,8,-1
 93.3672 185.996 l 1,9,10
 273.402 148.5 273.402 148.5 399.227 161.782 c 1,11,-1
 100.451 1295.46 l 1,12,-1
 242.902 1358.89 l 1,13,-1
 555.764 191.185 l 1,14,15
 782.432 224.886 782.432 224.886 820.105 503.494 c 0,16,17
 827.72 559.334 827.72 559.334 827.951 926.4 c 2,18,-1
 828.25 1399.96 l 1,19,-1
 994.13 1399.96 l 1,20,-1
 994.03 887.88 l 2,0,1
EndSplineSet
LCarets2: 1 0 
Ligature2: "'rlig' Required Ligatures in Arabic lookup 16 subtable" uniFEDF uniFE8E
EndChar

StartChar: uniFEFC
Encoding: 65276 65276 292
Width: 1236
VWidth: 2186
GlyphClass: 3
Flags: W
AnchorPoint: "Anchor-9" 882.69 1494 baselig 0
AnchorPoint: "Anchor-6" 795.69 -111.5 baselig 0
AnchorPoint: "Anchor-6" 160 -165 baselig 1
AnchorPoint: "Anchor-9" 112.5 1444.5 baselig 1
LayerCount: 2
Fore
SplineSet
726.85 154.056 m 0,0,1
 588.095 0.5 588.095 0.5 333.99 0.5 c 0,2,3
 162.628 0.5 162.628 0.5 119.08 10.0127 c 1,4,-1
 119.08 189.019 l 1,5,6
 339.949 146.544 339.949 146.544 429.35 184.056 c 1,7,-1
 91.7588 1283.99 l 1,8,-1
 238.457 1346.99 l 1,9,-1
 584.729 251.907 l 1,10,11
 692.698 364.246 692.698 364.246 742.812 499.972 c 128,-1,12
 792.928 635.698 792.928 635.698 793.05 926.4 c 2,13,-1
 793.25 1400.11 l 1,14,-1
 959.13 1400.11 l 1,15,-1
 959.13 637.5 l 2,16,17
 959.13 466.086 959.13 466.086 996.46 356.561 c 0,18,19
 1056.85 179.38 1056.85 179.38 1193.59 179.38 c 2,20,-1
 1261.94 179.38 l 1,21,-1
 1261.94 0.5 l 1,22,-1
 1194.91 0.5 l 2,23,24
 991.91 0.5 991.91 0.5 896.85 170 c 0,25,26
 834.698 280.82 834.698 280.82 835.85 340.055 c 1,27,28
 790.437 223.076 790.437 223.076 726.85 154.056 c 0,0,1
EndSplineSet
LCarets2: 1 0 
Ligature2: "'rlig' Required Ligatures in Arabic lookup 16 subtable" uniFEE0 uniFE8E
EndChar

StartChar: arabic_dot
Encoding: 65536 -1 293
Width: 150
GlyphClass: 2
Flags: W
LayerCount: 2
Fore
SplineSet
74.5 210.84 m 5,0,-1
 202.84 82.5 l 5,1,-1
 74.5 -45.8398 l 5,2,-1
 -53.8398 82.5 l 5,3,-1
 74.5 210.84 l 5,0,-1
EndSplineSet
EndChar

StartChar: arabic_2dots
Encoding: 65537 -1 294
Width: 400
GlyphClass: 2
Flags: W
LayerCount: 2
Fore
SplineSet
348.25 210.84 m 5,0,-1
 476.59 82.5 l 5,1,-1
 348.25 -45.8398 l 5,2,-1
 219.91 82.5 l 5,3,-1
 348.25 210.84 l 5,0,-1
50.75 210.84 m 5,4,-1
 179.09 82.5 l 5,5,-1
 50.75 -45.8398 l 5,6,-1
 -77.5898 82.5 l 5,7,-1
 50.75 210.84 l 5,4,-1
EndSplineSet
EndChar

StartChar: arabic_3dots
Encoding: 65538 -1 295
Width: 400
GlyphClass: 2
Flags: W
LayerCount: 2
Fore
SplineSet
197 499.59 m 5,0,-1
 325.34 371.25 l 5,1,-1
 197 242.91 l 5,2,-1
 68.6602 371.25 l 5,3,-1
 197 499.59 l 5,0,-1
348.25 197.09 m 5,4,-1
 476.59 68.75 l 5,5,-1
 348.25 -59.5898 l 5,6,-1
 219.91 68.75 l 5,7,-1
 348.25 197.09 l 5,4,-1
50.75 197.09 m 5,8,-1
 179.09 68.75 l 5,9,-1
 50.75 -59.5898 l 5,10,-1
 -77.5898 68.75 l 5,11,-1
 50.75 197.09 l 5,8,-1
EndSplineSet
EndChar

StartChar: arabic_3dots_a
Encoding: 65539 -1 296
Width: 400
GlyphClass: 2
Flags: W
LayerCount: 2
Fore
SplineSet
197 -23.624 m 5,0,-1
 325.34 -151.965 l 5,1,-1
 197 -280.305 l 5,2,-1
 68.6602 -151.965 l 5,3,-1
 197 -23.624 l 5,0,-1
348.25 222.004 m 5,4,-1
 476.59 93.665 l 5,5,-1
 348.25 -34.6758 l 5,6,-1
 219.91 93.665 l 5,7,-1
 348.25 222.004 l 5,4,-1
50.75 222.004 m 5,8,-1
 179.09 93.665 l 5,9,-1
 50.75 -34.6758 l 5,10,-1
 -77.5898 93.665 l 5,11,-1
 50.75 222.004 l 5,8,-1
EndSplineSet
EndChar

StartChar: uni066E.fina
Encoding: 65540 -1 297
Width: 1846
VWidth: 2186
GlyphClass: 2
Flags: W
AnchorPoint: "Anchor-10" 703 1065.5 basechar 0
AnchorPoint: "Anchor-7" 703 -174 basechar 0
LayerCount: 2
Fore
SplineSet
1596.27 412.607 m 4,0,1
 1621.45 268.77 1621.45 268.77 1672.7 225.726 c 4,2,3
 1727.88 179.38 1727.88 179.38 1835.97 179.38 c 6,4,-1
 1901.17 179.38 l 5,5,-1
 1901.17 0.5 l 5,6,-1
 1791.03 0.5 l 6,7,8
 1582.17 0.5 1582.17 0.5 1508.39 179.066 c 5,9,10
 1452.98 77.0332 1452.98 77.0332 1299.38 38 c 4,11,12
 1167.87 4.06641 1167.87 4.06641 984 2.91602 c 4,13,14
 905.195 2.5 905.195 2.5 837.03 2.12793 c 4,15,16
 585.218 1.43835 585.218 1.43835 449 40 c 4,17,18
 120.526 134.549 120.526 134.549 91.3975 456.768 c 4,19,20
 81.4434 568.156 81.4434 568.156 126.267 715.644 c 5,21,-1
 286.267 679.644 l 5,22,23
 257.641 534.184 257.641 534.184 265.518 482.686 c 4,24,25
 297.181 259.913 297.181 259.913 526.267 208.608 c 4,26,27
 632.559 184.804 632.559 184.804 805.099 182.017 c 4,28,29
 921.802 179.509 921.802 179.509 972.45 182.561 c 4,30,31
 1158.4 191.128 1158.4 191.128 1224.67 207.624 c 4,32,33
 1389.3 247.58 1389.3 247.58 1423.38 328 c 4,34,35
 1457.95 409.939 1457.95 409.939 1461.45 547.795 c 5,36,-1
 1579.84 547.795 l 5,37,38
 1585.28 475.378 1585.28 475.378 1596.27 412.607 c 4,0,1
EndSplineSet
EndChar

StartChar: uni06A1.fina
Encoding: 65543 -1 300
Width: 1953
VWidth: 2186
GlyphClass: 2
Flags: W
AnchorPoint: "Anchor-10" 606 1172.5 basechar 0
AnchorPoint: "Anchor-7" 713 -218.5 basechar 0
LayerCount: 2
Fore
SplineSet
1299.49 522.578 m 128,-1,1
 1299.49 441.708 1299.49 441.708 1356.71 384.485 c 128,-1,2
 1413.94 327.258 1413.94 327.258 1494.81 327.258 c 128,-1,3
 1575.67 327.258 1575.67 327.258 1632.9 384.485 c 128,-1,4
 1690.13 441.709 1690.13 441.709 1690.13 522.578 c 128,-1,5
 1690.13 603.447 1690.13 603.447 1632.9 660.671 c 128,-1,6
 1575.67 717.896 1575.67 717.896 1494.81 717.896 c 128,-1,7
 1413.94 717.896 1413.94 717.896 1356.71 660.671 c 128,-1,0
 1299.49 603.448 1299.49 603.448 1299.49 522.578 c 128,-1,1
877.061 0 m 24,8,9
 581.872 1.18862 581.872 1.18862 445.512 38.4014 c 0,10,11
 127.404 125.971 127.404 125.971 92 457 c 0,12,13
 79.4531 575.45 79.4531 575.45 128 709 c 1,14,-1
 290.912 676.955 l 1,15,16
 261.139 533.35 261.139 533.35 266 478 c 0,17,18
 283.603 250.736 283.603 250.736 535 203 c 0,19,20
 643.401 182.402 643.401 182.402 803.912 179.814 c 24,21,22
 995.002 176.309 995.002 176.309 1106 187.401 c 0,23,24
 1232.29 199.401 1232.29 199.401 1316.28 226.827 c 1,25,26
 1256.97 268.876 1256.97 268.876 1221.34 314.836 c 0,27,28
 1091.5 482.323 1091.5 482.323 1164.79 663.665 c 1,29,30
 1225.5 798.387 1225.5 798.387 1366.04 846.496 c 0,31,32
 1523.69 900.916 1523.69 900.916 1667.81 822.854 c 0,33,34
 1808.1 746.02 1808.1 746.02 1837.05 591.588 c 0,35,36
 1874.64 389.764 1874.64 389.764 1694.5 255.712 c 1,37,38
 1770.84 179.38 1770.84 179.38 1901.89 179.38 c 2,39,-1
 1967.6 179.38 l 1,40,-1
 1967.6 0.5 l 1,41,-1
 1837.22 0.5 l 2,42,43
 1676.76 0.5 1676.76 0.5 1503.58 127.369 c 1,44,45
 1380.95 69.6201 1380.95 69.6201 1286.06 41.4248 c 0,46,47
 1142.98 -1.43945 1142.98 -1.43945 877.061 0 c 24,8,9
EndSplineSet
EndChar

StartChar: uni06A1.init
Encoding: 65544 -1 301
Width: 825
VWidth: 2186
GlyphClass: 2
Flags: W
AnchorPoint: "Anchor-10" 405.53 1221.5 basechar 0
AnchorPoint: "Anchor-7" 380.53 -165 basechar 0
LayerCount: 2
Fore
SplineSet
437.626 860.189 m 4,0,1
 380.921 866.48 380.921 866.48 335.738 802.844 c 4,2,3
 281.278 728.285 281.278 728.285 286.238 642.825 c 4,4,5
 290.729 570.259 290.729 570.259 345.738 544.844 c 4,6,7
 419.613 512.092 419.613 512.092 573.229 537.295 c 5,8,9
 581.673 681.078 581.673 681.078 525.108 785.585 c 4,10,11
 488.649 854.033 488.649 854.033 437.626 860.189 c 4,0,1
559.658 373.21 m 5,12,13
 423.389 361.604 l 5,14,15
 257.816 359.283 257.816 359.283 179.626 466.189 c 4,16,17
 71.9854 613.371 71.9854 613.371 173.741 836.844 c 4,18,19
 303.799 1121.75 303.799 1121.75 533.738 1026.84 c 4,20,21
 621.268 990.45 621.268 990.45 678.679 861.245 c 4,22,23
 729.646 746.54 729.646 746.54 734.318 597.667 c 20,24,25
 744.999 249.342 744.999 249.342 594.935 123 c 0,26,27
 449.958 0 449.958 0 196.23 0 c 2,28,-1
 -8.40039 0 l 1,29,-1
 -8.40039 178.98 l 1,30,-1
 82 178.98 l 2,31,32
 330.342 178.98 330.342 178.98 401.759 205.177 c 0,33,34
 543.021 256.328 543.021 256.328 559.658 373.21 c 5,12,13
EndSplineSet
EndChar

StartChar: uni06A1.medi
Encoding: 65545 -1 302
Width: 1108
VWidth: 2186
GlyphClass: 2
Flags: W
AnchorPoint: "Anchor-10" 554.26 1012 basechar 0
AnchorPoint: "Anchor-7" 554.26 -165 basechar 0
LayerCount: 2
Fore
SplineSet
387.752 481.126 m 132,-1,1
 387.752 413.568 387.752 413.568 436.733 365.688 c 4,2,3
 485.924 317.603 485.924 317.603 555.553 317.603 c 132,-1,4
 625.18 317.603 625.18 317.603 674.371 365.688 c 4,5,6
 723.352 413.567 723.352 413.567 723.352 481.126 c 132,-1,7
 723.352 548.681 723.352 548.681 674.371 596.56 c 4,8,9
 625.178 644.646 625.178 644.646 555.553 644.646 c 132,-1,10
 485.926 644.646 485.926 644.646 436.733 596.56 c 4,11,0
 387.752 548.683 387.752 548.683 387.752 481.126 c 132,-1,1
720.76 767.327 m 0,12,13
 858.797 688.998 858.797 688.998 880.994 570.324 c 0,14,15
 901.039 462.133 901.039 462.133 868.556 368.43 c 0,16,17
 834.54 270.305 834.54 270.305 719.26 194.772 c 1,18,19
 762.092 178.227 762.092 178.227 994.03 178.98 c 2,20,-1
 1116.92 179.38 l 1,21,-1
 1116.92 0.5 l 1,22,-1
 857.73 0 l 2,23,24
 708.248 -0.288364 708.248 -0.288364 554.26 106.635 c 1,25,26
 391.346 0 391.346 0 251.79 0 c 2,27,-1
 -8.40039 0 l 1,28,-1
 -8.40039 178.98 l 1,29,-1
 114.49 178.98 l 2,30,31
 307.4 178.98 307.4 178.98 377.26 205.962 c 1,32,33
 288.013 264.651 288.013 264.651 244.969 364.021 c 0,34,35
 203.239 460.357 203.239 460.357 235.654 570.314 c 1,36,37
 275.011 716.776 275.011 716.776 414.9 773.922 c 0,38,39
 477.935 799.671 477.935 799.671 558.326 799.671 c 0,40,41
 663.381 799.671 663.381 799.671 720.76 767.327 c 0,12,13
EndSplineSet
EndChar

StartChar: uni066F.fina
Encoding: 65546 -1 303
Width: 1405
VWidth: 2186
GlyphClass: 2
Flags: W
AnchorPoint: "Anchor-10" 353 905 basechar 0
AnchorPoint: "Anchor-7" 452.645 -585.82 basechar 0
LayerCount: 2
Fore
SplineSet
1021.38 501.463 m 0,0,1
 964.68 507.754 964.68 507.754 919.5 444.117 c 0,2,3
 865.04 369.559 865.04 369.559 870 284.099 c 0,4,5
 874.49 211.532 874.49 211.532 929.5 186.117 c 0,6,7
 1003.37 153.365 1003.37 153.365 1156.99 178.568 c 1,8,9
 1165.43 322.352 1165.43 322.352 1108.87 426.858 c 0,10,11
 1072.41 495.307 1072.41 495.307 1021.38 501.463 c 0,0,1
1318.08 238.94 m 16,12,13
 1319.15 180.115 l 17,14,15
 1338.28 179.38 1338.28 179.38 1385.55 179.38 c 2,16,-1
 1440.96 179.38 l 1,17,-1
 1440.96 0.5 l 1,18,-1
 1309.78 0.5 l 1,19,20
 1296.1 -221.807 1296.1 -221.807 1128 -372.816 c 0,21,22
 989.38 -497.345 989.38 -497.345 706.182 -492.985 c 0,23,24
 396.248 -488.33 396.248 -488.33 252.266 -351.631 c 0,25,26
 87.0391 -194.931 87.0391 -194.931 90.2559 63.4014 c 0,27,28
 93.1016 272.436 93.1016 272.436 188.565 466.784 c 1,29,-1
 351.536 426.435 l 1,30,31
 264.058 199.037 264.058 199.037 265.188 61.9053 c 0,32,33
 268.332 -319.675 268.332 -319.675 695.023 -331.095 c 0,34,35
 920.732 -337.386 920.732 -337.386 1029.58 -236.617 c 0,36,37
 1134.05 -139.843 1134.05 -139.843 1143.42 14.4834 c 1,38,-1
 1007.15 2.87793 l 1,39,40
 841.57 0.556641 841.57 0.556641 763.383 107.463 c 0,41,42
 653.726 255.707 653.726 255.707 755.5 478.117 c 0,43,44
 886.412 764.202 886.412 764.202 1117.5 668.117 c 0,45,46
 1202.03 632.97 1202.03 632.97 1262.44 502.519 c 0,47,48
 1315.35 388.827 1315.35 388.827 1318.08 238.94 c 16,12,13
EndSplineSet
EndChar

StartChar: arabic_ring
Encoding: 65549 -1 306
Width: 438
GlyphClass: 2
Flags: W
LayerCount: 2
Fore
SplineSet
316 220 m 0,0,1
 316 260 316 260 288 288 c 0,2,3
 260 317 260 317 219 317 c 128,-1,4
 178 317 178 317 150 289 c 128,-1,5
 122 261 122 261 122 220 c 0,6,7
 122 178 122 178 150 150 c 0,8,9
 178 123 178 123 219 123 c 128,-1,10
 260 123 260 123 288 151 c 128,-1,11
 316 179 316 179 316 220 c 0,0,1
438 220 m 128,-1,13
 438 128 438 128 375 64 c 0,14,15
 311 0 311 0 219 0 c 128,-1,16
 127 0 127 0 64 64 c 0,17,18
 0 128 0 128 0 220 c 128,-1,19
 0 312 0 312 64 376 c 0,20,21
 127 439 127 439 219 439 c 128,-1,22
 311 439 311 439 375 376 c 1,23,12
 438 312 438 312 438 220 c 128,-1,13
EndSplineSet
EndChar

StartChar: arabic_gaf_bar
Encoding: 65550 -1 307
Width: 738
GlyphClass: 2
Flags: W
LayerCount: 2
Fore
SplineSet
728 1686 m 1,0,-1
 0 1333 l 1,1,-1
 0 1442 l 1,2,-1
 728 1795 l 1,3,-1
 728 1686 l 1,0,-1
EndSplineSet
EndChar

StartChar: uni066E.init.math
Encoding: 65560 -1 317
Width: 877
VWidth: 2186
GlyphClass: 2
Flags: W
LayerCount: 2
Fore
SplineSet
577.471 95.876 m 0,0,1
 504.315 8.5 504.315 8.5 342.4 8.5 c 2,2,-1
 -8.40039 8.5 l 1,3,-1
 -8.40039 179.38 l 1,4,-1
 283.55 179.38 l 2,5,6
 394.865 179.38 394.865 179.38 445.752 230.268 c 0,7,8
 501.99 286.505 501.99 286.505 501.99 405.31 c 2,9,-1
 501.99 624.5 l 1,10,-1
 672.87 624.5 l 1,11,-1
 672.87 405.31 l 2,12,13
 672.87 209.942 672.87 209.942 577.471 95.876 c 0,0,1
EndSplineSet
EndChar

StartChar: guillemotleft
Encoding: 171 171 318
Width: 1180
VWidth: 0
Flags: W
LayerCount: 2
Fore
SplineSet
997.34 995.46 m 1,0,-1
 997.34 815.92 l 1,1,-1
 714.4 564 l 1,2,-1
 997.34 312.08 l 1,3,-1
 997.34 132.54 l 1,4,-1
 556.48 525.46 l 1,5,-1
 556.48 602.54 l 1,6,-1
 997.34 995.46 l 1,0,-1
589.38 995.46 m 1,7,-1
 589.38 815.92 l 1,8,-1
 306.44 564 l 1,9,-1
 589.38 312.08 l 1,10,-1
 589.38 132.54 l 1,11,-1
 148.52 525.46 l 1,12,-1
 148.52 602.54 l 1,13,-1
 589.38 995.46 l 1,7,-1
EndSplineSet
EndChar

StartChar: guillemotright
Encoding: 187 187 319
Width: 1094
VWidth: 0
Flags: W
LayerCount: 2
Fore
SplineSet
181.42 995.46 m 1,0,-1
 622.28 602.54 l 1,1,-1
 622.28 525.46 l 1,2,-1
 181.42 132.54 l 1,3,-1
 181.42 312.08 l 1,4,-1
 464.36 564 l 1,5,-1
 181.42 815.92 l 1,6,-1
 181.42 995.46 l 1,0,-1
589.38 995.46 m 1,7,-1
 1030.24 602.54 l 1,8,-1
 1030.24 525.46 l 1,9,-1
 589.38 132.54 l 1,10,-1
 589.38 312.08 l 1,11,-1
 872.32 564 l 1,12,-1
 589.38 815.92 l 1,13,-1
 589.38 995.46 l 1,7,-1
EndSplineSet
EndChar

StartChar: zero
Encoding: 48 48 320
Width: 1223
Flags: W
LayerCount: 2
Fore
SplineSet
611.94 1278.4 m 0,0,1
 465.3 1278.4 465.3 1278.4 391.51 1134.11 c 128,-1,2
 317.72 989.82 317.72 989.82 317.72 700.3 c 0,3,4
 317.72 411.72 317.72 411.72 391.51 267.43 c 128,-1,5
 465.3 123.14 465.3 123.14 611.94 123.14 c 0,6,7
 759.52 123.14 759.52 123.14 833.31 267.43 c 128,-1,8
 907.1 411.72 907.1 411.72 907.1 700.3 c 0,9,10
 907.1 989.82 907.1 989.82 833.31 1134.11 c 128,-1,11
 759.52 1278.4 759.52 1278.4 611.94 1278.4 c 0,0,1
611.94 1428.8 m 128,-1,13
 847.88 1428.8 847.88 1428.8 972.43 1242.21 c 128,-1,14
 1096.98 1055.62 1096.98 1055.62 1096.98 700.3 c 0,15,16
 1096.98 345.92 1096.98 345.92 972.43 159.33 c 128,-1,17
 847.88 -27.2598 847.88 -27.2598 611.94 -27.2598 c 132,-1,18
 376 -27.2598 376 -27.2598 251.45 159.33 c 128,-1,19
 126.9 345.92 126.9 345.92 126.9 700.3 c 0,20,21
 126.9 1055.62 126.9 1055.62 251.45 1242.21 c 128,-1,12
 376 1428.8 376 1428.8 611.94 1428.8 c 128,-1,13
EndSplineSet
EndChar

StartChar: one
Encoding: 49 49 321
Width: 1223
Flags: W
LayerCount: 2
Fore
SplineSet
238.76 159.8 m 1,0,-1
 548.96 159.8 l 1,1,-1
 548.96 1230.46 l 1,2,-1
 211.5 1162.78 l 1,3,-1
 211.5 1335.74 l 1,4,-1
 547.08 1403.42 l 1,5,-1
 736.96 1403.42 l 1,6,-1
 736.96 159.8 l 1,7,-1
 1047.16 159.8 l 1,8,-1
 1047.16 0 l 5,9,-1
 238.76 0 l 1,10,-1
 238.76 159.8 l 1,0,-1
EndSplineSet
EndChar

StartChar: two
Encoding: 50 50 322
Width: 1223
Flags: W
LayerCount: 2
Fore
SplineSet
369.42 159.8 m 1,0,-1
 1032.12 159.8 l 1,1,-1
 1032.12 0 l 1,2,-1
 141 0 l 1,3,-1
 141 159.8 l 1,4,5
 249.1 271.66 249.1 271.66 435.69 460.13 c 128,-1,6
 622.28 648.6 622.28 648.6 670.22 703.12 c 0,7,8
 761.4 805.58 761.4 805.58 797.59 876.55 c 128,-1,9
 833.78 947.52 833.78 947.52 833.78 1016.14 c 0,10,11
 833.78 1128 833.78 1128 755.29 1198.5 c 128,-1,12
 676.8 1269 676.8 1269 550.84 1269 c 0,13,14
 461.54 1269 461.54 1269 362.37 1237.98 c 128,-1,15
 263.2 1206.96 263.2 1206.96 150.4 1143.98 c 1,16,-1
 150.4 1335.74 l 1,17,18
 265.08 1381.8 265.08 1381.8 364.72 1405.3 c 128,-1,19
 464.36 1428.8 464.36 1428.8 547.08 1428.8 c 4,20,21
 765.16 1428.8 765.16 1428.8 894.88 1319.76 c 128,-1,22
 1024.6 1210.72 1024.6 1210.72 1024.6 1028.36 c 0,23,24
 1024.6 941.88 1024.6 941.88 992.17 864.33 c 128,-1,25
 959.74 786.78 959.74 786.78 874.2 681.5 c 1,26,27
 850.7 654.24 850.7 654.24 724.74 524.05 c 128,-1,28
 598.78 393.86 598.78 393.86 369.42 159.8 c 1,0,-1
EndSplineSet
EndChar

StartChar: three
Encoding: 51 51 323
Width: 1223
Flags: W
LayerCount: 2
Fore
SplineSet
781.14 756.7 m 1,0,1
 917.44 727.56 917.44 727.56 994.05 635.44 c 128,-1,2
 1070.66 543.32 1070.66 543.32 1070.66 407.96 c 0,3,4
 1070.66 200.22 1070.66 200.22 927.78 86.4805 c 128,-1,5
 784.9 -27.2598 784.9 -27.2598 521.7 -27.2598 c 0,6,7
 433.34 -27.2598 433.34 -27.2598 339.81 -9.87012 c 128,-1,8
 246.28 7.51953 246.28 7.51953 146.64 42.2998 c 1,9,-1
 146.64 225.6 l 1,10,11
 225.6 179.54 225.6 179.54 319.6 156.04 c 128,-1,12
 413.6 132.54 413.6 132.54 516.06 132.54 c 0,13,14
 694.66 132.54 694.66 132.54 788.19 203.04 c 128,-1,15
 881.72 273.54 881.72 273.54 881.72 407.96 c 0,16,17
 881.72 532.04 881.72 532.04 794.77 602.07 c 128,-1,18
 707.82 672.1 707.82 672.1 552.72 672.1 c 2,19,-1
 389.16 672.1 l 1,20,-1
 389.16 828.14 l 1,21,-1
 560.24 828.14 l 2,22,23
 700.3 828.14 700.3 828.14 774.56 884.07 c 128,-1,24
 848.82 940 848.82 940 848.82 1045.28 c 0,25,26
 848.82 1153.38 848.82 1153.38 772.21 1211.19 c 128,-1,27
 695.6 1269 695.6 1269 552.72 1269 c 0,28,29
 474.7 1269 474.7 1269 385.4 1252.08 c 128,-1,30
 296.1 1235.16 296.1 1235.16 188.94 1199.44 c 1,31,-1
 188.94 1368.64 l 1,32,33
 297.04 1398.72 297.04 1398.72 391.51 1413.76 c 128,-1,34
 485.98 1428.8 485.98 1428.8 569.64 1428.8 c 4,35,36
 785.84 1428.8 785.84 1428.8 911.8 1330.57 c 128,-1,37
 1037.76 1232.34 1037.76 1232.34 1037.76 1065.02 c 0,38,39
 1037.76 948.46 1037.76 948.46 971.02 868.09 c 128,-1,40
 904.28 787.72 904.28 787.72 781.14 756.7 c 1,0,1
EndSplineSet
EndChar

StartChar: four
Encoding: 52 52 324
Width: 1223
Flags: W
LayerCount: 2
Fore
SplineSet
727.56 1237.98 m 1,0,-1
 248.16 488.8 l 1,1,-1
 727.56 488.8 l 1,2,-1
 727.56 1237.98 l 1,0,-1
677.74 1403.42 m 1,3,-1
 916.5 1403.42 l 1,4,-1
 916.5 488.8 l 1,5,-1
 1116.72 488.8 l 1,6,-1
 1116.72 330.88 l 1,7,-1
 916.5 330.88 l 1,8,-1
 916.5 0 l 1,9,-1
 727.56 0 l 1,10,-1
 727.56 330.88 l 1,11,-1
 94 330.88 l 1,12,-1
 94 514.18 l 1,13,-1
 677.74 1403.42 l 1,3,-1
EndSplineSet
EndChar

StartChar: five
Encoding: 53 53 325
Width: 1223
Flags: W
LayerCount: 2
Fore
SplineSet
207.74 1403.42 m 5,0,-1
 953.16 1403.42 l 5,1,-1
 953.16 1243.62 l 5,2,-1
 381.64 1243.62 l 5,3,-1
 381.64 899.58 l 5,4,5
 423 913.68 423 913.68 464.36 920.73 c 132,-1,6
 505.72 927.78 505.72 927.78 547.08 927.78 c 4,7,8
 782.08 927.78 782.08 927.78 919.32 799 c 132,-1,9
 1056.56 670.22 1056.56 670.22 1056.56 450.26 c 4,10,11
 1056.56 223.72 1056.56 223.72 915.56 98.2305 c 132,-1,12
 774.56 -27.2598 774.56 -27.2598 517.94 -27.2598 c 4,13,14
 429.58 -27.2598 429.58 -27.2598 337.93 -12.2197 c 132,-1,15
 246.28 2.82031 246.28 2.82031 148.52 32.9004 c 5,16,-1
 148.52 223.72 l 5,17,18
 233.12 177.66 233.12 177.66 323.36 155.1 c 132,-1,19
 413.6 132.54 413.6 132.54 514.18 132.54 c 4,20,21
 676.8 132.54 676.8 132.54 771.74 218.08 c 132,-1,22
 866.68 303.62 866.68 303.62 866.68 450.26 c 132,-1,23
 866.68 596.9 866.68 596.9 771.74 682.44 c 132,-1,24
 676.8 767.98 676.8 767.98 514.18 767.98 c 4,25,26
 438.04 767.98 438.04 767.98 362.37 751.06 c 132,-1,27
 286.7 734.14 286.7 734.14 207.74 698.42 c 5,28,-1
 207.74 1403.42 l 5,0,-1
EndSplineSet
EndChar

StartChar: six
Encoding: 54 54 326
Width: 1223
Flags: W
LayerCount: 2
Fore
SplineSet
628.44 777.38 m 132,-1,1
 500.6 777.38 500.6 777.38 425.87 689.96 c 132,-1,2
 351.14 602.54 351.14 602.54 351.14 450.26 c 4,3,4
 351.14 298.92 351.14 298.92 425.87 211.03 c 132,-1,5
 500.6 123.14 500.6 123.14 628.44 123.14 c 132,-1,6
 756.28 123.14 756.28 123.14 831.01 211.03 c 132,-1,7
 905.74 298.92 905.74 298.92 905.74 450.26 c 4,8,9
 905.74 602.54 905.74 602.54 831.01 689.96 c 132,-1,0
 756.28 777.38 756.28 777.38 628.44 777.38 c 132,-1,1
1005.38 1372.4 m 5,10,-1
 1005.38 1199.44 l 5,11,12
 933.94 1233.28 933.94 1233.28 861.09 1251.14 c 132,-1,13
 788.24 1269 788.24 1269 716.8 1269 c 4,14,15
 528.8 1269 528.8 1269 429.63 1142.1 c 132,-1,16
 330.46 1015.2 330.46 1015.2 316.36 758.58 c 5,17,18
 371.82 840.36 371.82 840.36 455.48 884.07 c 132,-1,19
 539.14 927.78 539.14 927.78 639.72 927.78 c 4,20,21
 851.22 927.78 851.22 927.78 973.89 799.47 c 132,-1,22
 1096.56 671.16 1096.56 671.16 1096.56 450.26 c 4,23,24
 1096.56 234.06 1096.56 234.06 968.72 103.4 c 132,-1,25
 840.88 -27.2598 840.88 -27.2598 628.44 -27.2598 c 4,26,27
 384.98 -27.2598 384.98 -27.2598 256.2 159.33 c 132,-1,28
 127.42 345.92 127.42 345.92 127.42 700.3 c 4,29,30
 127.42 1033.06 127.42 1033.06 285.34 1230.93 c 132,-1,31
 443.26 1428.8 443.26 1428.8 709.28 1428.8 c 4,32,33
 780.72 1428.8 780.72 1428.8 853.57 1414.7 c 132,-1,34
 926.42 1400.6 926.42 1400.6 1005.38 1372.4 c 5,10,-1
EndSplineSet
EndChar

StartChar: seven
Encoding: 55 55 327
Width: 1223
Flags: W
LayerCount: 2
Fore
SplineSet
157.92 1403.42 m 1,0,-1
 1060.32 1403.42 l 5,1,-1
 1060.32 1322.58 l 1,2,-1
 550.84 0 l 1,3,-1
 352.5 0 l 1,4,-1
 831.9 1243.62 l 1,5,-1
 157.92 1243.62 l 1,6,-1
 157.92 1403.42 l 1,0,-1
EndSplineSet
EndChar

StartChar: eight
Encoding: 56 56 328
Width: 1223
Flags: W
LayerCount: 2
Fore
SplineSet
611.94 666.46 m 0,0,1
 476.58 666.46 476.58 666.46 399.03 594.08 c 128,-1,2
 321.48 521.7 321.48 521.7 321.48 394.8 c 128,-1,3
 321.48 267.9 321.48 267.9 399.03 195.52 c 128,-1,4
 476.58 123.14 476.58 123.14 611.94 123.14 c 128,-1,5
 747.3 123.14 747.3 123.14 825.32 195.99 c 128,-1,6
 903.34 268.84 903.34 268.84 903.34 394.8 c 0,7,8
 903.34 521.7 903.34 521.7 825.79 594.08 c 128,-1,9
 748.24 666.46 748.24 666.46 611.94 666.46 c 0,0,1
422.06 747.3 m 1,10,11
 299.86 777.38 299.86 777.38 231.71 861.04 c 128,-1,12
 163.56 944.7 163.56 944.7 163.56 1065.02 c 0,13,14
 163.56 1233.28 163.56 1233.28 283.41 1331.04 c 128,-1,15
 403.26 1428.8 403.26 1428.8 611.94 1428.8 c 4,16,17
 821.56 1428.8 821.56 1428.8 940.94 1331.04 c 128,-1,18
 1060.32 1233.28 1060.32 1233.28 1060.32 1065.02 c 0,19,20
 1060.32 944.7 1060.32 944.7 992.17 861.04 c 128,-1,21
 924.02 777.38 924.02 777.38 802.76 747.3 c 1,22,23
 940 715.34 940 715.34 1016.61 622.28 c 128,-1,24
 1093.22 529.22 1093.22 529.22 1093.22 394.8 c 0,25,26
 1093.22 190.82 1093.22 190.82 968.67 81.7803 c 128,-1,27
 844.12 -27.2598 844.12 -27.2598 611.94 -27.2598 c 128,-1,28
 379.76 -27.2598 379.76 -27.2598 255.21 81.7803 c 128,-1,29
 130.66 190.82 130.66 190.82 130.66 394.8 c 0,30,31
 130.66 529.22 130.66 529.22 207.74 622.28 c 128,-1,32
 284.82 715.34 284.82 715.34 422.06 747.3 c 1,10,11
352.5 1047.16 m 128,-1,34
 352.5 938.12 352.5 938.12 420.65 877.02 c 128,-1,35
 488.8 815.92 488.8 815.92 611.94 815.92 c 0,36,37
 734.14 815.92 734.14 815.92 803.23 877.02 c 128,-1,38
 872.32 938.12 872.32 938.12 872.32 1047.16 c 128,-1,39
 872.32 1156.2 872.32 1156.2 803.23 1217.3 c 128,-1,40
 734.14 1278.4 734.14 1278.4 611.94 1278.4 c 0,41,42
 488.8 1278.4 488.8 1278.4 420.65 1217.3 c 128,-1,33
 352.5 1156.2 352.5 1156.2 352.5 1047.16 c 128,-1,34
EndSplineSet
EndChar

StartChar: nine
Encoding: 57 57 329
Width: 1223
VWidth: 1925
Flags: W
LayerCount: 2
Fore
SplineSet
217.5 28.3398 m 5,0,-1
 217.5 201.3 l 5,1,2
 288.94 167.46 288.94 167.46 362.26 149.6 c 132,-1,3
 435.58 131.74 435.58 131.74 506.08 131.74 c 4,4,5
 694.08 131.74 694.08 131.74 793.25 258.17 c 132,-1,6
 892.42 384.6 892.42 384.6 906.52 642.16 c 5,7,8
 852 561.32 852 561.32 768.34 518.08 c 132,-1,9
 684.68 474.84 684.68 474.84 583.16 474.84 c 4,10,11
 372.6 474.84 372.6 474.84 249.93 602.21 c 132,-1,12
 127.26 729.58 127.26 729.58 127.26 950.48 c 4,13,14
 127.26 1166.68 127.26 1166.68 255.1 1297.34 c 132,-1,15
 382.94 1428 382.94 1428 595.38 1428 c 4,16,17
 838.84 1428 838.84 1428 967.15 1241.41 c 132,-1,18
 1095.46 1054.82 1095.46 1054.82 1095.46 699.5 c 4,19,20
 1095.46 367.68 1095.46 367.68 938.01 169.81 c 132,-1,21
 780.56 -28.0596 780.56 -28.0596 514.54 -28.0596 c 4,22,23
 443.1 -28.0596 443.1 -28.0596 369.78 -13.96 c 132,-1,24
 296.46 0.139648 296.46 0.139648 217.5 28.3398 c 5,0,-1
595.38 623.36 m 132,-1,26
 723.22 623.36 723.22 623.36 797.95 710.78 c 132,-1,27
 872.68 798.2 872.68 798.2 872.68 950.48 c 4,28,29
 872.68 1101.82 872.68 1101.82 797.95 1189.71 c 132,-1,30
 723.22 1277.6 723.22 1277.6 595.38 1277.6 c 132,-1,31
 467.54 1277.6 467.54 1277.6 392.81 1189.71 c 132,-1,32
 318.08 1101.82 318.08 1101.82 318.08 950.48 c 4,33,34
 318.08 798.2 318.08 798.2 392.81 710.78 c 132,-1,25
 467.54 623.36 467.54 623.36 595.38 623.36 c 132,-1,26
EndSplineSet
EndChar

